<svg xmlns="http://www.w3.org/2000/svg" xmlns:xlink="http://www.w3.org/1999/xlink" width="84.436" height="86.986" viewBox="0 0 84.436 86.986">
  <defs>
    <linearGradient id="linear-gradient" x1="0.5" y1="-0.197" x2="-0.429" y2="1.208" gradientUnits="objectBoundingBox">
      <stop offset="0" stop-color="#fff"/>
      <stop offset="1" stop-color="#fff"/>
    </linearGradient>
  </defs>
  <g id="Group_47" data-name="Group 47" transform="translate(-3324.775 -33.83)">
    <g id="Group_44" data-name="Group 44" transform="translate(3368.379 55.232)">
      <path id="Path_135" data-name="Path 135" d="M3837.848,274.776a34.55,34.55,0,0,0,.749-4.417,4.085,4.085,0,0,0-7.921-1.652,14.392,14.392,0,0,0-.555,1.606q-2.384,8.642-4.75,17.29a1.7,1.7,0,0,1-1.087,1.386c-.136-.571-.21-1.026-.354-1.459a4.063,4.063,0,0,0-6.859-1.6c-3.484,3.517-6.842,7.174-10.5,10.506a15.4,15.4,0,0,0-5.114,9.911,3.865,3.865,0,0,0-.028.912,17.182,17.182,0,0,0-.693,2.648l-2.861,14.432a5.427,5.427,0,0,0,4.256,6.36l3.853.764a5.427,5.427,0,0,0,6.36-4.256l2.861-14.432a30.809,30.809,0,0,0,2.418-2.192,5.76,5.76,0,0,0,1.293-.854q5.955-5.059,12.137-9.845a6.558,6.558,0,0,0,2.654-4.156C3835.065,288.741,3836.473,281.762,3837.848,274.776Z" transform="translate(-3797.775 -265.985)" fill="url(#linear-gradient)"/>
    </g>
    <g id="Group_45" data-name="Group 45" transform="translate(3324.775 55.232)">
      <path id="Path_136" data-name="Path 136" d="M3325.534,274.776a34.507,34.507,0,0,1-.749-4.417,4.085,4.085,0,0,1,7.921-1.652,14.392,14.392,0,0,1,.555,1.606q2.384,8.642,4.75,17.29a1.7,1.7,0,0,0,1.087,1.386c.136-.571.21-1.026.354-1.459a4.063,4.063,0,0,1,6.859-1.6c3.485,3.517,6.842,7.174,10.5,10.506a15.4,15.4,0,0,1,5.114,9.911,3.85,3.85,0,0,1,.028.912,17.154,17.154,0,0,1,.693,2.648l2.861,14.432a5.427,5.427,0,0,1-4.256,6.36l-3.852.764a5.427,5.427,0,0,1-6.36-4.256l-2.862-14.432a30.8,30.8,0,0,1-2.418-2.192,5.765,5.765,0,0,1-1.293-.854q-5.954-5.059-12.137-9.845a6.559,6.559,0,0,1-2.654-4.156C3328.317,288.741,3326.909,281.762,3325.534,274.776Z" transform="translate(-3324.775 -265.985)" fill="url(#linear-gradient)"/>
    </g>
    <g id="Group_46" data-name="Group 46" transform="translate(3349.778 33.83)">
      <path id="Path_137" data-name="Path 137" d="M3623.789,76.636h-22.406c-3.774-1.235-5.387-3.464-5.388-7.454,0-3.957-.01-7.913,0-11.87a6.71,6.71,0,0,1,5.747-7.019c.671-.134.927-.413.913-1.111-.039-1.922-.006-3.845-.008-5.768a9.3,9.3,0,0,1,1.7-5.33,10.211,10.211,0,0,1,6.562-4.254h3.344c.215.058.429.117.644.173a9.857,9.857,0,0,1,7.621,9.746c.017,1.839.023,3.678,0,5.517-.01.619.223.878.827,1.007,3.838.821,5.824,3.289,5.831,7.206q.01,5.852,0,11.7C3629.175,73.182,3627.57,75.4,3623.789,76.636Zm-11.2-26.465c1.864,0,3.728-.015,5.592.008.646.008.892-.242.884-.887-.025-1.947.014-3.895-.019-5.842a6.466,6.466,0,0,0-12.922.006c-.031,1.919.014,3.839-.021,5.758-.014.73.259.981.978.969C3608.916,50.15,3610.752,50.172,3612.588,50.171Zm-3.147,11.642a2.75,2.75,0,0,0,1.058,2.343,1.478,1.478,0,0,1,.572,1.3c-.008.945-.017,1.891.014,2.835.037,1.108.513,1.6,1.482,1.611s1.473-.479,1.515-1.575c.034-.888.032-1.779.012-2.668a1.85,1.85,0,0,1,.67-1.6,3.081,3.081,0,0,0,.587-3.815,3.206,3.206,0,0,0-3.492-1.525A3.1,3.1,0,0,0,3609.441,61.813Z" transform="translate(-3595.991 -33.83)" fill="url(#linear-gradient)"/>
    </g>
  </g>
</svg>
