<svg xmlns="http://www.w3.org/2000/svg" xmlns:xlink="http://www.w3.org/1999/xlink" width="142.146" height="50.54" viewBox="0 0 142.146 50.54">
  <defs>
    <linearGradient id="linear-gradient" x1="0.5" y1="-0.197" x2="-0.429" y2="1.208" gradientUnits="objectBoundingBox">
      <stop offset="0" stop-color="#fff"/>
      <stop offset="1" stop-color="#fff"/>
    </linearGradient>
  </defs>
  <g id="Group_98" data-name="Group 98" transform="translate(-5953.315 -1237)">
    <rect id="Rectangle_38" data-name="Rectangle 38" width="94.891" height="1.031" transform="translate(5976.973 1237)" fill="url(#linear-gradient)"/>
    <rect id="Rectangle_39" data-name="Rectangle 39" width="94.891" height="1.031" transform="translate(5976.973 1286.508)" fill="url(#linear-gradient)"/>
    <rect id="Rectangle_40" data-name="Rectangle 40" width="58.069" height="1.031" transform="translate(6014.62 1261.754)" fill="url(#linear-gradient)"/>
    <rect id="Rectangle_41" data-name="Rectangle 41" width="8.664" height="1.031" transform="translate(6000.592 1261.754)" fill="url(#linear-gradient)"/>
    <rect id="Rectangle_42" data-name="Rectangle 42" width="10.418" height="1.031" transform="translate(6037.826 1249.377)" fill="url(#linear-gradient)"/>
    <rect id="Rectangle_43" data-name="Rectangle 43" width="32.696" height="1.031" transform="translate(6000.592 1249.377)" fill="url(#linear-gradient)"/>
    <rect id="Rectangle_44" data-name="Rectangle 44" width="4.435" height="1.031" transform="translate(6043.809 1274.131)" fill="url(#linear-gradient)"/>
    <rect id="Rectangle_45" data-name="Rectangle 45" width="38.266" height="1.031" transform="translate(6000.592 1274.131)" fill="url(#linear-gradient)"/>
    <g id="Group_59" data-name="Group 59" transform="translate(6048.165 1237.255)">
      <path id="Path_158" data-name="Path 158" d="M6436.767,1328.458l-23.648-10.781v-28.864l23.648,10.781Z" transform="translate(-6413.119 -1278.38)" fill="url(#linear-gradient)"/>
      <path id="Path_159" data-name="Path 159" d="M6527.757,1328.458l23.647-10.781v-28.864l-23.647,10.781Z" transform="translate(-6504.109 -1278.38)" fill="url(#linear-gradient)"/>
      <path id="Path_160" data-name="Path 160" d="M6413.119,1248.671l23.648-10.433,23.648,10.433-23.648,10.781Z" transform="translate(-6413.119 -1238.238)" fill="url(#linear-gradient)"/>
    </g>
    <g id="Group_60" data-name="Group 60" transform="translate(5953.315 1237.204)">
      <path id="Path_161" data-name="Path 161" d="M5976.963,1328.208l-23.647-10.781v-28.864l23.647,10.781Z" transform="translate(-5953.315 -1278.13)" fill="url(#linear-gradient)"/>
      <path id="Path_162" data-name="Path 162" d="M6067.952,1328.208l23.648-10.781v-28.864l-23.648,10.781Z" transform="translate(-6044.304 -1278.13)" fill="url(#linear-gradient)"/>
      <path id="Path_163" data-name="Path 163" d="M5953.315,1248.42l23.647-10.433,23.648,10.433-23.648,10.781Z" transform="translate(-5953.315 -1237.987)" fill="url(#linear-gradient)"/>
    </g>
  </g>
</svg>
