<svg id="Group_99" data-name="Group 99" xmlns="http://www.w3.org/2000/svg" xmlns:xlink="http://www.w3.org/1999/xlink" width="75.938" height="92.962" viewBox="0 0 75.938 92.962">
  <defs>
    <linearGradient id="linear-gradient" x1="0.5" y1="-0.197" x2="-0.429" y2="1.208" gradientUnits="objectBoundingBox">
      <stop offset="0" stop-color="#fff"/>
      <stop offset="1" stop-color="#fff"/>
    </linearGradient>
  </defs>
  <g id="xLWoya.tif" transform="translate(0 17.233)">
    <g id="Group_42" data-name="Group 42" transform="translate(0)">
      <path id="Path_132" data-name="Path 132" d="M2361.069,303.375h-9.129c-.05-.142-.184-.1-.281-.117-1.214-.165-2.417-.4-3.619-.632l-1.9-.48-1.9-.593a.229.229,0,0,0-.213-.075q-.022-.046-.063-.021l-.21-.069a10.967,10.967,0,0,0-1.516-.589l-1.715-.754q-1.975-1-3.895-2.1l-.412-.268-1.585-1.063c-.059-.051-.114-.107-.177-.152a38.823,38.823,0,0,1-5.721-5.047c-.971-1.041-1.841-2.167-2.742-3.267a7.237,7.237,0,0,0-.76-1.079l-.524-.809c-.8-1.274-1.531-2.594-2.235-3.926-.554-1.214-1.087-2.436-1.566-3.682q-.324-.951-.648-1.9l-.95-3.806-.334-2.043q-.115-.925-.23-1.851a14.127,14.127,0,0,0-.106-1.811q-.012-.95-.023-1.9.024-.951.049-1.9l0-.155.019-.123.138-1.626q.129-.954.258-1.908.163-.949.326-1.9l1.03-3.805.669-1.9c.534-1.285,1.1-2.556,1.705-3.808l.5-.948.549-.952,1.2-1.891.163-.259,1.208-1.652a3.927,3.927,0,0,0,.589-.766.212.212,0,0,0,.131-.17l-.007.016a5.568,5.568,0,0,0,.745-.868q.482-.519.965-1.038a47.937,47.937,0,0,1,3.974-3.718l1.395-1.07a1.4,1.4,0,0,0,.5-.365c1.256-.811,2.515-1.617,3.816-2.354,1.28-.651,2.582-1.255,3.9-1.833l1.8-.674a10.454,10.454,0,0,0,1.51-.479l.39-.108,1.905-.482,1.9-.379,1.907-.29.3-.047c.039.042.062.012.084-.018l1.512-.122,1.906-.091.1,0,.046.01.044-.018,1.337-.005.185.008.191.009,1.905.09,1.667.144,2.136.332,1.751.349,2.052.516.572.174,1.325.416,1.9.724c1.286.543,2.536,1.164,3.788,1.781,1.3.741,2.563,1.542,3.816,2.36a1.428,1.428,0,0,0,.492.355l1.405,1.08a49.3,49.3,0,0,1,4.836,4.635l.879,1.042a4.856,4.856,0,0,0,.675.851l1.231,1.7.125.206,1.208,1.9.557.97.492.932,1.711,3.806.667,1.9,1.034,3.9q.156.9.312,1.8.134.952.269,1.9.052.714.1,1.427c0,.031.006.062.009.093a.608.608,0,0,0,.041.375q.022.955.045,1.91-.005.95-.01,1.9c-.124.63-.081,1.273-.15,1.908-.007.062-.014.124-.021.187l-.008.092-.122,1.221-.02.1c-.014.069-.029.138-.043.207q-.154,1-.307,1.993l-.95,3.805-.652,1.9c-.495,1.288-1.059,2.547-1.625,3.8-.7,1.285-1.4,2.564-2.176,3.8l-.5.757-.828,1.146a41.666,41.666,0,0,1-4.463,5.027,49.416,49.416,0,0,1-4.234,3.494l-1.441.971a1.153,1.153,0,0,0-.451.282l-3.9,2.106-1.8.78-1.707.652-.1.017-2,.654-1.9.48q-1.155.217-2.309.434A10.636,10.636,0,0,0,2361.069,303.375Zm-5.94-40.053a3.682,3.682,0,0,1,2.666,0,3.483,3.483,0,0,1,2.239,3.253c0,.334.039.46.421.46q14.214-.018,28.428,0c.373,0,.438-.117.434-.459a31.585,31.585,0,0,0-.472-5.1,32.742,32.742,0,0,0-43.317-25.289,29.179,29.179,0,0,0-6.437,3.18,2.645,2.645,0,0,0-.25.128,32.785,32.785,0,0,0-14.973,27c-.009.44.115.543.547.542q13.971-.02,27.943-.01c.143,0,.286-.012.427,0,.277.026.4-.045.368-.365A3.183,3.183,0,0,1,2355.129,263.322Z" transform="translate(-2318.62 -227.646)" fill="url(#linear-gradient)"/>
    </g>
    <path id="Path_133" data-name="Path 133" d="M0,0,28.148,4.279l.951-1.9Z" transform="translate(21.855 15.916) rotate(47)" fill="url(#linear-gradient)"/>
  </g>
  <rect id="Rectangle_30" data-name="Rectangle 30" width="12.648" height="8.083" transform="translate(31.988 9.754)" fill="url(#linear-gradient)"/>
  <path id="Path_134" data-name="Path 134" d="M2730.625,58.43c-6.912,0-5.115-7.5-10.75-9.147-2.852-.836-5.089-.6-6.648.7-1.8,1.5-2.622,4.409-2.249,7.971l-2.364.248c-.458-4.364.668-8.025,3.09-10.045,1.517-1.265,4.281-2.493,8.84-1.157,4.394,1.287,5.309,4.027,5.978,6.027.492,1.473.8,2.261,1.844,2.684,1.51.611,4.383.4,8.781-.644l.549,2.313A31.892,31.892,0,0,1,2730.625,58.43Z" transform="translate(-2671.438 -46.424)" fill="url(#linear-gradient)"/>
</svg>
