<svg xmlns="http://www.w3.org/2000/svg" xmlns:xlink="http://www.w3.org/1999/xlink" width="82.154" height="70.998" viewBox="0 0 82.154 70.998">
  <defs>
    <linearGradient id="linear-gradient" x1="0.5" y1="-0.197" x2="-0.429" y2="1.208" gradientUnits="objectBoundingBox">
      <stop offset="0" stop-color="#fff"/>
      <stop offset="1" stop-color="#fff"/>
    </linearGradient>
  </defs>
  <g id="Group_123" data-name="Group 123" transform="translate(-1570.341 -4657)">
    <path id="layers" d="M69.961,33.018l-11.4-5.7,11.4-5.7a2.776,2.776,0,0,0,0-4.961L37.236.293a2.776,2.776,0,0,0-2.481,0L2.029,16.655a2.776,2.776,0,0,0,0,4.961l11.4,5.7-11.4,5.7a2.776,2.776,0,0,0,0,4.961l11.4,5.7-11.4,5.7a2.776,2.776,0,0,0,0,4.961L34.755,70.7a2.775,2.775,0,0,0,2.481,0L69.961,54.342a2.776,2.776,0,0,0,0-4.961l-11.4-5.7,11.4-5.7A2.776,2.776,0,0,0,69.961,33.018ZM36,5.874,62.519,19.136,36,32.4,9.471,19.136ZM62.519,51.862,36,65.123,9.471,51.862l10.161-5.081,15.122,7.561a2.775,2.775,0,0,0,2.481,0l15.122-7.561ZM36,48.761,9.471,35.5l10.161-5.081,15.122,7.561a2.775,2.775,0,0,0,2.481,0l15.122-7.561L62.519,35.5Zm0,0" transform="translate(1576.508 4657)" fill="url(#linear-gradient)"/>
    <path id="Path_235" data-name="Path 235" d="M8283.787,4689.711l-16.4-7.479s-19.6.568-12.492,8.223,40.92,22.4,40.92,22.4l39.682-20.207-17.323-8.324-22.358,11.542Z" transform="translate(-6683)" fill="#0029b2" opacity="0.842"/>
  </g>
</svg>
