<svg xmlns="http://www.w3.org/2000/svg" viewBox="0 0 163.99 154.17"><defs><style>.cls-1{fill:#0f2a9c;}.cls-2{fill:#59bec9;}</style></defs><title>case</title><g id="Слой_2" data-name="Слой 2"><g id="content"><path class="cls-1" d="M109.6,124.17H22.52A22.54,22.54,0,0,1,0,101.65V38.41A22.55,22.55,0,0,1,22.52,15.89H109.6a22.55,22.55,0,0,1,22.52,22.52v63.24A22.54,22.54,0,0,1,109.6,124.17ZM22.52,20.89A17.54,17.54,0,0,0,5,38.41v63.24a17.54,17.54,0,0,0,17.52,17.52H109.6a17.54,17.54,0,0,0,17.52-17.52V38.41A17.54,17.54,0,0,0,109.6,20.89Z"/><path class="cls-2" d="M161.56,90.47c-1.34-3.58-15.2,21-25.92,11.17s12.51-25.92,8.94-26.81c-7.6-1.79-16.09.89-21.9,7.15a23.33,23.33,0,0,0-3.58,25.47L91,138.29a8.54,8.54,0,1,0,12.51,11.62l28.16-30.84a23.23,23.23,0,0,0,25-6.26A24.32,24.32,0,0,0,161.56,90.47Z"/><path class="cls-1" d="M97.37,154.17a10.5,10.5,0,0,1-7-2.69,9.43,9.43,0,0,1-3.25-6.95,10.53,10.53,0,0,1,2.66-7.23l27.5-30.12A24.88,24.88,0,0,1,121.55,81c6.18-6.66,15.12-9.57,23.37-7.62a2,2,0,0,1,1.45,1.29c.46,1.48-.79,2.9-3.52,6-6.27,7.17-11.91,14.61-6.2,19.85s12.51-1,19-7.77c2.85-3,4.28-4.43,5.82-4.12A2,2,0,0,1,163,89.94l0,.08c2.42,7.76.33,17.31-5.21,23.77a24.87,24.87,0,0,1-25.72,7l-27.49,30.11A9.48,9.48,0,0,1,97.37,154.17Zm42.41-78.4a22,22,0,0,0-16,7.23,21.76,21.76,0,0,0-3.34,23.78l.46.92L92.05,139.3a7.56,7.56,0,0,0-1.89,5.15,6.46,6.46,0,0,0,2.22,4.78,7,7,0,0,0,10-.31l28.86-31.61.94.35a21.81,21.81,0,0,0,23.42-5.87,23.09,23.09,0,0,0,4.93-19.57c-.74.67-1.76,1.73-2.63,2.64-5.22,5.41-14.93,15.49-23.22,7.89s1-18.31,6-24c.78-.89,1.69-1.93,2.28-2.69A18.85,18.85,0,0,0,139.78,75.77Z"/><path class="cls-2" d="M52.39,57.53a15.89,15.89,0,1,0,27.35,0Z"/><path class="cls-1" d="M66.06,84A18.39,18.39,0,0,1,50.23,56.25L51,55H81.17l.72,1.22A18.39,18.39,0,0,1,66.06,84ZM53.89,60a13.39,13.39,0,1,0,24.34,0Z"/><rect class="cls-1" x="2.5" y="55.03" width="127.12" height="5"/><path class="cls-1" d="M92.24,20.89H40V10a10,10,0,0,1,10-10H82.2a10.05,10.05,0,0,1,10,10ZM45,15.89H87.24V10a5.05,5.05,0,0,0-5-5H50.06a5,5,0,0,0-5,5Z"/></g></g></svg>