<svg xmlns="http://www.w3.org/2000/svg" viewBox="0 0 128 81.53"><defs><style>.cls-1{fill:#052aa3;}.cls-2{fill:#13c2cc;}</style></defs><title>code</title><g id="Слой_2" data-name="Слой 2"><g id="content"><path class="cls-1" d="M36.24,78.34a3.12,3.12,0,0,1-2.13-.84L1,46.65a3.16,3.16,0,0,1-1-2.29,3.11,3.11,0,0,1,1-2.29L34.11,11.29a3.13,3.13,0,0,1,4.26,4.58L7.71,44.36,38.37,72.93a3.12,3.12,0,0,1-2.13,5.41Z"/><path class="cls-1" d="M91.76,78.34a3.12,3.12,0,0,1-2.13-5.41l30.66-28.57L89.63,15.87a3.13,3.13,0,1,1,4.26-4.58L127,42.07a3.13,3.13,0,0,1,0,4.58L93.89,77.5A3.12,3.12,0,0,1,91.76,78.34Z"/><path class="cls-1" d="M58.19,81.53a6,6,0,0,1-1-.08A6.25,6.25,0,0,1,52,74.26l11.51-69A6.25,6.25,0,0,1,75.87,7.28l-11.52,69A6.25,6.25,0,0,1,58.19,81.53Z"/><path class="cls-2" d="M58.19,77.79a2.71,2.71,0,0,1-.41,0,2.5,2.5,0,0,1-2.06-2.87l11.52-69a2.5,2.5,0,1,1,4.93.82l-11.52,69A2.5,2.5,0,0,1,58.19,77.79Z"/></g></g></svg>