<?xml version="1.0" encoding="UTF-8" standalone="no"?>
<svg
   xmlns:dc="http://purl.org/dc/elements/1.1/"
   xmlns:cc="http://creativecommons.org/ns#"
   xmlns:rdf="http://www.w3.org/1999/02/22-rdf-syntax-ns#"
   xmlns:svg="http://www.w3.org/2000/svg"
   xmlns="http://www.w3.org/2000/svg"
   xmlns:sodipodi="http://sodipodi.sourceforge.net/DTD/sodipodi-0.dtd"
   xmlns:inkscape="http://www.inkscape.org/namespaces/inkscape"
   inkscape:version="1.0 (4035a4f, 2020-05-01)"
   sodipodi:docname="element-icon-white-bg-shere.svg"
   id="svg8"
   version="1.1"
   viewBox="0 0 42.000008 42.000057"
   height="42.000057mm"
   width="42.000008mm">
  <defs
     id="defs2" />
  <sodipodi:namedview
     fit-margin-bottom="0"
     fit-margin-right="0"
     fit-margin-left="0"
     fit-margin-top="0"
     inkscape:window-maximized="0"
     inkscape:window-y="639"
     inkscape:window-x="2560"
     inkscape:window-height="800"
     inkscape:window-width="1440"
     showgrid="true"
     inkscape:document-rotation="0"
     inkscape:current-layer="layer2"
     inkscape:document-units="mm"
     inkscape:cy="67.997582"
     inkscape:cx="48.843062"
     inkscape:zoom="2.9524576"
     inkscape:pageshadow="2"
     inkscape:pageopacity="0.0"
     borderopacity="1.0"
     bordercolor="#666666"
     pagecolor="#ffffff"
     id="base" />
  <metadata
     id="metadata5">
    <rdf:RDF>
      <cc:Work
         rdf:about="">
        <dc:format>image/svg+xml</dc:format>
        <dc:type
           rdf:resource="http://purl.org/dc/dcmitype/StillImage" />
        <dc:title></dc:title>
      </cc:Work>
    </rdf:RDF>
  </metadata>
  <g
     style="display:inline"
     inkscape:label="Layer 2"
     id="layer2"
     inkscape:groupmode="layer">
    <circle
       r="21"
       cy="21.005884"
       cx="21.0347"
       id="path1124"
       style="opacity:1;fill:#FFFFFF;fill-opacity:0.990476;stroke:#000000;stroke-width:0.352999;stroke-miterlimit:4;stroke-dasharray:none;stroke-opacity:0" />
  </g>
  <g
          style="display:inline"
          transform="translate(-0.59959793,-0.60903481)"
          id="layer1"
          inkscape:groupmode="layer"
          inkscape:label="Layer 1">
    <path
            id="path74"
            d="M 23.554364,36.294056 C 20.62045,36.10712 17.914304,34.877771 15.825043,32.78278 13.74444,30.69647 12.544428,28.014069 12.354826,25.025759 c -0.06683,-1.053316 0.03851,-1.457338 0.499945,-1.917404 0.713997,-0.711883 1.792241,-0.719704 2.492802,-0.01807 0.409347,0.409971 0.562182,0.853799 0.562887,1.634601 0.0012,1.312781 0.556627,3.035139 1.371283,4.252186 0.679412,1.014999 1.633161,1.938272 2.621906,2.538122 1.228328,0.745197 2.530527,1.142839 4.012698,1.225323 0.788861,0.04391 1.048051,0.102101 1.352687,0.303737 0.747821,0.494979 1.021983,1.445847 0.651276,2.258798 -0.133954,0.293755 -0.531995,0.689582 -0.838899,0.834231 -0.233569,0.110084 -0.681464,0.208035 -0.896592,0.196078 -0.05895,-0.0033 -0.342651,-0.02096 -0.630455,-0.0393 z m 1.060992,-5.400684 c -0.358068,-0.05932 -0.664934,-0.221379 -0.939092,-0.495954 -0.712396,-0.713483 -0.720221,-1.790952 -0.01808,-2.491007 0.410266,-0.409052 0.854413,-0.561778 1.635779,-0.562482 1.313726,-0.0012 3.037326,-0.556226 4.255249,-1.370296 1.015732,-0.678922 1.939669,-1.631985 2.53995,-2.620018 0.745735,-1.227443 1.143665,-2.528704 1.226209,-4.009808 0.04393,-0.788293 0.102173,-1.047296 0.303955,-1.351713 0.495337,-0.747282 1.446887,-1.021248 2.260422,-0.650807 0.29397,0.133857 0.690081,0.531611 0.834834,0.838295 0.171612,0.363586 0.20636,0.68092 0.15793,1.442242 -0.193232,3.037621 -1.385023,5.684725 -3.515033,7.807287 -1.80973,1.803401 -4.10387,2.959533 -6.664719,3.358684 -0.34684,0.05406 -1.738806,0.168041 -1.822002,0.149192 -0.01178,-0.0026 -0.126716,-0.0223 -0.255394,-0.04361 z M 8.4102491,25.495544 C 8.0522054,25.436257 7.745328,25.274193 7.4711588,24.999605 6.9971487,24.524874 6.8865108,24.113035 6.9528449,23.070247 c 0.193233,-3.037622 1.3850246,-5.684724 3.5150351,-7.807286 2.08569,-2.078398 4.77177,-3.278415 7.762421,-3.467892 1.054073,-0.06678 1.458389,0.03848 1.918785,0.499585 0.712396,0.713482 0.720221,1.790951 0.01807,2.491006 -0.410267,0.409053 -0.854414,0.561777 -1.635779,0.562482 -1.313725,0.0012 -3.037326,0.556227 -4.25525,1.370297 -1.01573,0.678922 -1.939669,1.631985 -2.53995,2.620017 -0.745065,1.226341 -1.142823,2.526336 -1.226873,4.009808 -0.05381,0.949808 -0.117895,1.163882 -0.466752,1.559289 -0.4096841,0.464359 -1.0298484,0.687753 -1.6323175,0.587991 z M 29.416869,20.097731 c -0.358044,-0.05929 -0.664921,-0.221351 -0.939091,-0.495939 -0.409347,-0.409971 -0.562183,-0.853797 -0.562889,-1.6346 -0.0012,-1.312781 -0.556626,-3.03514 -1.371282,-4.252187 -0.679412,-1.015 -1.633162,-1.938273 -2.621906,-2.538122 C 22.693372,10.431685 21.391174,10.034043 19.909005,9.9515581 19.120142,9.9076561 18.860952,9.8494575 18.556316,9.6478209 17.808495,9.1528415 17.534333,8.2019755 17.90504,7.3890259 18.038994,7.0952687 18.437034,6.6994428 18.743939,6.5547939 19.107788,6.3833062 19.42535,6.348582 20.187221,6.3969773 c 1.779008,0.1130053 3.24519,0.5099036 4.7838,1.2949833 3.150525,1.607563 5.488138,4.6287424 6.239056,8.0634834 0.214272,0.980102 0.338971,2.353217 0.259122,2.853344 -0.15702,0.983484 -1.076469,1.650535 -2.05233,1.488943 z"
            style="fill:#052a9f;fill-opacity:1;stroke:#000000;stroke-width:0.0428823;stroke-miterlimit:4;stroke-dasharray:none;stroke-opacity:0" />
  </g>
</svg>
