<svg xmlns="http://www.w3.org/2000/svg" viewBox="0 0 128 83.62"><defs><style>.cls-1{fill:#2a5080;}.cls-2{fill:#052a9f;}.cls-3{fill:#2a4ab7;}.cls-4{fill:#13bec8;}.cls-5{fill:#fff;}</style></defs><title>fungibility</title><g id="Слой_2" data-name="Слой 2"><g id="content"><path class="cls-1" d="M24.8,83.52h-.43l-1.09,0-1.22-.07c-.37,0-.74-.06-1.11-.09l-1.19-.13L18.69,83c-.43-.06-.86-.14-1.28-.22l-1-.2c-.51-.11-1-.24-1.5-.37l-.18,0L14.08,82c-.92-.27-1.8-.57-2.61-.88l-1.24-.53L10,80.54l-.43-.19c-.67-.32-1.26-.63-1.82-.95C2.79,76.51.05,72.56.06,68.26h4c0,2.8,2,5.52,5.73,7.66.47.27,1,.53,1.53.8l.28.12.26.11,1.07.46c.7.27,1.46.53,2.28.77l.53.14.2,0c.44.12.88.23,1.33.33l.9.18,1.13.2,1,.13c.35,0,.71.09,1.07.12s.67.06,1,.09l1.09.06,1,0h1.18l.93,0c.5,0,1-.06,1.47-.1l.28,0,.48,0c.85-.09,1.67-.2,2.45-.34l.49-.1.43-.09c.36-.07.72-.14,1.08-.23.19,0,.37-.1.56-.15l.28-.08c.41-.11.76-.2,1.1-.31l.36-.12.24-.09c.57-.19,1.13-.4,1.67-.63l.16-.07.44-.18c.79-.36,1.41-.68,2-1,.18-.1.35-.22.51-.33l.45-.29.55-.37.41-.32.28-.23c.17-.13.33-.26.48-.4l.16-.15.17-.17c.3-.29.57-.59.81-.87l.31-.38c.16-.22.3-.44.43-.65l.08-.13a2.61,2.61,0,0,0,.17-.28c.1-.18.17-.36.25-.54l.08-.17a2.33,2.33,0,0,0,.11-.28,3.31,3.31,0,0,0,.12-.42l.08-.27a2.44,2.44,0,0,0,.06-.26,2.87,2.87,0,0,0,.05-.41l0-.38a1.94,1.94,0,0,0,0-.24h4c0,.23,0,.45,0,.67l0,.29c0,.26,0,.52-.1.78s-.09.4-.14.6l-.06.22c-.07.25-.13.5-.22.76l-.23.56-.06.12c-.13.3-.25.58-.4.86s-.2.34-.3.5l-.07.11c-.19.31-.4.63-.63.94l-.44.54a13.48,13.48,0,0,1-1.11,1.2l-.11.11c-.1.1-.2.21-.32.31s-.43.37-.66.55l-.26.21-.57.45c-.24.17-.49.33-.74.49l-.4.27L42,79.4c-.68.39-1.42.76-2.33,1.17l-.54.24-.16.06c-.63.27-1.28.51-1.93.73l-.2.07-.5.17c-.38.12-.78.23-1.18.34l-.31.09c-.23.06-.46.13-.7.18-.4.1-.81.18-1.22.27l-.4.08-.62.12c-.88.16-1.79.28-2.73.38l-.6,0-.25,0c-.54,0-1.08.09-1.62.11-.34,0-.69,0-1,0Z"/><path class="cls-2" d="M24,83.61h-.15l-.4,0-.21,0L22,83.51h-.17l-.36,0-.38,0-.2,0-1.19-.14-.18,0-.38,0-.36-.06-.16,0-1.27-.22-.19,0-.41-.08-.29-.07-.11,0c-.5-.11-1-.24-1.5-.37l-.19,0-.43-.1L14,82.11c-.88-.26-1.74-.55-2.54-.86l-.17-.06c-.29-.11-.57-.24-.85-.36L10,80.62l-.44-.19c-.64-.3-1.25-.62-1.81-1C2.73,76.6,0,72.65,0,68.35L.12,14.56h4L4,68.36c0,2.8,2,5.52,5.73,7.66.46.27,1,.53,1.53.8l.28.12.54.24.63.27.16.06c.7.27,1.47.53,2.28.76l.22.08.19,0,.32.08c.44.12.88.23,1.33.33l.25.06.11,0,.23,0,.31.06c.37.07.75.14,1.13.19l.28,0,.18,0,.21,0,.3,0c.35,0,.71.09,1.07.12l.29,0,.23,0H22l.28,0,1.1,0,.29,0h.7c.39,0,.78,0,1.18,0h.69l.25,0c.48,0,1-.06,1.45-.1l.34,0,.25,0,.18,0c.85-.09,1.67-.2,2.45-.34l.17,0,.3-.06.48-.11,1-.22.57-.15.27-.08,1.1-.31.2-.06.11,0,.3-.11c.56-.19,1.12-.4,1.66-.63l.1,0L38,77c.79-.36,1.41-.68,2-1l.24-.14.26-.17.28-.19.13-.09c.21-.13.41-.26.6-.4l.4-.31.31-.25.47-.39a.53.53,0,0,1,.11-.09,2.4,2.4,0,0,1,.21-.23,9.26,9.26,0,0,0,.81-.88l.18-.19c.05-.07.08-.13.13-.19s.3-.43.44-.65l.17-.25a.61.61,0,0,1,.07-.14c.1-.2.18-.38.26-.57l.13-.27v0s0-.08,0-.12a4.14,4.14,0,0,0,.13-.43l0-.09c0-.11.06-.2.08-.29l0,0s0-.06,0-.09a3.87,3.87,0,0,0,0-.45V69a2.91,2.91,0,0,1,0-.31v-.21l.12-54.86h4l-.12,55.15a4.52,4.52,0,0,1-.05.49l0,.17c0,.24,0,.49-.08.73,0,.08,0,.17,0,.26s-.08.3-.13.47l-.05.15c-.06.24-.12.47-.2.7a2,2,0,0,1-.08.26c0,.13-.12.28-.19.43l0,.07a7.37,7.37,0,0,1-.38.81,1.15,1.15,0,0,1-.12.25c-.07.13-.16.25-.24.37-.22.36-.43.67-.66,1a2.33,2.33,0,0,1-.19.27,2.43,2.43,0,0,1-.26.29,14.57,14.57,0,0,1-1.1,1.18,3.2,3.2,0,0,1-.26.28l-.19.16c-.18.16-.4.34-.62.51l-.29.23-.57.45c-.24.18-.51.35-.77.52l-.31.21-.47.3-.27.16a25.73,25.73,0,0,1-2.36,1.2l-.61.26-.09,0c-.63.26-1.27.51-1.92.73l-.09,0-.34.12-.24.07c-.44.14-.86.25-1.28.37l-.25.06-.7.19c-.4.1-.8.18-1.2.26l-.39.08L32,83l-.17,0c-.83.14-1.75.27-2.69.37l-.2,0-.43,0h-.22c-.54.05-1.08.09-1.62.11H24Z"/><path class="cls-3" d="M12.5,21.53c.43.25.89.49,1.39.73l.4.19a17.84,17.84,0,0,1-1.69-.86l-.42-.25Z"/><path class="cls-1" d="M49.51,15.25c-.39,3.84-3.35,7.37-8.33,9.91-9.69,5-24.41,4.6-33.53-.67l-1.07-.65C-2.56,17.86-1.56,9,8.86,3.62c9.46-4.87,24.47-4.48,33.51.73.34.2.67.4,1,.61C47.71,7.8,49.9,11.45,49.51,15.25ZM39.09,23.54C47.77,19,48.5,11.32,40.73,6.27l-.85-.52C32,1.2,19.29.94,10.91,5.27,2.23,9.76,1.5,17.49,9.27,22.53l.86.53c7.88,4.55,20.59,4.8,29,.48"/><path class="cls-4" d="M40.73,6.27l-.85-.52C32,1.2,19.29.94,10.91,5.27,2.23,9.76,1.5,17.49,9.27,22.53l.86.53c7.88,4.54,20.59,4.8,29,.48C47.77,19,48.5,11.32,40.73,6.27Z"/><path class="cls-2" d="M24.81,69.79h-.44l-1.1,0-1.21-.07c-.37,0-.74-.06-1.11-.09s-.79-.08-1.19-.14-.72-.09-1.07-.15-.86-.14-1.28-.22l-1-.2c-.5-.11-1-.24-1.49-.37l-.22,0-.62-.17c-.92-.27-1.8-.57-2.61-.88-.4-.16-.8-.34-1.19-.51L10,66.8l-.43-.19C9,66.3,8.35,66,7.79,65.67,2.79,62.78.05,58.83.06,54.53h4c0,2.8,2,5.52,5.73,7.66.47.27,1,.53,1.53.8l.27.12.27.11c.37.17.71.32,1.06.45.71.28,1.47.54,2.29.78l.5.13.23.06c.44.12.88.23,1.33.33l.89.18,1.14.2,1,.13q.54.08,1.08.12c.33,0,.67.06,1,.09l1.09.06,1,0c.39,0,.78,0,1.18,0l.94,0c.48,0,1-.06,1.46-.1l.28,0,.48,0c.86-.09,1.68-.2,2.45-.34l.52-.1.41-.09c.36-.07.72-.14,1.07-.23.19,0,.38-.1.57-.15l.41-.11,1-.28.35-.12.25-.09c.57-.19,1.13-.4,1.67-.63l.1,0,.5-.21c.79-.36,1.42-.68,2-1,.18-.1.35-.22.51-.33l.42-.27.58-.39.41-.32.26-.21c.17-.14.34-.27.5-.42l.16-.15.17-.17c.3-.29.57-.59.81-.87l.31-.38c.16-.22.3-.44.43-.65l.08-.13a2.61,2.61,0,0,0,.17-.28c.1-.18.17-.36.25-.54l.08-.17a2.33,2.33,0,0,0,.11-.28,3.31,3.31,0,0,0,.12-.42l.08-.27a2.44,2.44,0,0,0,.06-.26,2.87,2.87,0,0,0,.05-.41l0-.38a1.94,1.94,0,0,0,0-.24h4c0,.23,0,.45,0,.67l0,.29c0,.26,0,.52-.1.78s-.09.4-.14.6l-.06.22c-.07.25-.13.5-.22.76l-.23.56-.06.12c-.13.3-.25.58-.4.86s-.2.34-.3.5l-.07.11a9.19,9.19,0,0,1-.64.94c-.13.18-.28.36-.43.55a15,15,0,0,1-1.11,1.19l-.11.11c-.1.1-.2.21-.32.31s-.45.38-.69.57l-.23.19-.57.45c-.25.18-.51.35-.77.51l-.37.25-.72.46c-.67.38-1.41.76-2.33,1.17l-.61.27-.09,0c-.63.27-1.28.51-1.93.73l-.2.08-.49.16-1.1.32-.4.11-.69.18L32.94,69l-.37.07-.65.13c-.87.15-1.78.28-2.73.38l-.6.05-.25,0c-.54,0-1.08.09-1.62.11l-1,0Z"/><path class="cls-2" d="M24.81,56.06h-.44l-1.1,0L22.06,56c-.37,0-.73-.06-1.1-.09s-.81-.08-1.2-.14-.72-.09-1.07-.15-.85-.14-1.28-.22l-1-.2c-.5-.11-1-.24-1.49-.37l-.22,0-.62-.17c-.91-.27-1.79-.56-2.61-.88l-1.24-.53-.2-.09-.43-.19c-.65-.31-1.25-.62-1.81-.94C2.79,49.05.05,45.1.06,40.8h4c0,2.8,2,5.52,5.73,7.66.47.27,1,.53,1.53.8l.27.12.27.11,1.07.46c.71.27,1.47.53,2.28.77l.5.13.23.06c.44.12.88.23,1.33.33l.89.18,1.14.2,1,.13q.54.08,1.08.12c.33,0,.66.06,1,.09l1.09.06,1,0c.39,0,.78,0,1.18,0l.94,0c.48,0,1-.06,1.46-.1l.28,0,.48,0c.86-.09,1.68-.2,2.45-.34l.52-.1.44-.1,1-.22c.19,0,.37-.1.56-.15l.28-.08c.41-.11.76-.2,1.1-.31l.36-.12.24-.09c.57-.19,1.13-.4,1.67-.63l.1,0,.5-.22a19.91,19.91,0,0,0,2-1l.51-.33.43-.28c.19-.12.39-.25.57-.38l.41-.32.26-.21c.17-.14.34-.27.5-.42l.16-.15.17-.17a9.37,9.37,0,0,0,.81-.88c.11-.12.21-.24.31-.37s.3-.44.43-.65l.09-.13c.05-.1.11-.19.16-.28a4.34,4.34,0,0,0,.25-.54l.08-.17.12-.28c0-.14.08-.28.11-.42l.08-.27a2.44,2.44,0,0,0,.06-.26,2.87,2.87,0,0,0,.05-.41l0-.38a1.94,1.94,0,0,0,0-.24h4c0,.23,0,.45,0,.67l0,.29c0,.26,0,.52-.1.78s-.09.4-.14.6l-.06.21a7.42,7.42,0,0,1-.22.77c-.07.18-.15.37-.23.55l-.06.13c-.13.3-.25.58-.4.86s-.2.34-.3.5l-.07.11a9.19,9.19,0,0,1-.64.94c-.13.18-.28.36-.43.54a13.6,13.6,0,0,1-1.11,1.2l-.11.11-.32.31c-.21.19-.45.38-.69.57l-.23.19-.57.45-.76.51-.38.25-.72.46c-.67.38-1.41.76-2.33,1.17-.2.1-.4.18-.6.26l-.1,0c-.63.27-1.27.51-1.93.73l-.2.07-.49.17-1.19.34-.31.09c-.23.06-.46.13-.7.18s-.79.18-1.19.26l-.4.08-.65.13c-.87.15-1.78.28-2.73.38l-.6,0-.25,0c-.54.05-1.08.09-1.62.11l-1,0Z"/><path class="cls-2" d="M24.83,42.33h-.46l-1.1,0-1.21-.07c-.37,0-.73-.06-1.1-.09L19.76,42l-1.07-.16c-.43-.06-.85-.14-1.28-.22l-1-.2c-.5-.11-1-.24-1.49-.37L14.7,41l-.62-.17c-.91-.27-1.79-.56-2.61-.88l-1.24-.53-.2-.09-.43-.19c-.64-.3-1.25-.62-1.81-.94C2.79,35.32.05,31.37.06,27.07h4c0,2.8,2,5.52,5.73,7.66.46.27,1,.54,1.53.8l.27.12.27.11,1.07.46c.71.27,1.47.53,2.28.77l.5.13.23.06c.44.12.88.23,1.33.33l.89.18,1.14.2,1,.13c.35,0,.71.09,1.07.12s.66.06,1,.09l1.09.06,1,0h1.19c.31,0,.62,0,.93,0,.49,0,1-.06,1.47-.1l.28,0,.48,0c.86-.09,1.68-.2,2.45-.34l.52-.1.44-.1,1-.22c.19,0,.37-.1.56-.15l.28-.08c.41-.11.76-.2,1.1-.31l.36-.12.24-.09c.57-.19,1.13-.4,1.67-.63l.13-.05.47-.2c.79-.36,1.41-.68,2-1,.18-.1.35-.22.52-.33l.43-.28.56-.38c.14-.1.27-.21.4-.32l.27-.21c.17-.14.34-.27.5-.42l.16-.15.17-.17a9.37,9.37,0,0,0,.81-.88c.11-.12.21-.24.31-.37s.3-.44.43-.65l.09-.14.16-.27a4.34,4.34,0,0,0,.25-.54l.08-.17c0-.09.08-.18.11-.27a3.45,3.45,0,0,0,.12-.43l.08-.27a2.44,2.44,0,0,0,.06-.26,2.87,2.87,0,0,0,.05-.41l0-.38a1.94,1.94,0,0,0,0-.24h4c0,.23,0,.45,0,.67l0,.29c0,.26,0,.52-.1.78s-.09.4-.14.6l-.06.22c-.07.25-.13.51-.22.76s-.15.37-.23.55l-.06.13c-.13.3-.25.58-.4.86s-.2.34-.3.5l-.07.11a9.19,9.19,0,0,1-.64.94c-.13.18-.28.36-.43.54a13.6,13.6,0,0,1-1.11,1.2l-.1.11-.33.31c-.21.19-.45.38-.69.57l-.23.19c-.19.15-.37.3-.58.45s-.48.33-.73.5l-.4.26c-.23.15-.47.31-.72.45-.68.4-1.42.77-2.33,1.19l-.58.24-.12,0c-.63.27-1.27.51-1.93.73l-.2.07-.49.17L35.17,41l-.31.09c-.23.06-.46.13-.7.18s-.79.18-1.19.26l-.4.08-.65.13c-.87.15-1.78.28-2.73.38l-.6,0-.25,0c-.54,0-1.08.09-1.62.11-.34,0-.69,0-1,0Z"/><path class="cls-2" d="M42.48,24.46c-9.4,5.56-25,5.62-34.67.13l-.19-.11c-9.69-5.59-9.73-14.42-.07-20.17,9.17-5.45,25-5.5,34.58-.1l.15.08c4.59,2.65,7.18,6.16,7.27,9.93S47.14,21.7,42.48,24.46Zm-32-1.19c8.46,4.64,21.67,4.47,29.7-.33,8.2-4.91,7.76-12.54-.26-17.18l-.16-.08c-8.56-4.85-22-4.6-29.95.19s-7.88,12.46.28,17.18l.39.22"/><path class="cls-2" d="M24.81,30.92h-.44l-1.1,0-1.21-.07c-.37,0-.74-.06-1.11-.09s-.79-.08-1.19-.14-.72-.09-1.07-.15-.86-.14-1.28-.22l-1-.2c-.51-.11-1-.24-1.5-.37l-.22,0-.62-.17c-.92-.27-1.8-.57-2.61-.88L10.23,28,10,27.94l-.44-.2c-.64-.3-1.25-.62-1.81-.94C2.79,23.91.05,20,.06,15.66h4c0,2.8,2,5.52,5.73,7.66.47.27,1,.54,1.53.8l.28.12.26.11,1.07.46c.7.27,1.46.53,2.28.77l.5.13.23.06c.44.12.88.23,1.33.33l.89.18,1.14.2,1,.13q.54.07,1.08.12c.33,0,.67.06,1,.09l1.09.06,1,0c.39,0,.78,0,1.18,0l.93,0c.5,0,1-.06,1.47-.1l.28,0,.48,0c.85-.09,1.67-.2,2.45-.34l.49-.1.44-.09c.36-.07.72-.14,1.07-.23.19,0,.38-.1.57-.15l.37-.1,1-.29.36-.12.24-.09c.57-.19,1.13-.4,1.67-.63l.16-.07.44-.18c.79-.36,1.42-.68,2-1l.51-.33.45-.29.55-.37.41-.32.28-.23c.17-.13.33-.26.48-.4l.16-.15.17-.17c.3-.29.57-.59.81-.87l.31-.38c.16-.22.3-.44.43-.65l.08-.13a2.61,2.61,0,0,0,.17-.28c.1-.18.17-.36.25-.54l.08-.17a2.33,2.33,0,0,0,.11-.28,3.31,3.31,0,0,0,.12-.42l0-.09,3.87,1,0,.09c-.07.25-.13.5-.22.76l-.23.56-.06.12c-.13.3-.25.58-.4.86s-.2.34-.3.5l-.07.11c-.19.31-.4.63-.63.94l-.44.54A13.48,13.48,0,0,1,45.79,24l-.11.11-.32.31c-.2.18-.43.37-.66.55l-.26.21-.57.45c-.24.17-.49.33-.74.49l-.4.27L42,26.8c-.67.38-1.41.76-2.33,1.17l-.54.24-.16.06c-.63.27-1.28.51-1.93.73l-.2.07-.5.17c-.36.12-.75.22-1.13.33l-.36.1-.69.18c-.41.1-.82.18-1.23.26l-.4.09-.62.12c-.88.16-1.79.28-2.73.38l-.6.05-.25,0c-.54.05-1.08.09-1.62.11-.34,0-.69,0-1,0Z"/><path class="cls-1" d="M103.12,83.53h-.43l-1.1,0-1.21-.07-1.11-.09c-.4,0-.8-.08-1.19-.14s-.72-.09-1.08-.15-.85-.14-1.27-.22l-1-.2c-.5-.11-1-.24-1.49-.37L93,82.21,92.4,82c-.92-.27-1.8-.57-2.61-.88-.41-.16-.8-.33-1.19-.51l-.26-.11-.42-.19c-.66-.31-1.25-.62-1.82-.94-5-2.89-7.73-6.84-7.72-11.14h4c0,2.8,2,5.52,5.73,7.66.47.27,1,.53,1.53.8l.26.11.28.12c.37.17.71.32,1.07.46.7.27,1.47.53,2.28.77l.51.14.22,0c.44.12.88.23,1.33.33l.89.18,1.14.2,1,.13,1.07.12,1,.09,1.09.06,1,0c.4,0,.79,0,1.19,0l.94,0c.48,0,1-.06,1.45-.1l.28,0,.49,0c.85-.09,1.68-.2,2.45-.34l.52-.1.45-.1,1-.22c.19,0,.38-.1.57-.15l.4-.11,1-.28.34-.11.28-.1c.56-.19,1.12-.4,1.66-.63l.6-.25a20.57,20.57,0,0,0,2-1c.19-.1.35-.22.52-.33l.42-.27.58-.39c.14-.1.27-.21.39-.31l.29-.23c.17-.13.34-.27.49-.41l.16-.15.16-.16a10.73,10.73,0,0,0,.82-.88l.31-.39c.16-.21.3-.43.43-.64l.09-.14.16-.27c.1-.18.18-.37.26-.55l.07-.17c0-.09.08-.18.11-.27a3.79,3.79,0,0,0,.12-.4l.07-.28a2.68,2.68,0,0,0,.07-.27,3.15,3.15,0,0,0,0-.43l0-.35a2.3,2.3,0,0,0,0-.26l4,0a5,5,0,0,1,0,.67l0,.25a7.46,7.46,0,0,1-.1.81c0,.21-.09.4-.14.6l-.07.24c-.06.25-.13.49-.21.73s-.15.38-.23.56l-.06.13a8.39,8.39,0,0,1-.41.86c-.08.17-.19.33-.29.5l-.07.11a9.19,9.19,0,0,1-.64.94c-.13.18-.28.36-.43.54a15,15,0,0,1-1.11,1.2l-.1.1-.32.31c-.22.2-.45.38-.68.57l-.26.21c-.18.15-.37.3-.57.44s-.5.35-.76.51l-.37.25c-.23.15-.47.31-.73.46-.66.38-1.4.76-2.33,1.18l-.64.27c-.67.28-1.32.53-2,.75l-.23.08-.46.16c-.37.12-.74.22-1.11.32l-.38.1c-.24.07-.47.14-.71.19-.39.1-.78.18-1.18.26l-.41.08-.65.13c-.87.16-1.78.28-2.73.38l-.6,0-.25,0c-.54.05-1.08.09-1.62.11l-1,0Z"/><path class="cls-2" d="M102.27,83.62h-.12l-.4,0-.22,0-1.21-.06h-.17l-.37,0-.38,0-.19,0L98,83.29l-.19,0-.37,0-.36-.06-.16,0-1.27-.22-.2,0-.4-.08-.29-.07-.11,0c-.5-.11-1-.24-1.5-.37l-.19,0-.42-.1-.25-.08c-.86-.25-1.72-.54-2.53-.86l-.17-.06-.88-.37-.43-.19-.44-.2c-.66-.31-1.25-.62-1.81-1-5-2.88-7.74-6.83-7.73-11.13l.12-53.79h4l-.12,53.79c0,2.8,2,5.52,5.73,7.66.46.27,1,.53,1.53.8l.27.12.53.23.64.28.17.06c.71.27,1.48.53,2.28.76l.22.08.18,0,.33.08c.44.12.88.23,1.33.33l.25.06.11,0,.23,0,.3,0c.38.07.75.14,1.14.19l.28,0,.18,0,.21,0,.3,0c.35.05.71.09,1.07.12l.29,0,.22,0h.21l.28,0,1.1,0,.3,0h.69c.39,0,.78,0,1.17,0h.69l.25,0c.49,0,1-.06,1.46-.1l.34,0,.25,0,.2,0c.83-.09,1.65-.2,2.43-.34l.17,0L110,79l.45-.1c.36-.07.72-.14,1.08-.23l.58-.16.26-.07c.4-.11.75-.2,1.1-.31l.32-.1.28-.11c.58-.2,1.14-.41,1.67-.63l.11,0c.16-.07.33-.13.49-.21a19.91,19.91,0,0,0,2-1l.24-.14.26-.18.28-.18.15-.1.58-.39c.14-.1.27-.21.39-.31l.3-.24c.16-.13.33-.26.48-.4l.13-.11.19-.21a9.42,9.42,0,0,0,.82-.88l.18-.19.13-.19c.16-.21.3-.43.43-.64l.18-.27a.83.83,0,0,1,.07-.13c.1-.19.18-.38.26-.57l.13-.27v0l0-.12a3.31,3.31,0,0,0,.12-.42l0-.11c0-.09,0-.19.08-.28v0l0-.13c0-.12,0-.25,0-.39V69a2.54,2.54,0,0,1,0-.29V68.5L124,13.62h4l-.12,55.12c0,.18,0,.35,0,.52l0,.2c0,.23,0,.47-.09.7a.91.91,0,0,1,0,.23,3.92,3.92,0,0,1-.13.49l0,.19c-.06.23-.12.45-.2.68,0,.08,0,.16-.07.24s-.13.29-.2.44l0,.07c-.11.27-.23.53-.37.8,0,.1-.09.19-.14.27s-.15.24-.23.36c-.22.35-.43.67-.66,1,0,.07-.12.18-.2.28a3.22,3.22,0,0,1-.26.29c-.31.37-.68.77-1.09,1.17l-.27.29-.19.16-.63.52-.27.21-.57.45-.76.51L121,79l-.47.31-.31.18a24.82,24.82,0,0,1-2.32,1.17l-.6.26-.1,0c-.61.26-1.26.5-1.92.73l-.09,0a2.09,2.09,0,0,1-.35.13l-.22.07-1.24.35-.29.08-.71.19c-.41.1-.82.18-1.23.27l-.36.07-.52.11-.18,0c-.82.14-1.74.27-2.68.37l-.18,0-.46,0h-.22c-.54,0-1.07.09-1.61.11h-.1l-.28,0h-2.33Z"/><path class="cls-2" d="M103.12,69.8h-.43l-1.1,0-1.21-.07-1.11-.09c-.4,0-.8-.08-1.19-.14s-.72-.09-1.08-.15-.85-.14-1.27-.22l-1-.2c-.5-.11-1-.24-1.49-.37l-.21,0-.63-.17c-.91-.27-1.79-.56-2.61-.88l-1.24-.53-.21-.09-.42-.19c-.66-.31-1.25-.62-1.81-.94-5-2.89-7.74-6.84-7.73-11.14h4c0,2.8,2,5.52,5.73,7.66.47.27,1,.53,1.53.8l.26.11.28.12,1.07.46c.71.27,1.47.53,2.27.77l.52.14.22,0c.44.12.88.23,1.33.33l.89.18,1.14.2,1,.13q.54.07,1.08.12l1,.09,1.1.06,1,0h1.19l.94,0c.48,0,1-.06,1.45-.1l.28,0,.49,0c.85-.09,1.68-.2,2.45-.34l.52-.1.45-.1,1-.22.57-.15.27-.08c.4-.1.75-.2,1.09-.31l.36-.12.25-.09c.57-.19,1.13-.4,1.67-.63l.6-.26a18.6,18.6,0,0,0,2-1c.18-.1.35-.21.51-.32l.45-.29c.19-.13.38-.25.55-.38a4.24,4.24,0,0,0,.4-.31l.29-.23c.17-.13.34-.27.49-.41l.16-.15.16-.16a10.92,10.92,0,0,0,.82-.89l.31-.38c.16-.21.3-.43.43-.64l.09-.14c.06-.09.11-.18.16-.27a5.52,5.52,0,0,0,.26-.55l.07-.17c0-.09.08-.18.11-.27s.08-.27.12-.41l.07-.27a2.68,2.68,0,0,0,.07-.27,3.15,3.15,0,0,0,0-.43l0-.35a2.3,2.3,0,0,0,0-.26l4,0a4.91,4.91,0,0,1,0,.67l0,.25a7.46,7.46,0,0,1-.1.81c0,.21-.09.41-.14.61l-.07.23c-.06.24-.13.49-.21.73s-.15.38-.23.56l-.06.13c-.12.28-.25.57-.4.86s-.2.33-.3.5l-.07.11a9.19,9.19,0,0,1-.64.94c-.13.18-.28.36-.42.54-.34.4-.71.8-1.12,1.2l-.1.1-.32.31c-.22.2-.45.38-.68.57l-.26.21c-.19.15-.37.3-.57.44s-.48.33-.73.5l-.41.27c-.23.15-.46.3-.71.44A23.82,23.82,0,0,1,118,66.85l-.64.28c-.68.28-1.33.53-2,.75l-.2.08-.49.16-1.2.34-.29.08c-.24.07-.47.14-.71.19-.39.1-.78.18-1.18.26l-.41.08-.65.13c-.87.15-1.78.28-2.73.38l-.6,0-.25,0c-.54,0-1.08.09-1.62.11l-1,0Z"/><path class="cls-2" d="M103.15,56.07h-.46l-1.1,0L100.38,56c-.37,0-.74-.06-1.11-.09l-1.19-.13L97,55.59c-.42-.06-.85-.14-1.27-.22l-1-.2c-.5-.11-1-.24-1.49-.37l-.21,0-.63-.17c-.91-.27-1.79-.56-2.61-.88l-1.24-.53-.21-.09-.42-.19c-.66-.31-1.25-.62-1.81-.94-5-2.89-7.74-6.84-7.73-11.14h4c0,2.8,2,5.52,5.73,7.66.47.27,1,.53,1.53.8l.26.11.28.12,1.07.46c.71.27,1.47.53,2.27.77l.52.14.22,0c.44.12.88.23,1.33.33l.89.18,1.14.2,1,.13,1.08.12c.33,0,.66.07,1,.09l1.09.06,1,0h1.18c.32,0,.63,0,.94,0,.49,0,1-.06,1.46-.1l.28,0,.49,0c.85-.09,1.68-.2,2.45-.34l.5-.1.51-.1,1-.22.57-.15.27-.08c.4-.1.75-.2,1.09-.31l.36-.12.25-.09c.57-.19,1.13-.4,1.67-.63l.1,0,.5-.21a21.85,21.85,0,0,0,2-1,5.16,5.16,0,0,0,.52-.33l.44-.28c.19-.13.38-.25.55-.38a4.41,4.41,0,0,0,.39-.3l.31-.25c.17-.13.33-.26.48-.4l.16-.15.16-.16a10.92,10.92,0,0,0,.82-.89l.31-.38c.16-.21.3-.43.43-.64l.09-.14c.06-.09.11-.18.16-.27a5.52,5.52,0,0,0,.26-.55l.07-.17.11-.26c.05-.14.08-.27.12-.41l.07-.28a2.68,2.68,0,0,0,.07-.27,3.12,3.12,0,0,0,0-.44l0-.34a2.3,2.3,0,0,0,0-.26l4,0a4.91,4.91,0,0,1,0,.67l0,.25a7.46,7.46,0,0,1-.1.81c0,.21-.09.4-.14.6l-.07.24c-.06.25-.13.49-.21.73s-.15.38-.23.56l-.06.13c-.12.28-.25.57-.4.86s-.2.33-.3.5l-.07.11a9.19,9.19,0,0,1-.64.94c-.13.18-.28.36-.42.54-.34.4-.71.8-1.12,1.2l-.1.1-.33.32-.65.54-.29.24c-.18.15-.37.29-.56.43s-.48.33-.73.5l-.4.26c-.23.15-.47.31-.72.45A25.17,25.17,0,0,1,118,53.13l-.6.26-.1,0c-.61.25-1.26.5-1.92.72l-.2.08-.49.16-1.2.34-.29.08c-.24.07-.47.14-.71.19l-1.14.25-.48.1-.62.12c-.87.15-1.78.28-2.73.38l-.6,0-.25,0c-.54,0-1.08.09-1.62.11-.34,0-.69,0-1,0Z"/><path class="cls-2" d="M103.12,42.34h-.43l-1.1,0-1.21-.07-1.11-.09L98.08,42,97,41.86c-.42-.06-.85-.14-1.27-.22l-1-.2c-.51-.11-1-.24-1.5-.37L93,41l-.62-.17c-.92-.27-1.8-.57-2.61-.88l-1.24-.53-.21-.09-.41-.18c-.67-.32-1.26-.63-1.82-1-5-2.89-7.74-6.84-7.73-11.14h4c0,2.8,2,5.52,5.73,7.66.46.27,1,.53,1.53.8l.26.11.28.12,1.07.46c.7.27,1.46.53,2.28.77l.5.13.23.06c.44.12.88.23,1.33.33l.89.18,1.14.2,1,.13q.54.08,1.08.12c.33,0,.66.06,1,.09l1.09.06,1,0c.4,0,.79,0,1.18,0s.63,0,.94,0c.49,0,1,0,1.46-.1l.3,0,.47,0c.84-.09,1.67-.2,2.45-.34l.49-.1.44-.09c.36-.07.72-.14,1.07-.23.19,0,.38-.1.57-.15l.27-.08c.4-.11.75-.2,1.09-.31l.36-.12.25-.09c.58-.19,1.14-.41,1.67-.63l.13-.06.47-.19a21.85,21.85,0,0,0,2-1,5.16,5.16,0,0,0,.52-.33l.44-.29c.19-.12.38-.24.56-.37l.38-.3.32-.26c.16-.13.32-.25.47-.39l.16-.15.16-.16a10.92,10.92,0,0,0,.82-.89l.31-.38c.16-.21.3-.43.43-.64l.09-.15.16-.26a5.52,5.52,0,0,0,.26-.55l.07-.17.11-.26c.05-.14.08-.27.12-.41l.07-.28a2.68,2.68,0,0,0,.07-.27,3.12,3.12,0,0,0,0-.44l0-.34a2.3,2.3,0,0,0,0-.26l4,0a4.91,4.91,0,0,1,0,.67l0,.25a7.46,7.46,0,0,1-.1.81c0,.2-.09.4-.14.6l-.07.24c-.06.25-.13.49-.21.73s-.15.38-.23.56l-.06.13c-.12.28-.25.57-.4.86l-.29.49-.08.12a11.15,11.15,0,0,1-.64.94c-.13.18-.28.36-.42.54-.34.4-.71.8-1.12,1.2l-.1.1-.33.32c-.2.18-.42.36-.65.54l-.3.24c-.18.15-.35.29-.55.43s-.48.33-.73.49l-.4.27c-.23.15-.47.31-.72.45A25.17,25.17,0,0,1,118,39.4l-.56.24-.13,0c-.62.26-1.26.51-1.93.73l-.2.08-.49.16-1.2.34-.29.08c-.24.07-.47.14-.71.19-.4.1-.81.18-1.21.27l-.41.08c-.21,0-.41.09-.62.12-.88.16-1.8.28-2.73.38l-.59.05-.26,0c-.54.05-1.08.09-1.62.11-.34,0-.69,0-1,0Z"/><path class="cls-5" d="M104.6,16.05c1.08.62,1.1,1.62,0,2.25a4.29,4.29,0,0,1-3.93,0l-3.94-2.21,3.86-2.3L104.57,16Z"/><path class="cls-4" d="M118.18,5.57,118,5.48c-8.57-4.84-22-4.59-29.95.19s-7.89,12.47.27,17.18l.39.22c8.46,4.65,21.68,4.48,29.71-.32C126.65,17.84,126.21,10.2,118.18,5.57Z"/><path class="cls-2" d="M120.76,24.26c-9.41,5.57-25,5.62-34.68.13l-.19-.11c-9.68-5.59-9.72-14.41-.06-20.16,9.16-5.45,25-5.5,34.57-.11l.15.09c4.59,2.65,7.18,6.16,7.28,9.93S125.41,21.51,120.76,24.26Zm-32-1.19c8.46,4.65,21.68,4.48,29.71-.32,8.2-4.91,7.76-12.55-.27-17.18L118,5.48c-8.57-4.84-22-4.59-29.95.19s-7.89,12.47.27,17.18l.39.22"/><path class="cls-2" d="M103.12,30.93h-.43l-1.1,0-1.21-.07-1.11-.09c-.4,0-.8-.08-1.19-.14s-.72-.09-1.08-.15-.85-.14-1.27-.22l-1-.2c-.5-.11-1-.24-1.49-.37L93,29.61l-.63-.17c-.92-.27-1.8-.57-2.61-.88L88.55,28l-.21-.09-.42-.19c-.66-.31-1.25-.62-1.82-.94-5-2.89-7.73-6.84-7.72-11.14h4c0,2.8,2,5.52,5.73,7.66.47.27,1,.53,1.53.8l.26.11.28.12,1.07.46c.7.27,1.47.53,2.28.77l.51.14.22.05c.44.12.88.23,1.33.33l.89.18,1.14.2,1,.13q.54.07,1.08.12c.33,0,.66.06,1,.09l1.09.06,1,0h1.19l.94,0c.48,0,1-.06,1.45-.1l.28,0,.49,0c.85-.09,1.68-.2,2.45-.34l.52-.1.45-.1,1-.22c.19,0,.38-.1.57-.15l.27-.08c.4-.11.75-.2,1.09-.31l.36-.12.25-.09c.57-.19,1.13-.4,1.67-.63l.6-.26a18.6,18.6,0,0,0,2-1c.19-.1.35-.22.52-.33l.43-.28c.19-.12.39-.25.56-.38a4.64,4.64,0,0,0,.4-.31l.29-.23c.17-.13.34-.27.49-.41l.16-.15.16-.16a9.37,9.37,0,0,0,.82-.89l.31-.38c.16-.21.3-.43.43-.64L123,19c.06-.09.11-.18.16-.27a5.52,5.52,0,0,0,.26-.55l.07-.17c0-.09.08-.18.11-.27s.08-.26.12-.4l.07-.28a2.68,2.68,0,0,0,.07-.27l3.94.73c0,.2-.09.4-.14.6l-.07.23c-.06.25-.13.49-.21.73s-.15.38-.23.56l-.06.13c-.12.28-.25.57-.4.86s-.2.33-.3.5l-.07.11a9.19,9.19,0,0,1-.64.94c-.13.18-.28.36-.42.54a15.36,15.36,0,0,1-1.12,1.2l-.1.1-.32.31c-.22.2-.45.38-.68.57l-.26.21c-.18.15-.37.29-.57.44s-.49.34-.75.51l-.38.25c-.23.15-.47.31-.73.46A24.82,24.82,0,0,1,118,28l-.64.28c-.68.28-1.33.53-2,.75l-.2.08-.49.16-1.2.34-.29.08c-.24.07-.47.14-.71.19-.39.1-.78.18-1.18.26l-.41.08-.65.13c-.87.15-1.78.28-2.73.38l-.6.05-.25,0c-.54,0-1.08.09-1.62.11l-1,0Z"/><rect class="cls-2" x="54.89" y="47.57" width="19.53" height="4"/><rect class="cls-2" x="54.89" y="54.85" width="19.53" height="4"/><path class="cls-5" d="M32.7,23.42a.46.46,0,0,0,.27.07,26.81,26.81,0,0,1-3.77.81L29,24.16,25.75,22.3l-1.61-.93c-.17-.09-.15-.14,0-.23l6.15-3.56c.05,0,.15-.06.16-.16l-.3,0H20a.6.6,0,0,1-.23,0c-.05,0-.06-.08-.06-.15,0-2,0-3.92,0-5.88,0-.05,0-.1,0-.19l-.19.11-6.19,3.6a.31.31,0,0,1-.38,0l-1.17-.69-1.19-.68L7.92,12A8,8,0,0,1,9.3,9.8s0,.09.13.15l1.38.79,1.93,1.13a.38.38,0,0,0,.47,0C16.51,9.94,19.83,8,23.15,6.1A.58.58,0,0,1,23.4,6v.18c0,3,0,6,0,9a.16.16,0,0,0,.06.14.57.57,0,0,0,.26,0H39.23l.29,0,0,.06-.22.13c-3.31,1.93-6.64,3.85-10,5.77-.15.09-.18.14,0,.23l1,.58Z"/><path class="cls-5" d="M116.31,8.51l-1.21-.68a.79.79,0,0,0-.72,0l-3.39,2-1.94-1.09,3.39-2a.22.22,0,0,0,0-.41l-1.22-.68a.77.77,0,0,0-.71,0l-3.39,2-4-2.24a.79.79,0,0,0-.72,0l-1.18.7c-.18.11-.2.28,0,.4,1.25.83,1.09,1.77,0,2.42l-7.26,4.34a3.72,3.72,0,0,1-3.52.18.83.83,0,0,0-.6,0l-1.43.59c-.25.1-.28.31,0,.44l3.8,2.13-3.4,2c-.18.11-.18.29,0,.41l1.22.68a.77.77,0,0,0,.71,0l3.39-2L96,18.82l-3.39,2c-.19.12-.19.3,0,.41l1.21.69a.79.79,0,0,0,.72,0l3.39-2,1.63.92a9.34,9.34,0,0,0,8.51-.25c1.49-.89,2.08-2.08,1.75-3.17a8.92,8.92,0,0,0,3.54-1.11c2.4-1.44,2.51-3.64.21-5l-.67-.38,3.39-2C116.51,8.81,116.51,8.63,116.31,8.51ZM104.64,18.3a4.29,4.29,0,0,1-3.93,0l-3.94-2.21,3.86-2.3L104.57,16l0,0C105.68,16.67,105.7,17.67,104.64,18.3Zm4.64-3.9a4.35,4.35,0,0,1-3.93,0l-3-1.67,3.86-2.31,3,1.66,0,0C110.32,12.76,110.34,13.77,109.28,14.4Z"/></g></g></svg>