<svg xmlns="http://www.w3.org/2000/svg" viewBox="0 0 43.93 42"><defs><style>.cls-1{fill:#fff;}</style></defs><title>github-icon</title><g id="Слой_2" data-name="Слой 2"><g id="content"><path class="cls-1" d="M22,0A21.75,21.75,0,0,0,0,21.52,21.56,21.56,0,0,0,15,42c1.1.2,1.49-.46,1.49-1V37.27c-6.11,1.3-7.4-2.88-7.4-2.88a5.78,5.78,0,0,0-2.44-3.16c-2-1.32.16-1.3.16-1.3a4.62,4.62,0,0,1,3.35,2.22,4.73,4.73,0,0,0,6.39,1.78A4.74,4.74,0,0,1,18,31.05C13.1,30.51,8,28.68,8,20.42a8.28,8.28,0,0,1,2.21-5.81,7.64,7.64,0,0,1,.22-5.68c.81-1.79,1.86-.58,6,2.2a21.33,21.33,0,0,1,11,0c4.19-2.78,6-2.2,6-2.2a7.55,7.55,0,0,1,.22,5.68,8.25,8.25,0,0,1,2.33,5.77c0,8.28-5.15,10.09-10,10.63a5,5,0,0,1,1.5,4V40.9c0,.7.4,1.26,1.5,1a21.58,21.58,0,0,0,15-20.42A21.75,21.75,0,0,0,22,0"/></g></g></svg>