<svg xmlns="http://www.w3.org/2000/svg" viewBox="0 0 215.34 132.25"><defs><style>.cls-1{fill:#13bec8;}.cls-2{fill:#052a9f;}.cls-3{fill:#fff;}</style></defs><title>instant</title><g id="Слой_2" data-name="Слой 2"><g id="content"><polygon class="cls-1" points="155.94 18.65 96.89 18.65 96.89 5.73 58.38 30.06 96.89 55.14 96.89 41.46 155.94 41.46 155.94 18.65"/><path class="cls-2" d="M100.05,61,52.53,30,100.05,0V15.5H159.1V44.62h-59ZM64.22,30.1,93.74,49.32v-11h59V21.81h-59V11.46Z"/><rect class="cls-2" x="165.57" y="16.51" width="7.6" height="6.31"/><rect class="cls-2" x="165.57" y="27.28" width="21.03" height="6.31"/><rect class="cls-2" x="165.57" y="37.29" width="29.65" height="6.31"/><polygon class="cls-1" points="59.9 89.93 118.95 89.93 118.95 77.01 157.47 101.34 118.95 126.42 118.95 112.74 59.9 112.74 59.9 89.93"/><path class="cls-2" d="M115.79,132.25V115.9h-59V86.78h59V71.28l47.52,30ZM63.06,109.58h59v11l29.52-19.22L122.1,82.74V93.09h-59Z"/><rect class="cls-2" x="42.67" y="87.79" width="7.6" height="6.31"/><rect class="cls-2" x="29.24" y="98.56" width="21.03" height="6.31"/><rect class="cls-2" x="20.62" y="108.57" width="29.65" height="6.31"/><path class="cls-2" d="M21.84,6.1C8.57,7.56-1.3,19.68.14,32.74A24.47,24.47,0,1,0,21.84,6.1Z"/><circle class="cls-1" cx="24.51" cy="30.43" r="20.39"/><polygon class="cls-3" points="15.58 32.35 23.91 26.8 22.62 15.36 15.58 32.35"/><polygon class="cls-3" points="15.64 32.91 23.98 27.35 25.05 36.92 15.64 32.91"/><polygon class="cls-3" points="15.79 34.26 25.21 38.33 26.03 45.55 15.79 34.26"/><polygon class="cls-3" points="33.64 30.31 24.28 26.76 22.98 15.32 33.64 30.31"/><polygon class="cls-3" points="33.7 30.88 24.34 27.31 25.42 36.88 33.7 30.88"/><polygon class="cls-3" points="33.86 32.22 25.58 38.29 26.39 45.51 33.86 32.22"/><path class="cls-2" d="M188.18,77.38C174.91,78.84,165.05,91,166.48,104a24.48,24.48,0,1,0,21.7-26.64Z"/><circle class="cls-1" cx="190.85" cy="101.71" r="20.39"/><polygon class="cls-3" points="195.76 87.31 180.54 106.49 187.48 106.49 182.34 116.12 195.76 103.25 189.1 102.89 201.16 92.08 195.76 87.31"/></g></g></svg>