<?xml version="1.0" encoding="utf-8"?>
<!-- Generator: Adobe Illustrator 24.0.2, SVG Export Plug-In . SVG Version: 6.00 Build 0)  -->
<svg version="1.1" id="Layer_2" xmlns="http://www.w3.org/2000/svg" xmlns:xlink="http://www.w3.org/1999/xlink" x="0px" y="0px"
	 viewBox="0 0 22.9 24" style="enable-background:new 0 0 22.9 24;" xml:space="preserve">
<style type="text/css">
	.st0{fill:#062896;}
</style>
<g>
	<path class="st0" d="M11.4,2.2c-5.5,0-9.9,4.5-9.9,9.9s4.5,9.9,9.9,9.9s9.9-4.5,9.9-9.9S16.9,2.2,11.4,2.2z M11.4,20.3
		c-4.5,0-8.1-3.6-8.1-8.1S7,4,11.4,4s8.1,3.6,8.1,8.1S15.9,20.3,11.4,20.3z"/>
	<path class="st0" d="M11.4,6.4c-0.7,0-1.2,0.5-1.2,1.2c0,0.7,0.5,1.2,1.2,1.2c0.7,0,1.2-0.5,1.2-1.2C12.7,7,12.1,6.4,11.4,6.4z"/>
	<path class="st0" d="M11.4,10.6c-0.5,0-0.9,0.4-0.9,0.9V17c0,0.5,0.4,0.9,0.9,0.9s0.9-0.4,0.9-0.9v-5.4
		C12.4,11,11.9,10.6,11.4,10.6z"/>
</g>
</svg>
