<svg xmlns="http://www.w3.org/2000/svg" viewBox="0 0 17.27 24"><defs><style>.cls-1{fill:#0f2b97;}.cls-2{fill:#0f2a97;}</style></defs><title>map-point_1</title><g id="Слой_2" data-name="Слой 2"><g id="content"><path class="cls-1" d="M8.65,24l-.78-.94C4.06,18.4,0,13.06,0,8.63a8.64,8.64,0,0,1,17.27,0c0,4.49-4,9.57-7.58,14.06ZM8.57,2A6.66,6.66,0,0,0,2,8.63c0,3.51,3.31,8.08,6.66,12.24C11.72,17,15.3,12.24,15.3,8.63A6.7,6.7,0,0,0,8.57,2Z"/><path class="cls-2" d="M5.69,8.63a2.87,2.87,0,0,0,.85,2,3,3,0,0,0,2,.85,2.91,2.91,0,0,0,2-.85,3,3,0,0,0,.85-2,2.87,2.87,0,0,0-.85-2,3,3,0,0,0-2-.85,2.83,2.83,0,0,0-2,.85,2.87,2.87,0,0,0-.85,2Z"/></g></g></svg>