<svg xmlns="http://www.w3.org/2000/svg" viewBox="0 0 100 76.7"><style type="text/css">  
	.st0{fill:#FFFFFF;}
</style><path class="st0" d="M91.4 14H26.3c-2.7 0-4.8-2.2-4.8-4.8s2.2-4.8 4.8-4.8h65.1c2.7 0 4.8 2.2 4.8 4.8S94.1 14 91.4 14z"/><path class="st0" d="M91.4 41.8H26.3c-2.7 0-4.8-2.2-4.8-4.8 0-2.7 2.2-4.8 4.8-4.8h65.1c2.7 0 4.8 2.2 4.8 4.8C96.3 39.7 94.1 41.8 91.4 41.8z"/><path class="st0" d="M91.4 69.6H26.3c-2.7 0-4.8-2.2-4.8-4.8 0-2.7 2.2-4.8 4.8-4.8h65.1c2.7 0 4.8 2.2 4.8 4.8C96.3 67.5 94.1 69.6 91.4 69.6z"/><circle class="st0" cx="9.1" cy="9.2" r="4.8"/><circle class="st0" cx="8.6" cy="36.9" r="4.8"/><circle class="st0" cx="8.6" cy="64.6" r="4.8"/></svg>