<svg xmlns="http://www.w3.org/2000/svg" viewBox="0 0 114.76 128"><defs><style>.cls-1{fill:#052a9f;}.cls-2{fill:#13bec8;}.cls-3{fill:#fff;}</style></defs><title>middle</title><g id="Слой_2" data-name="Слой 2"><g id="content"><path class="cls-1" d="M19.94,37.08A18.3,18.3,0,1,0,36.48,57.14,18.33,18.33,0,0,0,19.94,37.08Z"/><path class="cls-2" d="M19.7,40.12A15.25,15.25,0,1,0,33.46,56.66,15.24,15.24,0,0,0,19.7,40.12Z"/><path class="cls-3" d="M24.47,55.4a4.76,4.76,0,0,0,1.11-2.69,4.38,4.38,0,0,0-3.78-4.9l-.66-.06.31-3.51a.38.38,0,0,0-.33-.4l-1.22-.11a.37.37,0,0,0-.39.34l-.31,3.51-1.94-.17.31-3.51a.37.37,0,0,0-.33-.4L16,43.39a.37.37,0,0,0-.39.34l-.31,3.51-4-.35a.36.36,0,0,0-.39.33l-.11,1.22a.36.36,0,0,0,.29.39A2.13,2.13,0,0,1,13,51.18l-.66,7.51a1.76,1.76,0,0,1-1.83,1.78.35.35,0,0,0-.35.26l-.34,1.21a.36.36,0,0,0,.31.46l3.81.33-.31,3.51a.37.37,0,0,0,.33.4l1.21.11a.37.37,0,0,0,.39-.34l.31-3.51,1.94.17-.31,3.51a.37.37,0,0,0,.33.4l1.21.11a.38.38,0,0,0,.4-.34l.31-3.51,1.63.15A4.35,4.35,0,0,0,26,59.28,4.58,4.58,0,0,0,24.47,55.4ZM17,50.31l3,.26a2,2,0,1,1-.35,4l-3-.26Zm3.07,10.15-3.93-.34.35-4,3.93.35a2,2,0,0,1-.35,4Z"/><path class="cls-1" d="M98.13,55.83A18.31,18.31,0,1,0,114.67,75.9,18.35,18.35,0,0,0,98.13,55.83Z"/><path class="cls-2" d="M97.9,58.88a15.25,15.25,0,1,0,13.76,16.53A15.22,15.22,0,0,0,97.9,58.88Z"/><path class="cls-3" d="M104.82,76c-.42,0-.83.09-1.23.15a.62.62,0,0,1-.7-.39c-.14-.31,0-.51.29-.65.92-.54,1.85-1.08,2.78-1.6a1.5,1.5,0,0,1,.51-.15c.42-.08.7,0,.75.47a5,5,0,0,1,0,1.5A10.87,10.87,0,0,1,100.2,84a11.31,11.31,0,0,1-12.75-3.25,16.07,16.07,0,0,1-1.15-1.56c-.25-.37-.44-.79-.65-1.18a1.86,1.86,0,0,1,2.31.1,8.82,8.82,0,0,1,.92,1,9.34,9.34,0,0,0,5.68,3.4,8.81,8.81,0,0,0,8.16-2.77,8.59,8.59,0,0,0,2.06-3.46,1,1,0,0,0,0-.18S104.82,76,104.82,76Z"/><path class="cls-3" d="M94.59,72.9c-1.39-.47-1.87-1.7-2.5-2.79l-.1,0a3.47,3.47,0,0,1,0,.56,11.77,11.77,0,0,1-.31,1.9c-.29.89-1,1-1.61.31a12.07,12.07,0,0,1-1-1.45,1.16,1.16,0,0,0-.18-.22c-.07,1.58-.09,3.15-1.33,4.36-1.34-1.44-1.39-7.64.63-9l2,3.33.11,0c0-.44,0-.87.08-1.3A9.26,9.26,0,0,1,90.74,67c.27-.77.86-.85,1.36-.2a12.29,12.29,0,0,1,2.08,3.72,17.7,17.7,0,0,1,.41,1.92A3.66,3.66,0,0,1,94.59,72.9Z"/><path class="cls-3" d="M101.81,72.43l-2-3.45h-.1c0,1.4,0,2.78-1.13,3.89-1.59-2-3.11-3.95-3.17-6.66A1.78,1.78,0,0,1,96.8,67c.35.49.63,1,.94,1.55a.72.72,0,0,0,.24.26c0-.39,0-.79.12-1.18a7.91,7.91,0,0,1,.32-1.36c.27-.73.86-.88,1.42-.32a10.46,10.46,0,0,1,1,1.22c.09.13.17.27.29.47.22-1.53,0-3.14,1.55-4.25a12,12,0,0,1,.46,1.46A13,13,0,0,1,103,70a7,7,0,0,1-.42,1.49A5.08,5.08,0,0,1,101.81,72.43Z"/><path class="cls-1" d="M56.62,128a48.15,48.15,0,0,1-33.48-13.53l-12.26,8.85V73.73l46.54,19-12.19,7.67a31.55,31.55,0,0,0,47.88-3.57l1.55-2.12,5.72,3.89-1,2.09A47.48,47.48,0,0,1,58.08,128ZM23.79,107.31l1.63,1.74a42.62,42.62,0,0,0,32.48,13.5A42,42,0,0,0,86.35,110,36.89,36.89,0,0,1,39,101.49L37,99.11l8.56-5.38L16.3,81.8v30.91Z"/><path class="cls-2" d="M23.75,107.78l1.43,1.51a42.89,42.89,0,0,0,32.7,13.63,42.39,42.39,0,0,0,30.41-14.48,36.66,36.66,0,0,1-49.06-7.16l-1.69-2.07,8.8-5.59L16,81.29v32.1Z"/><path class="cls-1" d="M99.65,54.27l-46.54-19L65.3,27.64a31.55,31.55,0,0,0-47.88,3.57l-1.55,2.12-5.72-3.88,1-2.1A47.46,47.46,0,0,1,52.45,0,48.23,48.23,0,0,1,87.39,13.53L99.65,4.69ZM65,34.28,94.22,46.2V15.29l-7.48,5.4L85.1,19A42.6,42.6,0,0,0,52.63,5.45,42.08,42.08,0,0,0,24.17,18a36.9,36.9,0,0,1,47.4,8.54l1.93,2.38Z"/><path class="cls-2" d="M86.78,20.22l-1.43-1.51A42.92,42.92,0,0,0,52.65,5.08,42.41,42.41,0,0,0,22.23,19.56,36.67,36.67,0,0,1,71.3,26.72L73,28.79l-8.8,5.59L94.57,46.71V14.61Z"/></g></g></svg>