<svg xmlns="http://www.w3.org/2000/svg" viewBox="0 0 160 157.69"><defs><style>.cls-1{fill:#052a9f;}.cls-2{fill:#13bec8;}.cls-3{fill:#fff;}</style></defs><title>native</title><g id="Слой_2" data-name="Слой 2"><g id="content"><path class="cls-1" d="M42,147.72c-9.75,0-18-2.92-23.79-8.72-9-9-11.17-23.65-6-41.19,5-16.9,16.14-34.67,31.51-50A144.82,144.82,0,0,1,61.65,32.49l3.52,4.91A139.21,139.21,0,0,0,48,52C33.31,66.71,22.66,83.57,18,99.51c-4.48,15.32-2.88,27.83,4.51,35.22,9.07,9.07,26.14,9.31,45.66.65l2.45,5.52C60.34,145.45,50.6,147.72,42,147.72Z"/><path class="cls-1" d="M91.34,128.92,87.83,124a139,139,0,0,0,17.35-14.75c14.67-14.66,25.32-31.52,30-47.47,4.49-15.32,2.88-27.82-4.51-35.22-9.1-9.1-26.25-9.31-45.86-.56l-2.46-5.52c22-9.81,41.65-9.14,52.59,1.81,9,9,11.17,23.65,6,41.19-5,16.9-16.15,34.67-31.52,50A143.4,143.4,0,0,1,91.34,128.92Z"/><path class="cls-1" d="M111.25,147.77A62.7,62.7,0,0,1,93.74,145c-16.9-5-34.67-16.15-50-31.52a144.32,144.32,0,0,1-15.29-18l4.92-3.52A138.48,138.48,0,0,0,48,109.25c14.67,14.67,31.52,25.32,47.47,30,15.32,4.49,27.83,2.89,35.22-4.51,9.1-9.1,9.31-26.22.58-45.82l5.52-2.46c9.79,22,9.11,41.62-1.83,52.55C129.12,144.81,121,147.77,111.25,147.77Z"/><path class="cls-1" d="M16.42,74.9c-9.82-22-9.15-41.66,1.8-52.61,9-9,23.66-11.17,41.19-6,16.9,4.95,34.67,16.14,50,31.51a144.73,144.73,0,0,1,15.24,17.88l-4.91,3.53A138.34,138.34,0,0,0,105.18,52c-14.66-14.66-31.52-25.31-47.47-30-15.32-4.48-27.82-2.88-35.22,4.51-9.11,9.11-9.31,26.26-.55,45.87Z"/><path class="cls-1" d="M26.16.1c-13-1.18-24.89,8.55-26,21.39A24,24,0,1,0,26.16.1Z"/><path class="cls-2" d="M25.85,4.1A20,20,0,1,0,43.91,25.79,20,20,0,0,0,25.85,4.1Z"/><path class="cls-3" d="M32.12,24.15a6.3,6.3,0,0,0,1.45-3.53,5.75,5.75,0,0,0-5-6.44l-.87-.08.41-4.61A.49.49,0,0,0,27.71,9l-1.59-.14a.49.49,0,0,0-.52.44l-.4,4.61-2.54-.23.4-4.6a.47.47,0,0,0-.43-.52L21,8.39a.47.47,0,0,0-.52.43l-.4,4.61L14.87,13a.49.49,0,0,0-.52.43L14.21,15a.5.5,0,0,0,.39.52,2.79,2.79,0,0,1,2.5,3.08l-.87,9.85a2.3,2.3,0,0,1-2.4,2.33.49.49,0,0,0-.46.35l-.45,1.59a.47.47,0,0,0,.41.6l5,.44-.41,4.6a.48.48,0,0,0,.44.52L20,39a.46.46,0,0,0,.51-.43L20.87,34l2.54.22L23,38.82a.47.47,0,0,0,.43.52l1.59.14a.49.49,0,0,0,.52-.44l.4-4.6,2.15.19a5.71,5.71,0,0,0,6-5.4A6,6,0,0,0,32.12,24.15Zm-9.8-6.68,3.89.34a2.63,2.63,0,1,1-.46,5.24l-3.89-.34Zm4,13.32-5.16-.45.46-5.25,5.16.46a2.63,2.63,0,1,1-.46,5.24Z"/><path class="cls-1" d="M133.4,109.87c-13,1.44-22.65,13.3-21.25,26.1a24,24,0,1,0,21.25-26.1Z"/><circle class="cls-2" cx="136.02" cy="133.7" r="19.97"/><polygon class="cls-3" points="127.27 135.58 135.44 130.15 134.17 118.94 127.27 135.58"/><polygon class="cls-3" points="127.33 136.13 135.5 130.68 136.55 140.06 127.33 136.13"/><polygon class="cls-3" points="127.48 137.45 136.71 141.43 137.51 148.51 127.48 137.45"/><polygon class="cls-3" points="144.96 133.59 135.79 130.11 134.53 118.9 144.96 133.59"/><polygon class="cls-3" points="145.02 134.14 135.85 130.64 136.91 140.01 145.02 134.14"/><polygon class="cls-3" points="145.17 135.45 137.06 141.39 137.86 148.47 145.17 135.45"/></g></g></svg>