<svg xmlns="http://www.w3.org/2000/svg" viewBox="0 0 124.05 160"><defs><style>.cls-1{fill:#052a9f;}.cls-2{fill:#13bec8;}</style></defs><title>note</title><g id="Слой_2" data-name="Слой 2"><g id="content"><rect class="cls-1" x="26.82" y="45.55" width="70.41" height="6.9"/><rect class="cls-1" x="26.82" y="61.39" width="70.41" height="6.9"/><rect class="cls-1" x="26.82" y="77.23" width="53.7" height="6.9"/><polyline class="cls-2" points="6.21 34.91 37.91 34.91 37.91 3.22"/><polygon class="cls-1" points="41.36 38.36 16.78 38.36 16.78 31.46 34.46 31.46 34.46 13.79 41.36 13.79 41.36 38.36"/><path class="cls-1" d="M110.74,160H13.31A13.32,13.32,0,0,1,0,146.69V32.59L32.59,0h78.15a13.32,13.32,0,0,1,13.31,13.31V146.69A13.32,13.32,0,0,1,110.74,160ZM6.9,35.45V146.69a6.42,6.42,0,0,0,6.41,6.41h97.43a6.42,6.42,0,0,0,6.41-6.41V13.31a6.42,6.42,0,0,0-6.41-6.41H35.45Z"/></g></g></svg>