<svg xmlns="http://www.w3.org/2000/svg" viewBox="0 0 24 15.99"><defs><style>.cls-1{fill:#0f2b97;}</style></defs><title>peoples</title><g id="Слой_2" data-name="Слой 2"><g id="content"><path class="cls-1" d="M22.9,16a6.56,6.56,0,0,0-6.53-6.44V8.45A7.66,7.66,0,0,1,24,16Z"/><path class="cls-1" d="M16.37,9.25V8.15a3.53,3.53,0,1,0,0-7V0a4.63,4.63,0,1,1,0,9.25Z"/><path class="cls-1" d="M1.1,16,0,16A7.66,7.66,0,0,1,7.63,8.45v1.1A6.56,6.56,0,0,0,1.1,16Z"/><path class="cls-1" d="M7.63,9.25A4.63,4.63,0,1,1,7.63,0V1.1a3.53,3.53,0,1,0,0,7.05Z"/><path class="cls-1" d="M12.07,9.25A4.63,4.63,0,1,1,16.7,4.63,4.62,4.62,0,0,1,12.07,9.25Zm0-8.15A3.53,3.53,0,1,0,15.6,4.63,3.53,3.53,0,0,0,12.07,1.1Z"/><path class="cls-1" d="M18.6,16a6.53,6.53,0,0,0-13,0l-1.1,0A7.63,7.63,0,0,1,19.7,16Z"/></g></g></svg>