<svg xmlns="http://www.w3.org/2000/svg" viewBox="0 0 160 144.95"><defs><style>.cls-1{fill:#052a9f;}.cls-2{fill:#13bec8;}.cls-3{fill:#fff;}</style></defs><title>preserving</title><g id="Слой_2" data-name="Слой 2"><g id="content"><path class="cls-1" d="M24.15,48.68l-5.26-1.34a64.26,64.26,0,0,1,2.22-7,62.92,62.92,0,0,1,116.16-3.17l-5,2.23A57.49,57.49,0,0,0,24.15,48.68Z"/><polygon class="cls-1" points="137.91 40.84 103.09 40.84 103.09 35.41 132.47 35.41 132.47 6.03 137.91 6.03 137.91 40.84"/><path class="cls-1" d="M79,145a63,63,0,0,1-57.43-37.2l5-2.22a57.5,57.5,0,0,0,106.14-2.89,59.61,59.61,0,0,0,2-6.37L140,97.61A62.92,62.92,0,0,1,79,145Z"/><polygon class="cls-1" points="26.36 138.92 20.93 138.92 20.93 104.1 55.75 104.1 55.75 109.53 26.36 109.53 26.36 138.92"/><path class="cls-1" d="M28,49.2C14,47.94,1.36,58.34.11,72.08c-1.31,14.51,8.9,27,23.18,28.29A25.69,25.69,0,1,0,28,49.2Z"/><path class="cls-2" d="M27.66,53.47A21.4,21.4,0,1,0,47,76.69,21.39,21.39,0,0,0,27.66,53.47Z"/><path class="cls-3" d="M34.35,74.92a6.68,6.68,0,0,0,1.56-3.77,6.15,6.15,0,0,0-5.3-6.89l-.94-.08.44-4.93a.53.53,0,0,0-.47-.56l-1.7-.15a.51.51,0,0,0-.55.47L27,63.94l-2.71-.24.43-4.93a.51.51,0,0,0-.47-.55l-1.7-.15a.51.51,0,0,0-.55.46l-.43,4.93L15.91,63a.51.51,0,0,0-.56.46l-.15,1.72a.52.52,0,0,0,.42.55A3,3,0,0,1,18.29,69l-.93,10.54A2.46,2.46,0,0,1,14.79,82a.52.52,0,0,0-.49.37l-.48,1.71a.51.51,0,0,0,.44.64l5.34.46-.43,4.93a.53.53,0,0,0,.47.56l1.7.15a.51.51,0,0,0,.55-.47l.43-4.93,2.72.24-.43,4.93a.5.5,0,0,0,.46.55l1.7.15a.51.51,0,0,0,.56-.46l.43-4.93,2.29.2a6.11,6.11,0,0,0,6.42-5.77A6.44,6.44,0,0,0,34.35,74.92ZM23.88,67.78l4.16.36a2.82,2.82,0,0,1-.49,5.61l-4.17-.36ZM28.19,82l-5.52-.49.49-5.61,5.52.49A2.82,2.82,0,0,1,28.19,82Z"/><path class="cls-1" d="M136.66,47c-14-1.25-26.63,9.15-27.87,22.89-1.32,14.51,8.89,27,23.18,28.29A25.7,25.7,0,1,0,136.66,47Z"/><path class="cls-2" d="M136.34,51.31a21.4,21.4,0,1,0,19.31,23.21A21.38,21.38,0,0,0,136.34,51.31Z"/><path class="cls-3" d="M146.05,75.3c-.59.07-1.16.13-1.72.21a.87.87,0,0,1-1-.55c-.2-.44,0-.7.4-.91,1.31-.75,2.6-1.51,3.91-2.24a2.51,2.51,0,0,1,.72-.22c.59-.11,1,.08,1.06.67a6.73,6.73,0,0,1,0,2.1,15.28,15.28,0,0,1-9.91,12.17A15.92,15.92,0,0,1,121.66,82a26.2,26.2,0,0,1-1.61-2.19c-.35-.53-.61-1.11-.91-1.66a2.61,2.61,0,0,1,3.25.14,13.45,13.45,0,0,1,1.28,1.43,13.15,13.15,0,0,0,8,4.76,12.34,12.34,0,0,0,11.46-3.89A12.08,12.08,0,0,0,146,75.7a2.33,2.33,0,0,0,.07-.25S146.06,75.38,146.05,75.3Z"/><path class="cls-3" d="M131.69,71c-1.95-.65-2.63-2.38-3.51-3.91l-.13,0c0,.26,0,.53,0,.79a16.78,16.78,0,0,1-.44,2.66c-.41,1.25-1.41,1.43-2.26.44A16.69,16.69,0,0,1,124,69a1.62,1.62,0,0,0-.24-.31c-.1,2.21-.13,4.42-1.87,6.13-1.88-2-1.95-10.73.88-12.59l2.76,4.69.14,0c0-.61,0-1.22.12-1.82a13.25,13.25,0,0,1,.5-2.33c.39-1.08,1.21-1.2,1.92-.28a17.21,17.21,0,0,1,2.92,5.22,24.42,24.42,0,0,1,.57,2.7A4.66,4.66,0,0,1,131.69,71Z"/><path class="cls-3" d="M141.83,70.33,139,65.49l-.14,0c0,2,0,3.89-1.6,5.45-2.22-2.8-4.36-5.54-4.44-9.34a2.46,2.46,0,0,1,2,1.09c.5.69.89,1.45,1.33,2.18a.8.8,0,0,0,.33.36c.05-.55.07-1.11.16-1.65a10.23,10.23,0,0,1,.46-1.91,1.1,1.1,0,0,1,2-.46A14.87,14.87,0,0,1,140.39,63a7.31,7.31,0,0,1,.41.66c.31-2.14.07-4.41,2.18-6,.24.76.51,1.39.65,2a18.39,18.39,0,0,1-.17,7.24,9.84,9.84,0,0,1-.6,2.09A6.59,6.59,0,0,1,141.83,70.33Z"/><circle class="cls-1" cx="79.11" cy="69.44" r="22.92"/><path class="cls-3" d="M74.59,66.68V62.6A4.57,4.57,0,0,1,79.14,58h0A4.57,4.57,0,0,1,83.7,62.6v4.08a4.46,4.46,0,0,1-.46,2H88V62.83A8.83,8.83,0,0,0,79.14,54h0a8.84,8.84,0,0,0-8.81,8.81v5.82h4.72A4.46,4.46,0,0,1,74.59,66.68Z"/><path class="cls-3" d="M69.6,68.65h19A1.25,1.25,0,0,1,90,70.06V82.75a1.25,1.25,0,0,1-1.41,1.41h-19a1.25,1.25,0,0,1-1.41-1.41V70.06a1.25,1.25,0,0,1,1.41-1.41Z"/><path class="cls-3" d="M88.63,84.87h-19a2.13,2.13,0,0,1-2.12-2.12V70.05a2.12,2.12,0,0,1,2.12-2.11h19a2.12,2.12,0,0,1,2.11,2.11V82.74a2.15,2.15,0,0,1-.61,1.5,2.13,2.13,0,0,1-1.5.63Z"/><path class="cls-3" d="M80.56,79.93V76.72a2.82,2.82,0,1,0-2.82,0v3.21a1.41,1.41,0,1,0,2.82,0Z"/><path class="cls-1" d="M79.15,82.06a2.12,2.12,0,0,1-1.5-.62A2.1,2.1,0,0,1,77,80V77.11a3.52,3.52,0,1,1,4.23,0V80a2.12,2.12,0,0,1-2.11,2.11Z"/></g></g></svg>