<svg xmlns="http://www.w3.org/2000/svg" viewBox="0 0 98.02 128"><defs><style>.cls-1{fill:#052a9f;}.cls-2{fill:#13bec8;}.cls-3{fill:#fff;}</style></defs><title>privacy</title><g id="Слой_2" data-name="Слой 2"><g id="content"><path class="cls-1" d="M87,64H60.43l2.14-4.4a14.65,14.65,0,0,0,1.5-6.47V37A14.94,14.94,0,1,0,34.2,37V53.08a14.73,14.73,0,0,0,1.51,6.48L37.85,64H11.27V37.87a37.87,37.87,0,0,1,75.74,0ZM69.63,57.84H80.9v-20a31.76,31.76,0,0,0-63.52,0v20H28.65a20.52,20.52,0,0,1-.56-4.76V37a21,21,0,1,1,42.09,0V53.08A20.45,20.45,0,0,1,69.63,57.84Z"/><path class="cls-2" d="M11.41,60.89h75.2c3.72,0,5.57,1.86,5.57,5.57v50.13c0,3.71-1.85,5.57-5.57,5.57H11.41q-5.56,0-5.57-5.57V66.46q0-5.56,5.57-5.57Z"/><path class="cls-1" d="M86.62,128H11.41A11.45,11.45,0,0,1,0,116.59V66.42A11.45,11.45,0,0,1,11.41,55h75.2A11.4,11.4,0,0,1,98,66.42v50.13A11.4,11.4,0,0,1,86.62,128ZM11.41,61.11a5.32,5.32,0,0,0-5.3,5.31v50.17a5.31,5.31,0,0,0,5.31,5.3h75.2a5.31,5.31,0,0,0,5.3-5.32V66.42a5.31,5.31,0,0,0-5.31-5.31Z"/><path class="cls-3" d="M54.72,105.46V92.77a11.14,11.14,0,1,0-11.14,0v12.69a5.57,5.57,0,1,0,11.14,0Z"/><path class="cls-1" d="M49.16,116.92h0a11.33,11.33,0,0,1-8.07-3.35,11.49,11.49,0,0,1-3.34-8.07V95.75a17,17,0,1,1,22.81,0v9.75A11.43,11.43,0,0,1,49.16,116.92Zm0-44.63a10.87,10.87,0,0,0-6.52,19.58l1.22.91V105.5a5.35,5.35,0,0,0,1.55,3.76,5.3,5.3,0,0,0,9-3.76V92.78l1.23-.91a10.88,10.88,0,0,0-6.52-19.58Z"/></g></g></svg>