<svg xmlns="http://www.w3.org/2000/svg" viewBox="0 0 119.6 128"><defs><style>.cls-1{fill:#052a9f;}.cls-2{fill:#13bec8;}</style></defs><title>shield</title><g id="Слой_2" data-name="Слой 2"><g id="content"><path class="cls-1" d="M59.81,128C54,128,38.9,120.76,26.9,112.19,14.63,103.46,0,89.56,0,72.94V18.4l4.94-.66c7.83-1.12,13.52-6.15,14.45-12.83L20.08,0H99.53l.68,4.91c.93,6.7,6.61,11.74,14.48,12.84l4.91.68V73c0,16.62-14.64,30.52-26.91,39.25C80.68,120.77,65.62,128,59.81,128ZM6.48,24.06V72.94c0,13.86,13.15,26.13,24.18,34,12.3,8.79,25.69,14.61,29.15,14.61s16.81-5.82,29.12-14.58c11-7.85,24.19-20.12,24.19-34V24.07C102.91,22.39,95.47,15.58,93.9,6.48H25.7C24.13,15.56,16.68,22.37,6.48,24.06Z"/><path class="cls-1" d="M41.61,88.12a6.11,6.11,0,0,1-6-7.14L38.54,63.9,26.13,51.81A6.1,6.1,0,0,1,29.51,41.4l17.15-2.49,7.67-15.54A6.05,6.05,0,0,1,59.8,20h0a6.06,6.06,0,0,1,5.47,3.4h0l7.67,15.54L90.09,41.4a6.11,6.11,0,0,1,3.38,10.41L81.06,63.9,84,81a6.1,6.1,0,0,1-8.85,6.43L59.8,79.35,44.46,87.41A6,6,0,0,1,41.61,88.12ZM59.8,72.82a6.1,6.1,0,0,1,2.84.71l14.83,7.79L74.64,64.8a6.12,6.12,0,0,1,1.75-5.4l12-11.7L71.81,45.29A6.09,6.09,0,0,1,67.22,42l-7.42-15L52.38,42a6.1,6.1,0,0,1-4.59,3.33L31.2,47.7l12,11.7A6.1,6.1,0,0,1,45,64.8L42.12,81.32,57,73.52A6.18,6.18,0,0,1,59.8,72.82Zm-.34-46.58Z"/><path class="cls-2" d="M62.11,27.73l7,14.14A2.56,2.56,0,0,0,71,43.28l15.61,2.27a2.58,2.58,0,0,1,1.43,4.39L76.77,61A2.59,2.59,0,0,0,76,63.23L78.7,78.78A2.58,2.58,0,0,1,75,81.5L61,74.16a2.55,2.55,0,0,0-2.4,0l-14,7.34a2.58,2.58,0,0,1-3.74-2.72l2.67-15.55A2.62,2.62,0,0,0,42.83,61l-11.3-11A2.57,2.57,0,0,1,33,45.55l15.61-2.27a2.58,2.58,0,0,0,1.94-1.41l7-14.14A2.57,2.57,0,0,1,62.11,27.73Z"/></g></g></svg>