<svg xmlns="http://www.w3.org/2000/svg" viewBox="0 0 42 42"><defs><style>.cls-1{fill:#fff;}.cls-2{fill:#052a9f;}</style></defs><title>slack-icon</title><g id="Слой_2" data-name="Слой 2"><g id="content"><path class="cls-1" d="M40.25,15.23c4.32,14.42.94,20.67-13.48,25s-20.67.94-25-13.48S.81,6.1,15.23,1.75s20.67-.94,25,13.48Z"/><path class="cls-2" d="M34.31,21.84a2.16,2.16,0,0,0-2.75-1.36l-2.73.9L27,16l2.73-.92a2.17,2.17,0,0,0,1.37-2.75A2.14,2.14,0,0,0,28.35,11l-2.71.9L24.69,9a2.14,2.14,0,0,0-2.75-1.37,2.18,2.18,0,0,0-1.36,2.75l.94,2.81L15.9,15.1,15,12.29a2.15,2.15,0,0,0-2.75-1.37,2.2,2.2,0,0,0-1.37,2.73l.95,2.84-2.73.92a2.22,2.22,0,0,0-1.37,2.75,2.25,2.25,0,0,0,2,1.49l.75-.13,2.73-.9L15,26l-2.73.92a2.18,2.18,0,0,0,.63,4.24l.77-.13,2.71-.9L17.31,33a2.13,2.13,0,0,0,2,1.49l.76-.12a2.17,2.17,0,0,0,1.36-2.75l-.94-2.81L26.1,26.9,27,29.71a2.14,2.14,0,0,0,2,1.47l.75-.11a2.19,2.19,0,0,0,1.37-2.72l-.95-2.84,2.73-.92A2.22,2.22,0,0,0,34.31,21.84ZM19.09,24.63l-1.81-5.39,5.63-1.87,1.81,5.39Z"/></g></g></svg>