<svg xmlns="http://www.w3.org/2000/svg" viewBox="0 0 30 30"><defs><style>.cls-1{fill:#fff;}.cls-2{fill:#2a3480;}</style></defs><title>submit</title><g id="Слой_2" data-name="Слой 2"><g id="content"><path class="cls-1" d="M15,30A15,15,0,1,1,30,15,15,15,0,0,1,15,30Z"/><path class="cls-2" d="M12.56,21.37a.72.72,0,0,1-.52-.22.75.75,0,0,1,0-1.07l5.62-5.62a.76.76,0,0,1,1.07,1.07l-5.62,5.62a.82.82,0,0,1-.55.22Z"/><path class="cls-2" d="M18.19,15.75a.74.74,0,0,1-.53-.22L12,9.9a.76.76,0,0,1,1.07-1.07l5.62,5.63a.75.75,0,0,1,0,1.07.8.8,0,0,1-.54.22Z"/></g></g></svg>