<svg xmlns="http://www.w3.org/2000/svg" viewBox="0 0 42 42"><defs><style>.cls-1{fill:#fff;}.cls-2{fill:#052a9f;}</style></defs><title>twitter-icon</title><g id="Слой_2" data-name="Слой 2"><g id="content"><path class="cls-1" d="M21,42A21,21,0,1,0,0,21,21,21,0,0,0,21,42"/><path class="cls-2" d="M32.59,14.85a9.59,9.59,0,0,1-2.73.74A4.75,4.75,0,0,0,32,13a9.5,9.5,0,0,1-3,1.15,4.75,4.75,0,0,0-8.21,3.25,4.83,4.83,0,0,0,.12,1.08,13.49,13.49,0,0,1-9.78-5,4.76,4.76,0,0,0,1.47,6.34,4.74,4.74,0,0,1-2.15-.6v.06A4.75,4.75,0,0,0,14.19,24a4.73,4.73,0,0,1-1.26.16A4.53,4.53,0,0,1,12,24a4.76,4.76,0,0,0,4.44,3.3,9.58,9.58,0,0,1-5.9,2,8.47,8.47,0,0,1-1.13-.07A13.5,13.5,0,0,0,30.23,17.92c0-.21,0-.41,0-.62a9.68,9.68,0,0,0,2.37-2.45"/></g></g></svg>