<svg xmlns="http://www.w3.org/2000/svg" viewBox="0 0 128 125.47"><defs><style>.cls-1{fill:#052aa3;}.cls-2{fill:#13c2cc;}</style></defs><title>verifiable</title><g id="Слой_2" data-name="Слой 2"><g id="content"><path class="cls-1" d="M50.49,101A50.49,50.49,0,1,1,101,50.49,50.55,50.55,0,0,1,50.49,101Zm0-94.14A43.65,43.65,0,1,0,94.14,50.49,43.7,43.7,0,0,0,50.49,6.84Z"/><path class="cls-1" d="M122.53,125.47a5.46,5.46,0,0,1-4-1.71L83.9,87.11a5.47,5.47,0,1,1,7.95-7.52l34.65,36.65a5.46,5.46,0,0,1-4,9.23Z"/><path class="cls-2" d="M68.16,29.09,43.21,54,32.82,43.65,24.51,52l18.7,18.71L76.47,37.41Z"/><path class="cls-1" d="M43.21,76.47,18.7,52,32.82,37.84,43.21,48.23,68.16,23.29,82.28,37.41ZM30.31,52l12.9,12.9L70.67,37.41l-2.51-2.52-24.95,25L32.82,49.45Z"/><path class="cls-2" d="M68.16,29.09,43.21,54,32.82,43.65,24.51,52l18.7,18.71L76.47,37.41Z"/></g></g></svg>