<?xml version="1.0" encoding="utf-8"?>
<!-- Generator: Adobe Illustrator 24.0.2, SVG Export Plug-In . SVG Version: 6.00 Build 0)  -->
<svg version="1.1" id="Layer_1" xmlns="http://www.w3.org/2000/svg" xmlns:xlink="http://www.w3.org/1999/xlink" x="0px" y="0px"
	 viewBox="0 0 22.9 24" style="enable-background:new 0 0 22.9 24;" xml:space="preserve">
<style type="text/css">
	.st0{fill:#062896;}
</style>
<path class="st0" d="M22.3,6.4c-0.2-0.1-0.5-0.1-0.7,0l-4.5,2.5V7.7c0-1.4-1.1-2.5-2.5-2.5H3.4C2,5.2,0.9,6.3,0.9,7.7v8.9
	c0,1.4,1.1,2.5,2.5,2.5h11.2c1.4,0,2.5-1.1,2.5-2.5v-1.1l4.5,2.5c0.2,0.1,0.5,0.1,0.7,0c0.2-0.1,0.3-0.4,0.3-0.6V7
	C22.6,6.8,22.5,6.5,22.3,6.4z M21.2,8.2v7.9l-4.1-2.3v-3.4L21.2,8.2z M15.7,7.7l0,8.9c0,0.6-0.5,1.1-1.1,1.1H3.4
	c-0.6,0-1.1-0.5-1.1-1.1V7.7c0-0.6,0.5-1.1,1.1-1.1h11.2C15.2,6.6,15.7,7.1,15.7,7.7z"/>
</svg>
