<svg xmlns="http://www.w3.org/2000/svg" width="23.613" height="32.678" viewBox="0 0 23.613 32.678"><defs><style>.a{fill:#fff;}</style></defs><g transform="translate(0)"><path class="a" d="M88.576,17.144a5.9,5.9,0,0,0-3.437-2.023,4.656,4.656,0,0,0,2.573-5.067,5.007,5.007,0,0,0-.717-2.248,4.5,4.5,0,0,0-1.621-1.532,8.92,8.92,0,0,0-2.219-.884,17.509,17.509,0,0,0-2.749-.442V0H77.381V4.811q-.785,0-2.4.039V0H71.961V4.949q-.648.02-1.9.02l-4.163-.02V8.17h2.18a1.56,1.56,0,0,1,1.748,1.335v5.636a2,2,0,0,1,.314.02h-.314v7.894a1.049,1.049,0,0,1-1.139,1H66.5l-.609,3.594h3.928q.373,0,1.08.009t1.06.01v5.008h3.025V27.729q.825.02,2.4.02v4.929h3.024V27.671a23.511,23.511,0,0,0,2.857-.294A11.628,11.628,0,0,0,85.65,26.7a6.439,6.439,0,0,0,1.9-1.149A5.422,5.422,0,0,0,88.821,23.8a7.43,7.43,0,0,0,.638-2.455A5.818,5.818,0,0,0,88.576,17.144ZM75.045,8.385q.138,0,.776-.01t1.061-.02q.422-.01,1.139.049a10.835,10.835,0,0,1,1.208.157,6.728,6.728,0,0,1,1.08.324,2.927,2.927,0,0,1,.942.55,2.727,2.727,0,0,1,.6.825,2.575,2.575,0,0,1,.246,1.149,2.733,2.733,0,0,1-.176,1,1.888,1.888,0,0,1-.53.756,5.371,5.371,0,0,1-.727.53,3.328,3.328,0,0,1-.952.363q-.579.138-1.011.216a8.278,8.278,0,0,1-1.08.108q-.648.029-.982.039t-.913,0l-.678-.01V8.385h0ZM83.3,21.759a2.793,2.793,0,0,1-.481.786,2.728,2.728,0,0,1-.776.589,6.653,6.653,0,0,1-.933.412,7.508,7.508,0,0,1-1.09.275q-.639.118-1.12.167t-1.149.079q-.667.029-1.041.029t-.943-.01q-.57-.009-.727-.009V17.439q.157,0,.933-.02t1.267-.019q.491,0,1.355.059a11.58,11.58,0,0,1,1.453.176A9.556,9.556,0,0,1,81.339,18a3.73,3.73,0,0,1,1.129.6,2.948,2.948,0,0,1,.726.9,2.805,2.805,0,0,1,.108,2.259Z" transform="translate(-65.893)"/></g></svg>