<svg xmlns="http://www.w3.org/2000/svg" width="22.928" height="37.433" viewBox="0 0 22.928 37.433"><defs><style>.a{fill:#fff;}</style></defs><path class="a" d="M47.728,18.6v-.058c0-.029,0-.029-.029-.058v-.058c0-.029-.029-.029-.029-.058a.029.029,0,0,0-.029-.029L36.761.292C36.732.263,36.7.2,36.673.175h-.029c-.029-.029-.058-.058-.088-.058a.029.029,0,0,1-.029-.029.107.107,0,0,0-.088-.029H36.41A.161.161,0,0,0,36.264,0a.264.264,0,0,0-.146.029h-.029c-.029,0-.058.029-.088.029a.029.029,0,0,0-.029.029c-.029.029-.058.029-.088.058h-.029a.4.4,0,0,0-.088.117L24.888,18.337a.029.029,0,0,1-.029.029c0,.029-.029.029-.029.058v.058c0,.029,0,.029-.029.058v.234c0,.029,0,.029.029.058v.029a.4.4,0,0,0,.088.117l.029.029.088.088a.029.029,0,0,1,.029.029L35.972,25.5H36a.107.107,0,0,0,.088.029h.029c.058,0,.088.029.146.029a.264.264,0,0,0,.146-.029h.029c.029,0,.058-.029.088-.029h.029l10.879-6.346c.029,0,.029-.029.058-.029l.029-.029.058-.058.029-.029c0-.029.029-.029.029-.058s.029-.029.029-.058,0-.029.029-.058c0-.029,0-.029.029-.058V18.6ZM35.679,13.336l-8.8,4.007,8.8-14.652Zm0,1.287v9.358l-9.007-5.264Zm1.17,0,9.007,4.094-9.007,5.264Zm0-1.287V2.691l8.8,14.652Z" transform="translate(-24.8 0)"/><path class="a" d="M46.878,71.8,36.32,78.15,25.763,71.8a.58.58,0,0,0-.731.117.616.616,0,0,0-.058.731L35.853,87.917l.029.029c.029.029.029.058.058.058l.029.029c.029.029.058.029.058.058a.029.029,0,0,1,.029.029c.029,0,.058.029.088.029h.029c.029,0,.088.029.117.029.058,0,.088,0,.117-.029h.029c.029,0,.058-.029.088-.029a.029.029,0,0,0,.029-.029.063.063,0,0,0,.058-.058l.029-.029.058-.058.029-.029L47.609,72.652a.575.575,0,0,0-.058-.731A.536.536,0,0,0,46.878,71.8Zm-11.142,7.34v6.609L27.547,74.26Zm1.17,6.609V79.144l8.189-4.913Z" transform="translate(-24.857 -50.747)"/></svg>