<svg xmlns="http://www.w3.org/2000/svg" xmlns:xlink="http://www.w3.org/1999/xlink" width="241.915" height="303.514" viewBox="0 0 241.915 303.514">
  <defs>
    <linearGradient id="linear-gradient" x1="0.976" y1="0.348" x2="0.023" y2="0.652" gradientUnits="objectBoundingBox">
      <stop offset="0" stop-color="#60deaf"/>
      <stop offset="0.225" stop-color="#4bb7aa"/>
      <stop offset="0.4" stop-color="#1d2468"/>
      <stop offset="0.626" stop-color="#195589"/>
      <stop offset="0.917" stop-color="#4bb7aa"/>
      <stop offset="1" stop-color="#5dd8ae"/>
    </linearGradient>
    <linearGradient id="linear-gradient-2" x1="-0.064" y1="0.725" x2="0.9" y2="0.34" gradientUnits="objectBoundingBox">
      <stop offset="0" stop-color="#d2e9f1" stop-opacity="0"/>
      <stop offset="0.909" stop-color="#0299cb"/>
    </linearGradient>
    <linearGradient id="linear-gradient-3" x1="2.373" y1="25.006" x2="1.126" y2="26.837" gradientUnits="objectBoundingBox">
      <stop offset="0" stop-color="#5dd8ae"/>
      <stop offset="0.083" stop-color="#4bb7aa"/>
      <stop offset="0.131" stop-color="#47afa7"/>
      <stop offset="0.203" stop-color="#3d9ca0"/>
      <stop offset="0.288" stop-color="#2c7c96"/>
      <stop offset="0.374" stop-color="#195589"/>
      <stop offset="0.491" stop-color="#195387"/>
      <stop offset="0.533" stop-color="#194c83"/>
      <stop offset="0.563" stop-color="#1a407b"/>
      <stop offset="0.587" stop-color="#1c2f6f"/>
      <stop offset="0.6" stop-color="#1d2468"/>
    </linearGradient>
    <linearGradient id="linear-gradient-4" x1="0.044" y1="0.948" x2="0.89" y2="0.117" gradientUnits="objectBoundingBox">
      <stop offset="0" stop-color="#5dd8ae"/>
      <stop offset="0.083" stop-color="#4bb7aa"/>
      <stop offset="0.374" stop-color="#195589"/>
      <stop offset="0.6" stop-color="#1d2468"/>
    </linearGradient>
    <linearGradient id="linear-gradient-5" x1="-0.804" y1="1.783" x2="1.615" y2="-0.597" xlink:href="#linear-gradient-4"/>
    <linearGradient id="linear-gradient-6" x1="-15.926" y1="501.881" x2="-15.05" y2="501.881" xlink:href="#linear-gradient-2"/>
    <linearGradient id="linear-gradient-7" x1="-126.888" y1="-839.584" x2="-126.888" y2="-840.46" xlink:href="#linear-gradient-2"/>
    <linearGradient id="linear-gradient-8" x1="-143.625" y1="-236.354" x2="-143.625" y2="-237.014" xlink:href="#linear-gradient-2"/>
    <linearGradient id="linear-gradient-9" x1="-1080.313" y1="-448.956" x2="-1080.313" y2="-449.832" xlink:href="#linear-gradient-2"/>
    <linearGradient id="linear-gradient-10" x1="-1079.428" y1="-449.518" x2="-1079.428" y2="-450.394" xlink:href="#linear-gradient-2"/>
    <linearGradient id="linear-gradient-11" x1="-143.691" y1="619.738" x2="-142.815" y2="619.738" xlink:href="#linear-gradient-2"/>
    <linearGradient id="linear-gradient-12" x1="-57.878" y1="1017.634" x2="-57.878" y2="1016.758" xlink:href="#linear-gradient-2"/>
    <linearGradient id="linear-gradient-13" x1="-65.807" y1="289.126" x2="-65.807" y2="288.465" xlink:href="#linear-gradient-2"/>
    <linearGradient id="linear-gradient-14" x1="-493.046" y1="544.918" x2="-493.046" y2="544.042" xlink:href="#linear-gradient-2"/>
    <linearGradient id="linear-gradient-15" x1="-492.046" y1="545.509" x2="-492.046" y2="544.633" xlink:href="#linear-gradient-2"/>
    <linearGradient id="linear-gradient-16" x1="-33.969" y1="-430.727" x2="-33.093" y2="-430.727" xlink:href="#linear-gradient-2"/>
    <linearGradient id="linear-gradient-17" x1="-586.812" y1="-622.053" x2="-586.812" y2="-622.929" xlink:href="#linear-gradient-2"/>
    <linearGradient id="linear-gradient-18" x1="-662.648" y1="-174.903" x2="-662.648" y2="-175.565" xlink:href="#linear-gradient-2"/>
    <linearGradient id="linear-gradient-19" x1="-4978.362" y1="-333.17" x2="-4978.362" y2="-334.046" xlink:href="#linear-gradient-2"/>
    <linearGradient id="linear-gradient-20" x1="-4972.904" y1="-333.765" x2="-4972.904" y2="-334.64" xlink:href="#linear-gradient-2"/>
    <linearGradient id="linear-gradient-21" x1="-179.223" y1="184.566" x2="-178.347" y2="184.566" xlink:href="#linear-gradient-2"/>
    <linearGradient id="linear-gradient-22" x1="-269.904" y1="1511.836" x2="-269.904" y2="1510.96" xlink:href="#linear-gradient-2"/>
    <linearGradient id="linear-gradient-23" x1="-399.025" y1="559.04" x2="-399.025" y2="558.178" xlink:href="#linear-gradient-2"/>
    <linearGradient id="linear-gradient-24" x1="-2289.572" y1="809.082" x2="-2289.572" y2="808.206" xlink:href="#linear-gradient-2"/>
    <linearGradient id="linear-gradient-25" x1="-2286.273" y1="809.9" x2="-2286.273" y2="809.024" xlink:href="#linear-gradient-2"/>
    <linearGradient id="linear-gradient-26" x1="1.461" y1="-5.193" x2="2.337" y2="-5.193" xlink:href="#linear-gradient-2"/>
    <linearGradient id="linear-gradient-27" x1="-379.266" y1="-1114.404" x2="-379.266" y2="-1115.28" xlink:href="#linear-gradient-2"/>
    <linearGradient id="linear-gradient-28" x1="-562.393" y1="-412.263" x2="-562.393" y2="-413.13" xlink:href="#linear-gradient-2"/>
    <linearGradient id="linear-gradient-29" x1="-160.642" y1="-303.895" x2="-159.767" y2="-303.895" xlink:href="#linear-gradient-2"/>
    <linearGradient id="linear-gradient-30" x1="-513.103" y1="1219.181" x2="-513.103" y2="1218.305" xlink:href="#linear-gradient-2"/>
    <linearGradient id="linear-gradient-31" x1="-582.813" y1="345.672" x2="-582.813" y2="345.013" xlink:href="#linear-gradient-2"/>
    <linearGradient id="linear-gradient-32" x1="-4351.324" y1="652.149" x2="-4351.324" y2="651.274" xlink:href="#linear-gradient-2"/>
    <linearGradient id="linear-gradient-33" x1="-4345.715" y1="652.705" x2="-4345.715" y2="651.829" xlink:href="#linear-gradient-2"/>
    <linearGradient id="linear-gradient-34" x1="-75.646" y1="756.946" x2="-74.77" y2="756.946" xlink:href="#linear-gradient-2"/>
    <linearGradient id="linear-gradient-35" x1="4.393" y1="37.592" x2="4.393" y2="36.717" xlink:href="#linear-gradient-2"/>
    <linearGradient id="linear-gradient-36" x1="6.283" y1="14.597" x2="6.283" y2="13.729" xlink:href="#linear-gradient-2"/>
    <linearGradient id="linear-gradient-37" x1="-106.313" y1="-564.982" x2="-105.437" y2="-564.982" xlink:href="#linear-gradient-2"/>
    <linearGradient id="linear-gradient-38" x1="-647.308" y1="419.639" x2="-647.308" y2="418.763" xlink:href="#linear-gradient-2"/>
    <linearGradient id="linear-gradient-39" x1="-962.841" y1="157.963" x2="-962.841" y2="157.095" xlink:href="#linear-gradient-2"/>
  </defs>
  <g id="Group_143" data-name="Group 143" transform="translate(-1429.416 -421.045)">
    <path id="Path_291" data-name="Path 291" d="M1536.435,654.106c-1.094-.02-2.205-.061-3.3-.122l.064-1.168q1.623.09,3.261.12Zm3.308,0-.023-1.17c1.087-.021,2.184-.062,3.261-.123l.066,1.168C1541.956,654.041,1540.844,654.083,1539.743,654.1Zm-9.91-.365c-1.09-.1-2.2-.226-3.287-.37l.153-1.159c1.077.141,2.168.264,3.243.364Zm16.511-.009-.109-1.165c1.073-.1,2.164-.225,3.242-.367l.153,1.16C1548.538,653.5,1547.433,653.628,1546.344,653.73Zm-23.068-.852c-1.078-.185-2.171-.392-3.249-.618l.24-1.145c1.064.223,2.142.428,3.206.609Zm29.624-.016-.2-1.152c1.063-.183,2.141-.389,3.2-.613l.241,1.146C1555.07,652.469,1553.977,652.678,1552.9,652.862Zm-36.1-1.341c-1.062-.265-2.137-.555-3.193-.862l.326-1.124c1.043.3,2.1.59,3.15.851Zm42.567-.021-.285-1.134c1.054-.265,2.113-.553,3.149-.854l.328,1.122C1561.513,650.941,1560.439,651.232,1559.371,651.5Zm-48.918-1.825c-1.054-.35-2.107-.723-3.127-1.107l.412-1.094c1.006.378,2.044.745,3.084,1.091Zm55.267-.027-.371-1.11c1.038-.347,2.073-.714,3.075-1.092l.413,1.094C1567.821,648.923,1566.772,649.3,1565.72,649.648Zm-61.475-2.3c-1.022-.429-2.042-.88-3.032-1.341l.494-1.061c.977.455,1.983.9,2.991,1.324Zm67.655-.023-.454-1.078c.993-.419,1.994-.862,2.976-1.319l.494,1.06C1573.921,646.448,1572.907,646.9,1571.9,647.322Zm-73.663-2.773c-.981-.5-1.963-1.031-2.919-1.567l.573-1.02c.943.529,1.912,1.05,2.88,1.546Zm79.643-.014-.534-1.042c.972-.5,1.937-1.018,2.869-1.541l.573,1.02C1579.843,643.5,1578.865,644.028,1577.88,644.535Zm-85.419-3.229c-.943-.578-1.882-1.178-2.79-1.782l.648-.974c.9.6,1.822,1.188,2.753,1.759Zm91.175-.005-.612-1q1.391-.854,2.746-1.755l.648.974C1585.514,640.125,1584.578,640.723,1583.636,641.3Zm5.5-3.661-.684-.949c.871-.628,1.749-1.287,2.607-1.956l.72.921C1590.906,636.336,1590.017,637,1589.133,637.64Zm-102.182,0c-.889-.642-1.78-1.311-2.646-1.987l.72-.922c.854.668,1.733,1.327,2.611,1.96Zm107.392-4.062-.755-.894c.834-.7,1.66-1.426,2.454-2.149l.787.865C1596.025,632.13,1595.188,632.862,1594.343,633.575Zm-112.608-.009c-.842-.711-1.679-1.444-2.488-2.181l.787-.864c.8.726,1.625,1.449,2.455,2.15Zm117.5-4.438-.818-.837c.769-.753,1.538-1.536,2.286-2.327l.85.8C1600.793,627.569,1600.013,628.363,1599.233,629.128Zm-122.391-.014c-.777-.762-1.557-1.556-2.316-2.358l.849-.8c.75.792,1.519,1.576,2.286,2.329Zm126.936-4.792-.879-.772c.712-.812,1.421-1.651,2.1-2.494l.908.738C1605.219,622.648,1604.5,623.5,1603.778,624.322ZM1472.3,624.31c-.723-.825-1.44-1.675-2.132-2.526l.908-.738c.682.84,1.39,1.679,2.1,2.493Zm135.65-5.124-.935-.7c.648-.862,1.292-1.752,1.913-2.647l.961.667C1609.259,617.41,1608.607,618.312,1607.95,619.186Zm-139.817-.008c-.664-.883-1.315-1.784-1.934-2.677l.961-.667c.611.881,1.254,1.77,1.909,2.642Zm-3.766-5.425c-.587-.918-1.168-1.865-1.727-2.815l1.009-.592c.551.937,1.124,1.871,1.7,2.777Zm147.358,0-.985-.63c.586-.918,1.16-1.855,1.707-2.787l1.009.593C1612.9,611.869,1612.319,612.82,1611.725,613.75Zm-150.7-5.69c-.518-.962-1.025-1.95-1.508-2.935l1.051-.515c.476.972.976,1.946,1.488,2.9Zm154.058-.021-1.03-.554c.518-.964,1.02-1.943,1.492-2.908l1.051.513C1616.113,606.07,1615.6,607.062,1615.079,608.039Zm-156.961-5.9c-.444-1-.875-2.026-1.28-3.041l1.087-.434c.4,1,.824,2.011,1.263,3Zm159.874-.048-1.069-.473c.438-.991.865-2.005,1.267-3.016l1.087.433C1618.869,600.055,1618.437,601.083,1617.992,602.087ZM1455.671,596c-.368-1.035-.72-2.09-1.048-3.137l1.116-.349c.323,1.031.671,2.072,1.035,3.094Zm164.773-.072-1.1-.39c.364-1.027.712-2.073,1.034-3.105l1.117.347C1621.165,593.828,1620.813,594.886,1620.444,595.928Zm-166.749-6.238c-.288-1.059-.559-2.138-.806-3.209l1.14-.262c.244,1.055.511,2.12.795,3.164Zm168.722-.085-1.13-.3c.284-1.05.551-2.115.792-3.166l1.14.263C1622.974,587.462,1622.7,588.541,1622.417,589.6Zm-170.21-6.359c-.206-1.076-.394-2.172-.56-3.26l1.157-.177c.163,1.074.348,2.156.551,3.216Zm171.692-.086-1.149-.218c.2-1.068.388-2.151.549-3.217l1.157.174C1624.292,580.981,1624.1,582.079,1623.9,583.16Zm-172.689-6.451c-.123-1.086-.228-2.194-.311-3.293l1.166-.088c.082,1.084.186,2.177.307,3.249Zm173.679-.087-1.163-.131c.121-1.079.224-2.172.305-3.249l1.166.087C1625.115,574.42,1625.012,575.527,1624.889,576.622Zm-174.179-6.508c-.042-1.1-.063-2.212-.064-3.307h1.17c0,1.081.022,2.179.063,3.264Zm174.672-.086-1.169-.044c.04-1.078.06-2.176.06-3.263v-.172h1.17v.172C1625.443,567.822,1625.422,568.935,1625.382,570.028Zm-173.509-6.484-1.169-.043c.04-1.1.1-2.211.181-3.3l1.167.086C1451.972,561.362,1451.912,562.458,1451.873,563.544Zm172.333-.257c-.042-1.083-.106-2.178-.189-3.258l1.167-.09c.084,1.095.148,2.2.191,3.3Zm-171.852-6.249-1.163-.13c.123-1.1.267-2.2.429-3.28l1.157.175C1452.617,554.864,1452.475,555.953,1452.354,557.038Zm171.353-.255c-.123-1.076-.269-2.164-.434-3.235l1.157-.176c.167,1.084.314,2.187.439,3.276Zm-170.384-6.2-1.15-.217c.205-1.082.432-2.17.677-3.238l1.14.261C1453.749,548.444,1453.524,549.518,1453.323,550.585Zm169.4-.251c-.206-1.066-.433-2.14-.678-3.192l1.14-.264c.248,1.066.479,2.154.686,3.235Zm-167.939-6.109-1.13-.3c.283-1.053.594-2.122.921-3.178l1.117.347C1455.364,542.133,1455.058,543.188,1454.779,544.225Zm166.464-.247c-.285-1.043-.594-2.1-.919-3.13l1.116-.351c.33,1.048.643,2.115.931,3.174Zm-164.524-5.991-1.1-.39c.366-1.033.757-2.077,1.164-3.1l1.088.431C1457.466,535.937,1457.08,536.967,1456.719,537.987Zm162.568-.233c-.364-1.022-.752-2.049-1.154-3.052l1.086-.434c.407,1.016.8,2.057,1.17,3.094Zm-160.155-5.847-1.07-.473c.442-1,.912-2.011,1.4-3.005l1.052.512C1460.032,529.922,1459.568,530.92,1459.132,531.907Zm157.735-.2c-.439-.987-.9-1.98-1.379-2.948l1.05-.516c.482.982.952,1.987,1.4,2.988ZM1462,526.033l-1.031-.553c.518-.967,1.063-1.938,1.62-2.889l1.01.591C1463.048,524.12,1462.51,525.08,1462,526.033Zm152-.172c-.512-.95-1.05-1.9-1.6-2.837l1.007-.594c.557.945,1.1,1.913,1.622,2.877ZM1465.3,520.4l-.986-.63c.6-.937,1.216-1.865,1.834-2.756l.961.667C1466.5,518.556,1465.894,519.47,1465.3,520.4Zm145.389-.147c-.584-.911-1.194-1.824-1.81-2.71l.959-.669c.626.9,1.244,1.824,1.835,2.747Zm-141.669-5.221-.936-.7c.657-.876,1.342-1.754,2.035-2.609l.909.738C1470.347,513.3,1469.671,514.163,1469.023,515.028Zm137.946-.129c-.657-.872-1.334-1.736-2.01-2.568l.908-.737c.685.842,1.37,1.718,2.036,2.6Zm-133.836-4.943-.879-.771c.73-.834,1.479-1.657,2.225-2.447l.85.8C1474.593,508.321,1473.854,509.133,1473.133,509.956Zm129.72-.116q-1.077-1.224-2.2-2.409l.85-.8c.751.793,1.5,1.615,2.228,2.442Zm-125.24-4.629-.82-.835c.783-.769,1.591-1.533,2.4-2.272l.787.865C1479.183,503.7,1478.385,504.451,1477.613,505.211Zm120.754-.107q-1.165-1.139-2.375-2.238l.787-.867q1.224,1.113,2.406,2.269Zm-115.932-4.286-.754-.895c.851-.718,1.714-1.419,2.564-2.084l.72.923C1484.127,499.417,1483.275,500.108,1482.435,500.818Zm111.1-.1q-1.25-1.049-2.538-2.055l.719-.923c.857.668,1.722,1.369,2.571,2.082ZM1487.571,496.8l-.686-.948c.888-.642,1.8-1.277,2.713-1.885l.649.972C1489.347,495.542,1488.447,496.167,1487.571,496.8Zm100.814-.1c-.884-.637-1.788-1.262-2.686-1.859l.648-.974c.91.605,1.825,1.238,2.721,1.883Zm-95.393-3.52-.612-1c.926-.569,1.884-1.133,2.845-1.675l.575,1.02C1494.851,492.066,1493.906,492.622,1492.992,493.184Zm89.952-.093c-.926-.566-1.875-1.122-2.82-1.651l.572-1.02c.958.536,1.92,1.1,2.859,1.673Zm-84.277-3.1-.535-1.039c.957-.492,1.953-.982,2.962-1.454l.5,1.059C1500.595,489.02,1499.611,489.5,1498.667,489.988Zm78.576-.091c-.961-.493-1.95-.975-2.938-1.433l.492-1.061c1,.464,2,.953,2.979,1.452Zm-72.68-2.663-.454-1.079c1-.421,2.031-.833,3.062-1.223l.414,1.094C1506.568,486.41,1505.551,486.817,1504.563,487.234Zm66.749-.089c-1-.42-2.026-.826-3.041-1.206l.411-1.1c1.028.385,2.065.8,3.082,1.223Zm-60.653-2.212-.372-1.11c1.051-.352,2.112-.684,3.156-.989l.328,1.122C1512.742,484.257,1511.695,484.586,1510.659,484.933Zm54.527-.082c-1.024-.339-2.073-.665-3.116-.967l.326-1.124c1.057.306,2.12.636,3.159.981ZM1516.92,483.1l-.285-1.135c1.053-.264,2.137-.516,3.22-.746l.244,1.143C1519.029,482.589,1517.959,482.837,1516.92,483.1Zm42-.063c-1.054-.262-2.124-.506-3.181-.727l.239-1.145c1.071.223,2.156.471,3.224.738Zm-35.616-1.289-.2-1.152c1.084-.187,2.184-.355,3.269-.5l.155,1.159C1525.458,481.4,1524.372,481.563,1523.3,481.747Zm29.229-.041c-1.064-.181-2.149-.343-3.226-.484l.15-1.16c1.093.142,2.193.307,3.272.49Zm-22.763-.822-.11-1.164c1.1-.1,2.2-.189,3.3-.253l.068,1.169C1531.945,480.7,1530.851,480.781,1529.769,480.884Zm16.294-.023c-1.082-.1-2.177-.179-3.255-.239l.064-1.168c1.092.06,2.2.141,3.3.242Zm-9.78-.351-.023-1.17c1.1-.022,2.208-.023,3.308,0l-.021,1.17C1538.46,480.487,1537.368,480.489,1536.283,480.51Z" fill="url(#linear-gradient)"/>
    <g id="Group_163" data-name="Group 163">
      <g id="Group_155" data-name="Group 155">
        <path id="Path_292" data-name="Path 292" d="M1606.97,559.532c.027-2.2-.8-4.948-4.872-5.556-.852-.127-1.729-.3-2.578-.461a33.069,33.069,0,0,0-5.18-.721c-6.207-.206-9.34-2.551-10.476-7.84-.365-1.7-.358-2.438.4-3.473,1.592-2.178,3.153-4.427,4.663-6.6,1.115-1.606,2.268-3.266,3.421-4.881,2.233-3.125,1.019-5.47-.392-6.886l-1.057-1.061c-3.1-3.114-6.306-6.332-9.5-9.464a4.768,4.768,0,0,0-6.665-.434c-.7.509-1.461,1-2.2,1.479a25.839,25.839,0,0,0-4.648,3.548c-4,4.143-8.065,4.6-13.177,1.486-1.16-.706-1.573-1.111-1.734-2.115-.466-2.892-1.006-5.815-1.528-8.642-.353-1.91-.706-3.819-1.039-5.731a4.865,4.865,0,0,0-5.287-4.376h-.032l-.907,0c-4.392.016-8.933.033-13.394-.016h-.1c-3.017,0-4.872,1.592-5.366,4.61-.126.774-.277,1.548-.428,2.321a36.243,36.243,0,0,0-.774,5.444c-.254,6.284-2.574,9.433-7.758,10.531-1.755.372-2.514.439-3.532-.316-2.143-1.594-4.35-3.165-6.485-4.684-1.564-1.112-3.127-2.224-4.678-3.353-2.6-1.891-5.148-1.7-7.379.551q-3.853,3.894-7.74,7.753l-2.376,2.372a4.839,4.839,0,0,0-.524,6.879c.529.73,1.037,1.522,1.528,2.289a26.821,26.821,0,0,0,3.23,4.358c4.122,4.228,4.581,8.337,1.488,13.321-.769,1.239-1.239,1.707-2.344,1.865-2.829.4-5.684.9-8.446,1.373-1.706.294-3.411.588-5.12.864-3.24.523-4.881,2.279-4.876,5.221q0,2.793,0,5.589c0,3.1,0,6.2.014,9.306a4.617,4.617,0,0,0,4.083,4.941c1.008.178,2.014.38,3.02.583a62.692,62.692,0,0,0,6.363,1.054,9.239,9.239,0,0,1,5.325,1.744,15.038,15.038,0,0,1,3.346,4.887,9.251,9.251,0,0,1,1.182,2.461,3.474,3.474,0,0,1-.96,2.446c-2.053,2.727-4.053,5.555-5.987,8.29l-1.669,2.355a6.332,6.332,0,0,0-1.507,3.523,4.784,4.784,0,0,0,1.543,3.694c3.134,3.17,6.861,6.925,10.739,10.745a4.626,4.626,0,0,0,6.407.407c.713-.5,1.474-.99,2.21-1.462a30.753,30.753,0,0,0,4.686-3.446c4.347-4.133,8.346-4.647,12.969-1.661l.154.1c1.3.837,1.835,1.223,2,2.36.442,3.119.984,6.268,1.508,9.314.261,1.513.521,3.026.771,4.54.637,3.87,3.23,4.694,5.321,4.694h.066c4.566-.037,9.377-.037,14.3,0h.067a4.978,4.978,0,0,0,5.4-4.587c.176-1.091.4-2.208.61-3.287a54.322,54.322,0,0,0,.965-6.106c.428-5.284,2.3-7.709,6.465-8.37a4.447,4.447,0,0,0,1.764-.788c.814-.555,1.5-.674,2.811.283,2.225,1.628,4.521,3.225,6.743,4.769,1.634,1.137,3.324,2.312,4.968,3.487,3.108,2.222,5.458,1,6.883-.422q5.172-5.157,10.325-10.334c2.152-2.16,2.306-4.632.445-7.152-.539-.729-1.06-1.517-1.564-2.279a28.438,28.438,0,0,0-3.46-4.534c-4.02-4.018-4.494-7.938-1.537-12.71.826-1.333,1.183-1.778,2.266-1.945,2.777-.427,5.581-.942,8.292-1.439,1.9-.349,3.872-.71,5.808-1.037,3.173-.536,4.761-2.442,4.721-5.666C1606.915,568.978,1606.914,564.267,1606.97,559.532Z" opacity="0.39" fill="url(#linear-gradient-2)"/>
      </g>
      <g id="Group_156" data-name="Group 156">
        <path id="Path_293" data-name="Path 293" d="M1558.311,601.419c-.62.191-1.247.36-1.858.577a1.22,1.22,0,0,1-1.7-.758c-.558-1.17-1.162-2.317-1.745-3.475a3.2,3.2,0,0,0-.143-.306c-.4-.613-3.255-.742-3.715-.161-.823,1.039-1.627,2.094-2.452,3.131-.665.836-.958.9-1.87.433-1.177-.609-2.34-1.247-3.517-1.857a1.219,1.219,0,0,1-.663-1.681c.447-1.278.854-2.569,1.3-3.848a.847.847,0,0,0-.225-1.059,1.507,1.507,0,0,1-.393-.44c-.736-1.454-1.9-1.661-3.368-1.3a24.052,24.052,0,0,1-2.681.339,1.061,1.061,0,0,1-1.275-.835c-.426-1.374-.841-2.751-1.274-4.123a1.143,1.143,0,0,1,.7-1.515c1.21-.6,2.408-1.232,3.631-1.808a.923.923,0,0,0,.63-.976.924.924,0,0,1,.017-.337c.607-1.762-.238-2.83-1.676-3.687a22.184,22.184,0,0,1-1.878-1.442,1.1,1.1,0,0,1-.337-1.558c.66-1.247,1.324-2.491,1.979-3.741a1.186,1.186,0,0,1,1.627-.614c1.28.441,2.571.849,3.849,1.3a.9.9,0,0,0,1.135-.241,1.037,1.037,0,0,1,.314-.281c1.539-.765,1.694-2.017,1.322-3.521-.195-.789-.233-1.616-.356-2.423a1.165,1.165,0,0,1,.9-1.477q1.989-.585,3.963-1.22a1.174,1.174,0,0,1,1.6.668c.62,1.234,1.264,2.455,1.9,3.681a1.891,1.891,0,0,0,.193.375c.429.5,3.262.428,3.667-.1.81-1.05,1.622-2.1,2.405-3.168a1.21,1.21,0,0,1,1.758-.4c1.192.642,2.388,1.278,3.593,1.9a1.207,1.207,0,0,1,.651,1.678c-.433,1.253-.8,2.528-1.236,3.78a1.054,1.054,0,0,0,.27,1.293.444.444,0,0,1,.112.126c.831,1.62,2.143,1.877,3.78,1.424a19.467,19.467,0,0,1,2.339-.347,1.169,1.169,0,0,1,1.462.931c.371,1.272.781,2.534,1.163,3.8.3,1.011.154,1.356-.782,1.839-1.177.606-2.346,1.232-3.544,1.793-.463.217-.508.546-.628.975-.534,1.9.216,3.138,1.859,4.039a16.1,16.1,0,0,1,1.764,1.311,1.116,1.116,0,0,1,.388,1.555q-1.017,1.952-2.058,3.889a1.07,1.07,0,0,1-1.43.536c-1.286-.423-2.585-.809-3.863-1.254a1.082,1.082,0,0,0-1.364.272,1.259,1.259,0,0,1-.379.335c-1.348.679-1.585,1.761-1.261,3.139.2.873.234,1.786.366,2.678a1.23,1.23,0,0,1-1.017,1.568C1559.6,601,1558.959,601.22,1558.311,601.419Zm-.127-20.875a5.923,5.923,0,1,0-3.987,7.384A5.792,5.792,0,0,0,1558.184,580.544Z" fill="url(#linear-gradient-3)"/>
      </g>
      <g id="Group_157" data-name="Group 157">
        <path id="Path_294" data-name="Path 294" d="M1533.044,544.027c-.334-.152-.664-.317-1-.454a.69.69,0,0,1-.435-.961c.2-.705.378-1.417.566-2.126a1.538,1.538,0,0,0,.055-.184c.06-.411-1.1-1.537-1.512-1.464-.739.13-1.476.275-2.215.4-.595.1-.746.023-.954-.519-.27-.7-.522-1.408-.791-2.108a.691.691,0,0,1,.35-.961c.67-.373,1.328-.767,2-1.141a.48.48,0,0,0,.3-.533.829.829,0,0,1,0-.333,1.464,1.464,0,0,0-.938-1.816,13.963,13.963,0,0,1-1.263-.864.6.6,0,0,1-.226-.833c.336-.742.678-1.481,1.011-2.224a.646.646,0,0,1,.863-.38c.739.2,1.483.383,2.217.6a.524.524,0,0,0,.634-.176.5.5,0,0,1,.134-.136,1.623,1.623,0,0,0,.676-2.192,12.376,12.376,0,0,1-.253-1.315.622.622,0,0,1,.443-.787c.747-.279,1.5-.557,2.243-.84a.673.673,0,0,1,.92.351c.376.668.769,1.326,1.142,2a.512.512,0,0,0,.571.325.562.562,0,0,1,.238,0c.939.254,1.475-.218,1.883-.994.214-.407.509-.772.76-1.16a.66.66,0,0,1,.938-.285q1.062.5,2.136.973a.665.665,0,0,1,.426.883c-.2.755-.388,1.514-.58,2.272a1.03,1.03,0,0,0-.059.231c-.007.373,1.22,1.407,1.589,1.336.737-.14,1.475-.278,2.209-.437a.685.685,0,0,1,.9.49q.395,1.08.808,2.153a.683.683,0,0,1-.355.956c-.654.367-1.288.769-1.943,1.135a.6.6,0,0,0-.372.649.259.259,0,0,1,0,.1,1.62,1.62,0,0,0,1.066,2.023,11.145,11.145,0,0,1,1.12.732.661.661,0,0,1,.269.943c-.321.679-.621,1.367-.937,2.048-.251.542-.444.632-1.022.484-.726-.185-1.456-.36-2.174-.572-.278-.082-.42.04-.632.176a1.812,1.812,0,0,0-.732,2.409,9.1,9.1,0,0,1,.255,1.218.632.632,0,0,1-.42.8q-1.164.444-2.333.873a.607.607,0,0,1-.807-.311c-.385-.662-.79-1.313-1.164-1.982a.614.614,0,0,0-.68-.4.724.724,0,0,1-.286,0,1.383,1.383,0,0,0-1.713.855c-.242.447-.573.844-.852,1.271a.7.7,0,0,1-1.02.282C1533.748,544.332,1533.393,544.186,1533.044,544.027Zm7.79-8.885a3.353,3.353,0,1,0-4.462,1.627A3.279,3.279,0,0,0,1540.834,535.142Z" fill="#052aa3"/>
      </g>
      <g id="Group_161" data-name="Group 161">
        <g id="Group_158" data-name="Group 158">
          <path id="Path_295" data-name="Path 295" d="M1519.412,555.361a3.323,3.323,0,0,1-1.163,2.678,4.809,4.809,0,0,1-3.213.989,4.034,4.034,0,0,1-3.3-1.535,6.212,6.212,0,0,1-1.268-4.111,5.813,5.813,0,0,1,1.3-4.026,4.317,4.317,0,0,1,3.352-1.432,4.132,4.132,0,0,1,4.289,3.1l-1.476.29a2.96,2.96,0,0,0-2.813-2.183,2.8,2.8,0,0,0-2.275,1.125,4.83,4.83,0,0,0-.9,3.122,5.7,5.7,0,0,0,.816,3.224,2.666,2.666,0,0,0,2.362,1.211c1.737,0,2.813-.972,2.813-2.456Z" fill="#052aa3"/>
          <path id="Path_296" data-name="Path 296" d="M1524.657,560.768a9.2,9.2,0,0,1,0-14.346l.99.7a8.494,8.494,0,0,0,0,12.964Z" fill="#052aa3"/>
          <path id="Path_297" data-name="Path 297" d="M1531.186,546.422a9.2,9.2,0,0,1,0,14.346l-.99-.682a8.494,8.494,0,0,0,0-12.964Z" fill="#052aa3"/>
          <path id="Path_298" data-name="Path 298" d="M1537.369,558.841v-10.73h1.962l3.681,7.267,3.647-7.267h1.928v10.73h-1.372v-8.819l-3.751,7.471h-.921l-3.8-7.591v8.939Z" fill="#052aa3"/>
          <path id="Path_299" data-name="Path 299" d="M1551.817,558.841v-10.73h1.372v10.73Z" fill="#052aa3"/>
          <path id="Path_300" data-name="Path 300" d="M1558.312,558.841v-9.57h-3.56v-1.16h8.491v1.16h-3.56v9.57Z" fill="#052aa3"/>
        </g>
        <g id="Group_160" data-name="Group 160">
          <g id="Group_159" data-name="Group 159">
            <path id="Path_301" data-name="Path 301" d="M1565.2,549.282v-1.035h-.385v-.125h.918v.125h-.384v1.035Z" fill="#052aa3"/>
            <path id="Path_302" data-name="Path 302" d="M1565.908,549.282v-1.16h.212l.4.786.4-.786h.208v1.16h-.148v-.953l-.406.807h-.1l-.412-.82v.966Z" fill="#052aa3"/>
          </g>
        </g>
      </g>
      <g id="Group_162" data-name="Group 162">
        <path id="Path_303" data-name="Path 303" d="M1536.443,579.021c-1.1-.15-2.192-.358-3.291-.513a1.292,1.292,0,0,1-1.2-1.028,11.029,11.029,0,0,0-1.121-2.715,1.164,1.164,0,0,1,.077-1.373c.424-.587.831-1.185,1.244-1.78,1.241-1.786,1.228-1.773-.348-3.285a.691.691,0,0,0-1.063-.054c-.911.681-1.85,1.323-2.766,2a1.269,1.269,0,0,1-1.512.125,12,12,0,0,0-2.787-1.154,1.172,1.172,0,0,1-.91-1.033c-.118-.714-.223-1.43-.372-2.137-.5-2.368.143-1.956-2.5-2.022a.722.722,0,0,0-.866.726c-.157,1.1-.365,2.19-.522,3.289a1.273,1.273,0,0,1-1.029,1.2,10.418,10.418,0,0,0-2.714,1.12,1.146,1.146,0,0,1-1.373-.063c-.561-.415-1.14-.8-1.707-1.211-1.852-1.326-1.844-1.32-3.4.386a.58.58,0,0,0-.071.869c.447.6.808,1.275,1.3,1.83,1.008,1.128,1.39,2.263.332,3.561a.591.591,0,0,0-.126.282c-.247,2.126-1.687,2.577-3.545,2.816-2.584.334-2.057-.177-2.125,2.5-.012.489.128.766.675.82.64.064,1.269.3,1.908.316,1.692.052,2.775.761,3,2.525a.152.152,0,0,0,.026.073c1.32,1.672.677,3.034-.514,4.492-1.441,1.765-1.346,1.825.317,3.38a.616.616,0,0,0,.931.069c.961-.7,1.947-1.365,2.916-2.056a1.225,1.225,0,0,1,1.446-.087,10.3,10.3,0,0,0,2.713,1.123,1.275,1.275,0,0,1,1.026,1.2c.124.869.3,1.73.429,2.6.261,1.7.176,1.366,1.664,1.407a3.6,3.6,0,0,1,.465,0c.715.1,1.083-.139,1.166-.924.111-1.05.366-2.085.536-3.129a1.261,1.261,0,0,1,.982-1.151,11.533,11.533,0,0,0,2.781-1.168,1.156,1.156,0,0,1,1.372.09c.586.424,1.184.832,1.779,1.245,1.743,1.211,1.732,1.2,3.227-.323.378-.384.445-.666.1-1.114-.713-.919-1.36-1.888-2.053-2.822a1.2,1.2,0,0,1-.1-1.438,11.073,11.073,0,0,0,1.118-2.717,1.25,1.25,0,0,1,1.143-.995c.69-.1,1.375-.231,2.062-.352,2.07-.364,2.05-.364,2.043-2.474C1537.2,579.358,1537.013,579.1,1536.443,579.021Zm-15.824,8.026a6.413,6.413,0,1,1,6.416-6.391A6.368,6.368,0,0,1,1520.619,587.047Z" fill="#fff"/>
        <path id="Path_304" data-name="Path 304" d="M1537.926,577.493a18.338,18.338,0,0,0-2.065-.317c-1.627-.054-2.759-.627-3.134-2.372a1.283,1.283,0,0,1,.161-1.191c.747-1.023,1.452-2.077,2.188-3.107a1.013,1.013,0,0,0-.074-1.461c-.948-.953-1.9-1.906-2.855-2.848a.986.986,0,0,0-1.4-.087,13.084,13.084,0,0,0-1.812,1.325,2.845,2.845,0,0,1-3.958.453,1.048,1.048,0,0,1-.616-.792c-.21-1.3-.469-2.591-.695-3.888a1.008,1.008,0,0,0-1.13-.925c-1.292.005-2.585.011-3.878,0a1.042,1.042,0,0,0-1.165.984,17.267,17.267,0,0,0-.322,2.065c-.065,1.609-.6,2.776-2.35,3.147a1.3,1.3,0,0,1-1.209-.141c-1-.74-2.018-1.444-3.021-2.175a1.088,1.088,0,0,0-1.59.117c-.91.918-1.827,1.83-2.741,2.743a1,1,0,0,0-.11,1.456,15.208,15.208,0,0,0,1.26,1.766,2.921,2.921,0,0,1,.445,3.993,1.116,1.116,0,0,1-.858.65c-1.226.175-2.445.407-3.668.6-.64.1-1.058.394-1.057,1.1,0,1.344,0,2.689.005,4.033a.941.941,0,0,0,.846,1.031c.839.147,1.671.359,2.516.439,1.321.126,2.408.481,2.634,2.011a.7.7,0,0,0,.129.28,1.021,1.021,0,0,1-.133,1.336c-.7.929-1.364,1.885-2.038,2.833a1.542,1.542,0,0,0-.381.832.993.993,0,0,0,.328.763q1.445,1.461,2.905,2.907a.948.948,0,0,0,1.334.077,15.656,15.656,0,0,0,1.832-1.3,2.835,2.835,0,0,1,3.9-.486c.373.241.655.405.723.886.177,1.252.411,2.5.616,3.745a1.046,1.046,0,0,0,1.147,1.008q1.938-.016,3.878,0a1.039,1.039,0,0,0,1.168-.978c.136-.841.355-1.674.424-2.52.107-1.327.553-2.319,2.014-2.551a.918.918,0,0,0,.35-.163.868.868,0,0,1,1.124.083c1.043.763,2.118,1.482,3.169,2.234a1.012,1.012,0,0,0,1.46-.082q1.4-1.395,2.8-2.8a1.052,1.052,0,0,0,.091-1.528,15.384,15.384,0,0,0-1.33-1.81,2.773,2.773,0,0,1-.462-3.83c.222-.358.386-.6.833-.671,1.276-.2,2.542-.456,3.815-.67a1.079,1.079,0,0,0,1.016-1.221q-.024-1.9,0-3.8A1.071,1.071,0,0,0,1537.926,577.493Zm-2.762,4.92c-.687.121-1.372.251-2.062.352a1.25,1.25,0,0,0-1.143.995,11.073,11.073,0,0,1-1.118,2.717,1.2,1.2,0,0,0,.1,1.438c.693.934,1.34,1.9,2.053,2.822.347.448.28.73-.1,1.114-1.495,1.522-1.484,1.534-3.227.323-.595-.413-1.193-.821-1.779-1.245a1.156,1.156,0,0,0-1.372-.09,11.533,11.533,0,0,1-2.781,1.168,1.261,1.261,0,0,0-.982,1.151c-.17,1.044-.425,2.079-.536,3.129-.083.785-.451,1.022-1.166.924a3.6,3.6,0,0,0-.465,0c-1.488-.041-1.4.3-1.664-1.407-.132-.868-.3-1.729-.429-2.6a1.275,1.275,0,0,0-1.026-1.2,10.3,10.3,0,0,1-2.713-1.123,1.225,1.225,0,0,0-1.446.087c-.969.691-1.955,1.356-2.916,2.056a.616.616,0,0,1-.931-.069c-1.663-1.555-1.758-1.615-.317-3.38,1.191-1.458,1.834-2.82.514-4.492a.152.152,0,0,1-.026-.073c-.224-1.764-1.307-2.473-3-2.525-.639-.019-1.268-.252-1.908-.316-.547-.054-.687-.331-.675-.82.068-2.675-.459-2.164,2.125-2.5,1.858-.239,3.3-.69,3.545-2.816a.591.591,0,0,1,.126-.282c1.058-1.3.676-2.433-.332-3.561-.5-.555-.857-1.228-1.3-1.83a.58.58,0,0,1,.071-.869c1.555-1.706,1.547-1.712,3.4-.386.567.406,1.146.8,1.707,1.211a1.146,1.146,0,0,0,1.373.063,10.418,10.418,0,0,1,2.714-1.12,1.273,1.273,0,0,0,1.029-1.2c.157-1.1.365-2.19.522-3.289a.722.722,0,0,1,.866-.726c2.645.066,2.005-.346,2.5,2.022.149.707.254,1.423.372,2.137a1.172,1.172,0,0,0,.91,1.033,12,12,0,0,1,2.787,1.154,1.269,1.269,0,0,0,1.512-.125c.916-.676,1.855-1.318,2.766-2a.691.691,0,0,1,1.063.054c1.576,1.512,1.589,1.5.348,3.285-.413.595-.82,1.193-1.244,1.78a1.164,1.164,0,0,0-.077,1.373,11.029,11.029,0,0,1,1.121,2.715,1.292,1.292,0,0,0,1.2,1.028c1.1.155,2.191.363,3.291.513.57.078.762.337.764.918C1537.214,582.049,1537.234,582.049,1535.164,582.413Z" fill="#fff"/>
        <path id="Path_305" data-name="Path 305" d="M1537.926,577.493a18.338,18.338,0,0,0-2.065-.317c-1.627-.054-2.759-.627-3.134-2.372a1.283,1.283,0,0,1,.161-1.191c.747-1.023,1.452-2.077,2.188-3.107a1.013,1.013,0,0,0-.074-1.461c-.948-.953-1.9-1.906-2.855-2.848a.986.986,0,0,0-1.4-.087,13.084,13.084,0,0,0-1.812,1.325,2.845,2.845,0,0,1-3.958.453,1.048,1.048,0,0,1-.616-.792c-.21-1.3-.469-2.591-.695-3.888a1.008,1.008,0,0,0-1.13-.925c-1.292.005-2.585.011-3.878,0a1.042,1.042,0,0,0-1.165.984,17.267,17.267,0,0,0-.322,2.065c-.065,1.609-.6,2.776-2.35,3.147a1.3,1.3,0,0,1-1.209-.141c-1-.74-2.018-1.444-3.021-2.175a1.088,1.088,0,0,0-1.59.117c-.91.918-1.827,1.83-2.741,2.743a1,1,0,0,0-.11,1.456,15.208,15.208,0,0,0,1.26,1.766,2.921,2.921,0,0,1,.445,3.993,1.116,1.116,0,0,1-.858.65c-1.226.175-2.445.407-3.668.6-.64.1-1.058.394-1.057,1.1,0,1.344,0,2.689.005,4.033a.941.941,0,0,0,.846,1.031c.839.147,1.671.359,2.516.439,1.321.126,2.408.481,2.634,2.011a.7.7,0,0,0,.129.28,1.021,1.021,0,0,1-.133,1.336c-.7.929-1.364,1.885-2.038,2.833a1.542,1.542,0,0,0-.381.832.993.993,0,0,0,.328.763q1.445,1.461,2.905,2.907a.948.948,0,0,0,1.334.077,15.656,15.656,0,0,0,1.832-1.3,2.835,2.835,0,0,1,3.9-.486c.373.241.655.405.723.886.177,1.252.411,2.5.616,3.745a1.046,1.046,0,0,0,1.147,1.008q1.938-.016,3.878,0a1.039,1.039,0,0,0,1.168-.978c.136-.841.355-1.674.424-2.52.107-1.327.553-2.319,2.014-2.551a.918.918,0,0,0,.35-.163.868.868,0,0,1,1.124.083c1.043.763,2.118,1.482,3.169,2.234a1.012,1.012,0,0,0,1.46-.082q1.4-1.395,2.8-2.8a1.052,1.052,0,0,0,.091-1.528,15.384,15.384,0,0,0-1.33-1.81,2.773,2.773,0,0,1-.462-3.83c.222-.358.386-.6.833-.671,1.276-.2,2.542-.456,3.815-.67a1.079,1.079,0,0,0,1.016-1.221q-.024-1.9,0-3.8A1.071,1.071,0,0,0,1537.926,577.493Zm-2.762,4.92c-.687.121-1.372.251-2.062.352a1.25,1.25,0,0,0-1.143.995,11.073,11.073,0,0,1-1.118,2.717,1.2,1.2,0,0,0,.1,1.438c.693.934,1.34,1.9,2.053,2.822.347.448.28.73-.1,1.114-1.495,1.522-1.484,1.534-3.227.323-.595-.413-1.193-.821-1.779-1.245a1.156,1.156,0,0,0-1.372-.09,11.533,11.533,0,0,1-2.781,1.168,1.261,1.261,0,0,0-.982,1.151c-.17,1.044-.425,2.079-.536,3.129-.083.785-.451,1.022-1.166.924a3.6,3.6,0,0,0-.465,0c-1.488-.041-1.4.3-1.664-1.407-.132-.868-.3-1.729-.429-2.6a1.275,1.275,0,0,0-1.026-1.2,10.3,10.3,0,0,1-2.713-1.123,1.225,1.225,0,0,0-1.446.087c-.969.691-1.955,1.356-2.916,2.056a.616.616,0,0,1-.931-.069c-1.663-1.555-1.758-1.615-.317-3.38,1.191-1.458,1.834-2.82.514-4.492a.152.152,0,0,1-.026-.073c-.224-1.764-1.307-2.473-3-2.525-.639-.019-1.268-.252-1.908-.316-.547-.054-.687-.331-.675-.82.068-2.675-.459-2.164,2.125-2.5,1.858-.239,3.3-.69,3.545-2.816a.591.591,0,0,1,.126-.282c1.058-1.3.676-2.433-.332-3.561-.5-.555-.857-1.228-1.3-1.83a.58.58,0,0,1,.071-.869c1.555-1.706,1.547-1.712,3.4-.386.567.406,1.146.8,1.707,1.211a1.146,1.146,0,0,0,1.373.063,10.418,10.418,0,0,1,2.714-1.12,1.273,1.273,0,0,0,1.029-1.2c.157-1.1.365-2.19.522-3.289a.722.722,0,0,1,.866-.726c2.645.066,2.005-.346,2.5,2.022.149.707.254,1.423.372,2.137a1.172,1.172,0,0,0,.91,1.033,12,12,0,0,1,2.787,1.154,1.269,1.269,0,0,0,1.512-.125c.916-.676,1.855-1.318,2.766-2a.691.691,0,0,1,1.063.054c1.576,1.512,1.589,1.5.348,3.285-.413.595-.82,1.193-1.244,1.78a1.164,1.164,0,0,0-.077,1.373,11.029,11.029,0,0,1,1.121,2.715,1.292,1.292,0,0,0,1.2,1.028c1.1.155,2.191.363,3.291.513.57.078.762.337.764.918C1537.214,582.049,1537.234,582.049,1535.164,582.413Z" fill="url(#linear-gradient-4)"/>
        <path id="Path_306" data-name="Path 306" d="M1520.664,574.222a6.413,6.413,0,1,0,6.371,6.434A6.367,6.367,0,0,0,1520.664,574.222Zm-.034,11.05a4.638,4.638,0,1,1,4.63-4.666A4.535,4.535,0,0,1,1520.63,585.272Z" fill="#fff"/>
        <path id="Path_307" data-name="Path 307" d="M1520.664,574.222a6.413,6.413,0,1,0,6.371,6.434A6.367,6.367,0,0,0,1520.664,574.222Zm-.034,11.05a4.638,4.638,0,1,1,4.63-4.666A4.535,4.535,0,0,1,1520.63,585.272Z" fill="url(#linear-gradient-5)"/>
      </g>
    </g>
    <g id="Group_164" data-name="Group 164">
      <rect id="Rectangle_87" data-name="Rectangle 87" width="50.304" height="7.019" transform="matrix(0.687, -0.727, 0.727, 0.687, 1564.211, 536.9)" opacity="0.39" fill="url(#linear-gradient-6)"/>
      <rect id="Rectangle_88" data-name="Rectangle 88" width="14.038" height="3.51" transform="matrix(0.727, 0.687, -0.687, 0.727, 1605.07, 488.593)" fill="url(#linear-gradient-7)"/>
      <path id="Path_308" data-name="Path 308" d="M1603.876,505.177l-5.1-4.823.178-1.891,5.4-5.713,6.8,6.431-5.486,5.8Z" fill="url(#linear-gradient-8)"/>
      <rect id="Rectangle_89" data-name="Rectangle 89" width="1.657" height="6.554" rx="0.829" transform="matrix(0.727, 0.687, -0.687, 0.727, 1610.917, 487.517)" fill="url(#linear-gradient-9)"/>
      <rect id="Rectangle_90" data-name="Rectangle 90" width="1.657" height="6.554" rx="0.829" transform="translate(1614.813 491.202) rotate(43.404)" fill="url(#linear-gradient-10)"/>
    </g>
    <g id="Group_165" data-name="Group 165">
      <rect id="Rectangle_91" data-name="Rectangle 91" width="50.304" height="7.019" transform="matrix(-0.723, -0.691, 0.691, -0.723, 1508.492, 540.043)" opacity="0.39" fill="url(#linear-gradient-11)"/>
      <rect id="Rectangle_92" data-name="Rectangle 92" width="14.038" height="3.51" transform="matrix(0.691, -0.723, 0.723, 0.691, 1460.401, 498.93)" fill="url(#linear-gradient-12)"/>
      <path id="Path_309" data-name="Path 309" d="M1476.978,500.21l-4.85,5.074-1.89-.188-5.684-5.433,6.467-6.765,5.771,5.517Z" fill="url(#linear-gradient-13)"/>
      <rect id="Rectangle_93" data-name="Rectangle 93" width="1.657" height="6.554" rx="0.829" transform="translate(1459.357 493.076) rotate(-46.292)" fill="url(#linear-gradient-14)"/>
      <rect id="Rectangle_94" data-name="Rectangle 94" width="1.657" height="6.554" rx="0.829" transform="matrix(0.691, -0.723, 0.723, 0.691, 1463.062, 489.2)" fill="url(#linear-gradient-15)"/>
    </g>
    <g id="Group_166" data-name="Group 166">
      <rect id="Rectangle_95" data-name="Rectangle 95" width="50.304" height="7.019" transform="matrix(0.727, 0.687, -0.687, 0.727, 1569.164, 593.183)" opacity="0.39" fill="url(#linear-gradient-16)"/>
      <rect id="Rectangle_96" data-name="Rectangle 96" width="14.038" height="3.51" transform="matrix(-0.687, 0.727, -0.727, -0.687, 1617.472, 634.042)" fill="url(#linear-gradient-17)"/>
      <path id="Path_310" data-name="Path 310" d="M1600.888,632.848l4.823-5.1,1.891.178,5.713,5.4-6.431,6.8-5.8-5.486Z" fill="url(#linear-gradient-18)"/>
      <rect id="Rectangle_97" data-name="Rectangle 97" width="1.657" height="6.554" rx="0.829" transform="translate(1618.547 639.889) rotate(133.405)" fill="url(#linear-gradient-19)"/>
      <rect id="Rectangle_98" data-name="Rectangle 98" width="1.657" height="6.554" rx="0.829" transform="translate(1614.863 643.785) rotate(133.404)" fill="url(#linear-gradient-20)"/>
    </g>
    <g id="Group_167" data-name="Group 167">
      <rect id="Rectangle_99" data-name="Rectangle 99" width="13.709" height="7.019" transform="matrix(-0.727, -0.687, 0.687, -0.727, 1634.806, 664.922)" fill="#60deaf"/>
      <rect id="Rectangle_100" data-name="Rectangle 100" width="3.011" height="7.019" transform="matrix(-0.727, -0.687, 0.687, -0.727, 1637.948, 667.894)" fill="#60deaf"/>
      <rect id="Rectangle_101" data-name="Rectangle 101" width="1.675" height="7.019" transform="matrix(-0.727, -0.687, 0.687, -0.727, 1639.937, 669.935)" fill="#60deaf"/>
      <rect id="Rectangle_102" data-name="Rectangle 102" width="1.082" height="7.019" transform="matrix(-0.727, -0.687, 0.687, -0.727, 1642.009, 672.031)" fill="#60deaf"/>
      <rect id="Rectangle_103" data-name="Rectangle 103" width="14.038" height="3.51" transform="matrix(0.687, -0.727, 0.727, 0.687, 1613.086, 649.21)" fill="#60deaf"/>
      <path id="Path_311" data-name="Path 311" d="M1629.669,650.4l-4.823,5.1-1.891-.178-5.713-5.4,6.431-6.8,5.8,5.486Z" fill="#60deaf"/>
    </g>
    <g id="Group_168" data-name="Group 168">
      <rect id="Rectangle_104" data-name="Rectangle 104" width="50.304" height="7.019" transform="translate(1497.512 570.706) rotate(178.877)" opacity="0.39" fill="url(#linear-gradient-21)"/>
      <rect id="Rectangle_105" data-name="Rectangle 105" width="14.038" height="3.51" transform="translate(1434.421 575.453) rotate(-91.123)" fill="url(#linear-gradient-22)"/>
      <path id="Path_312" data-name="Path 312" d="M1447.081,564.674l.137,7.018-1.473,1.2-7.861.154-.183-9.357,7.983-.156Z" fill="url(#linear-gradient-23)"/>
      <rect id="Rectangle_106" data-name="Rectangle 106" width="1.657" height="6.554" rx="0.829" transform="translate(1429.554 572.038) rotate(-91.123)" fill="url(#linear-gradient-24)"/>
      <rect id="Rectangle_107" data-name="Rectangle 107" width="1.657" height="6.554" rx="0.829" transform="translate(1429.449 566.677) rotate(-91.123)" fill="url(#linear-gradient-25)"/>
    </g>
    <g id="Group_169" data-name="Group 169">
      <rect id="Rectangle_108" data-name="Rectangle 108" width="50.304" height="7.019" transform="matrix(1, -0.012, 0.012, 1, 1577.046, 563.645)" opacity="0.39" fill="url(#linear-gradient-26)"/>
      <rect id="Rectangle_109" data-name="Rectangle 109" width="14.038" height="3.51" transform="matrix(0.012, 1, -1, 0.012, 1640.169, 559.351)" fill="url(#linear-gradient-27)"/>
      <path id="Path_313" data-name="Path 313" d="M1627.432,570.039l-.087-7.019,1.481-1.188,7.863-.1.116,9.358-7.984.1Z" fill="url(#linear-gradient-28)"/>
    </g>
    <g id="Group_170" data-name="Group 170">
      <rect id="Rectangle_110" data-name="Rectangle 110" width="50.304" height="7.019" transform="matrix(-0.679, 0.734, -0.734, -0.679, 1512.177, 597.936)" opacity="0.39" fill="url(#linear-gradient-29)"/>
      <rect id="Rectangle_111" data-name="Rectangle 111" width="14.038" height="3.51" transform="matrix(-0.734, -0.679, 0.679, -0.734, 1471.829, 646.67)" fill="url(#linear-gradient-30)"/>
      <path id="Path_314" data-name="Path 314" d="M1472.848,630.075l5.15,4.769-.158,1.892-5.343,5.769-6.867-6.359,5.425-5.858Z" fill="url(#linear-gradient-31)"/>
      <rect id="Rectangle_112" data-name="Rectangle 112" width="1.657" height="6.554" rx="0.829" transform="matrix(-0.734, -0.679, 0.679, -0.734, 1465.993, 647.807)" fill="url(#linear-gradient-32)"/>
      <rect id="Rectangle_113" data-name="Rectangle 113" width="1.657" height="6.554" rx="0.829" transform="translate(1462.059 644.164) rotate(-137.198)" fill="url(#linear-gradient-33)"/>
    </g>
    <g id="Group_171" data-name="Group 171">
      <rect id="Rectangle_114" data-name="Rectangle 114" width="50.304" height="7.019" transform="translate(1534.907 527.672) rotate(-90.587)" opacity="0.39" fill="url(#linear-gradient-34)"/>
      <rect id="Rectangle_115" data-name="Rectangle 115" width="14.038" height="3.51" transform="translate(1530.75 464.539) rotate(-0.587)" fill="url(#linear-gradient-35)"/>
      <path id="Path_315" data-name="Path 315" d="M1541.41,477.3l-7.019.072-1.185-1.484-.081-7.863,9.358-.1.082,7.984Z" fill="url(#linear-gradient-36)"/>
    </g>
    <g id="Group_172" data-name="Group 172">
      <rect id="Rectangle_116" data-name="Rectangle 116" width="50.304" height="7.019" transform="translate(1540.668 607.334) rotate(89.413)" opacity="0.39" fill="url(#linear-gradient-37)"/>
      <rect id="Rectangle_117" data-name="Rectangle 117" width="14.038" height="3.51" transform="translate(1544.824 670.467) rotate(179.413)" fill="url(#linear-gradient-38)"/>
      <path id="Path_316" data-name="Path 316" d="M1534.164,657.707l7.019-.072,1.185,1.484.08,7.863-9.358.1-.082-7.984Z" fill="url(#linear-gradient-39)"/>
    </g>
    <g id="Group_173" data-name="Group 173">
      <rect id="Rectangle_118" data-name="Rectangle 118" width="13.709" height="7.019" transform="translate(1541.944 431.265) rotate(90.867)" fill="#3b56a6"/>
      <rect id="Rectangle_119" data-name="Rectangle 119" width="3.011" height="7.019" transform="translate(1542.01 426.941) rotate(90.867)" fill="#3b56a6"/>
      <rect id="Rectangle_120" data-name="Rectangle 120" width="1.675" height="7.019" transform="translate(1542.169 424.095) rotate(90.867)" fill="#3b56a6"/>
      <rect id="Rectangle_121" data-name="Rectangle 121" width="1.082" height="7.019" transform="translate(1542.312 421.151) rotate(90.867)" fill="#3b56a6"/>
      <rect id="Rectangle_122" data-name="Rectangle 122" width="14.038" height="3.51" transform="translate(1545.051 457.892) rotate(-179.133)" fill="#3b56a6"/>
      <path id="Path_317" data-name="Path 317" d="M1534.718,444.866l7.018.106,1.147,1.513-.119,7.862-9.358-.142.121-7.983Z" fill="#3b56a6"/>
      <path id="Path_318" data-name="Path 318" d="M1541.323,457.373l-.014,4.9a.833.833,0,0,1-.832.826h0a.832.832,0,0,1-.826-.831l.015-4.9C1539.667,456.912,1541.324,456.917,1541.323,457.373Z" fill="#3b56a6"/>
      <path id="Path_319" data-name="Path 319" d="M1535.961,457.357l-.014,4.9a.832.832,0,0,1-.831.826h0a.831.831,0,0,1-.827-.831l.015-4.9C1534.305,456.9,1535.963,456.9,1535.961,457.357Z" fill="#3b56a6"/>
    </g>
    <g id="Group_174" data-name="Group 174">
      <rect id="Rectangle_123" data-name="Rectangle 123" width="13.709" height="7.019" transform="translate(1635.859 471.578) rotate(133.334)" fill="#052aa3"/>
      <rect id="Rectangle_124" data-name="Rectangle 124" width="3.011" height="7.019" transform="translate(1638.827 468.433) rotate(133.334)" fill="#052aa3"/>
      <rect id="Rectangle_125" data-name="Rectangle 125" width="1.675" height="7.019" transform="translate(1640.866 466.441) rotate(133.334)" fill="#052aa3"/>
      <rect id="Rectangle_126" data-name="Rectangle 126" width="1.082" height="7.019" transform="translate(1642.959 464.366) rotate(133.334)" fill="#052aa3"/>
      <rect id="Rectangle_127" data-name="Rectangle 127" width="14.038" height="3.51" transform="translate(1620.173 493.317) rotate(-136.666)" fill="#052aa3"/>
      <path id="Path_320" data-name="Path 320" d="M1621.346,476.732l5.105,4.817-.176,1.891-5.4,5.719-6.807-6.423,5.479-5.807Z" fill="#052aa3"/>
    </g>
    <g id="Group_175" data-name="Group 175">
      <rect id="Rectangle_128" data-name="Rectangle 128" width="13.709" height="7.019" transform="translate(1441.878 663.561) rotate(-47.698)" fill="#052aa3"/>
      <rect id="Rectangle_129" data-name="Rectangle 129" width="3.011" height="7.019" transform="translate(1438.968 666.759) rotate(-47.698)" fill="#052aa3"/>
      <rect id="Rectangle_130" data-name="Rectangle 130" width="1.675" height="7.019" transform="translate(1436.965 668.787) rotate(-47.698)" fill="#052aa3"/>
      <rect id="Rectangle_131" data-name="Rectangle 131" width="1.082" height="7.019" transform="translate(1434.909 670.9) rotate(-47.698)" fill="#052aa3"/>
      <rect id="Rectangle_132" data-name="Rectangle 132" width="14.038" height="3.51" transform="translate(1457.17 641.543) rotate(42.302)" fill="#052aa3"/>
      <path id="Path_321" data-name="Path 321" d="M1456.3,658.146l-5.191-4.724.141-1.894,5.292-5.816,6.922,6.3-5.374,5.905Z" fill="#052aa3"/>
    </g>
    <g id="Group_181" data-name="Group 181">
      <g id="Group_179" data-name="Group 179">
        <g id="Group_176" data-name="Group 176">
          <path id="Path_322" data-name="Path 322" d="M1660.1,648.473c2.372,1.658,7.908,4.33,8.894,7.051a13.079,13.079,0,0,1,.571,2.571,110.7,110.7,0,0,1,.8,18.22" fill="#f8f8f8"/>
          <path id="Path_323" data-name="Path 323" d="M1659.771,649.034c1.63,1.08,3.355,2.015,4.962,3.13,3.287,2.281,4.087,4.632,4.5,8.526a111.8,111.8,0,0,1,.478,15.625c-.029.837,1.272.836,1.3,0,.212-6.287.575-13.533-1.044-19.694-1.185-4.509-5.957-6.335-9.543-8.709-.7-.464-1.352.662-.656,1.122Z" fill="#3b56a6"/>
        </g>
        <g id="Group_177" data-name="Group 177">
          <path id="Path_324" data-name="Path 324" d="M1655.16,658.957c-1.177-3.377,1.44-7.073-2.059-7.814-5.419-1.148-10.674,2.13-15.887,3.019-.861.147-2.9.786-3.6-.006-.911-1.041.8-3.051,1.5-3.779,1.081-1.134,2.6-1.579,3.923-2.344,1.764-1.02,3-2.648,4.866-3.574,2.786-1.385,5.773-1.439,8.813-1.268.9.05,2.751.016,3.325.9.759,1.174,3.522,3.089,4.059,4.38.563,1.354,4.388,7.5,4.686,8.932,1.363,6.572.727,3.85,2.09,10.422" fill="#f8f8f8"/>
          <path id="Path_325" data-name="Path 325" d="M1655.787,658.784c-.482-2.056.692-5.408-.691-7.205-1.343-1.745-4.723-1.4-6.567-1.153a38.918,38.918,0,0,0-6.495,1.753c-1.369.437-4.468,1.936-5.821,1.528-4.19-1.262,1.451-4.135,2.642-4.848,1.573-.941,2.787-2.209,4.323-3.209,3.73-2.428,9.883-2.911,13.3-.091,2.335,1.927,3.56,4.247,5.012,6.816,2.828,5,3.608,10.063,4.757,15.625.169.819,1.422.473,1.254-.345-.695-3.364-1.028-7.159-2.09-10.423-.866-2.658-2.567-5.076-3.924-7.5s-3.3-5.325-5.756-6.707c-2.826-1.587-8.523-.647-11.3.515a17.564,17.564,0,0,0-3.919,2.6c-1.844,1.42-4.2,2.159-5.862,3.776-1.061,1.03-2.818,3.317-1.43,4.749,1.921,1.983,7.934-.851,9.873-1.467,2.786-.884,10.084-3.736,11.266.4.468,1.636-.247,3.753.171,5.534.191.815,1.445.47,1.254-.345Z" fill="#3b56a6"/>
        </g>
        <g id="Group_178" data-name="Group 178">
          <path id="Path_326" data-name="Path 326" d="M1630.464,703.3l6.868-5.769a4.735,4.735,0,0,0,1.635-1.993,3.874,3.874,0,0,0-.072-2.184c-1.234-4.651-5.438-7.98-7.066-12.507-1.253-3.484-.874-7.383-2.076-10.884-1.617-4.71-5.788-7.975-9.05-11.738a1.922,1.922,0,0,1-.586-1.123c-.035-1.083,1.49-1.388,2.554-1.187,7.842,1.48,12.614,9.231,18.936,14.1,2.466,1.9,6.2,3.311,8.477,1.183,3.708-3.471-.1-11.72-2.662-14.9a19.511,19.511,0,0,0-3.5-3.849c-1.612-1.164-3.672-1.357-5.349-2.415-1.432-.9-3.443-.5-5.032-.471-1.532.03-9.745-2.567-8.2-4.92a1.934,1.934,0,0,1,1.313-.721,24.781,24.781,0,0,1,5.844-.765c4.845.275,12.927,1.324,16.5,3.733,7.075,4.766,3.79,4.837,10.092,10.693a32.245,32.245,0,0,1,5.163,6.054c2.566,3.966,5.183,8.055,6.11,12.687,1.694,8.471-2.529,16.912-6.918,24.353a52.985,52.985,0,0,1-4.756,7.087,57.852,57.852,0,0,1-5.9,5.848l-11.46,10.322" fill="#f8f8f8"/>
          <path id="Path_327" data-name="Path 327" d="M1630.924,703.757c2.436-2.046,7.684-4.848,8.67-8.049.876-2.842-1.683-6.308-3.14-8.445s-3.1-4.135-4-6.592-.879-5.089-1.335-7.632a18.985,18.985,0,0,0-4.371-9.249c-.628-.752-4.669-4.134-4.677-5.013-.015-1.6,1.976-1.687,2.805-1.573a11.109,11.109,0,0,1,3.1,1.574c3.922,2.422,6.918,6.109,10.27,9.207,3.036,2.807,9.491,7.871,13.005,2.833,3.04-4.358-.619-11.26-3.271-14.857a15.02,15.02,0,0,0-6.539-5.4,15.59,15.59,0,0,0-5.329-1.777c-1.659-.132-3.107.109-4.741-.344-1.226-.34-4.619-1.17-5.041-2.391-.822-2.38,4.834-2.273,6.162-2.255a42.743,42.743,0,0,1,12.655,2.061c6.6,2.215,9.994,8.53,14.626,13.284,4.369,4.483,8.74,11.119,9.96,17.344,1.341,6.839-1.307,13.621-4.439,19.567-2.853,5.417-6.056,10.6-10.512,14.842-4.519,4.309-9.276,8.39-13.915,12.569-.623.561.3,1.478.919.919,8.083-7.28,16.634-13.912,22.218-23.389,4.929-8.367,9.578-18.077,6.134-27.866-3.077-8.746-9.912-14.137-15.086-21.382-3.8-5.328-9.186-7.463-15.515-8.488-2.54-.411-15.5-2.592-14.988,2.322.448,4.341,8.825,4.061,11.563,4.507a17.66,17.66,0,0,1,12.765,9.713,17.126,17.126,0,0,1,1.979,6.064c.25,2.5.132,5.364-3.807,5.739-2.1.2-4.427-1.589-5.973-2.845-5.348-4.346-10.791-12.968-18.409-13.5-1.66-.116-3.2.308-3.116,2.165.072,1.682,2.958,3.7,3.965,4.759,2.242,2.362,4.489,4.826,5.606,7.946,1.079,3.014.855,6.29,1.629,9.369a19.457,19.457,0,0,0,3.044,6.256c1.357,2,4.6,5.27,4.469,7.767-.209,4.078-5.484,6.979-8.263,9.314-.642.539.282,1.454.919.919Z" fill="#3b56a6"/>
        </g>
      </g>
      <g id="Group_180" data-name="Group 180">
        <path id="Path_328" data-name="Path 328" d="M1642.891,652.983a8.936,8.936,0,0,0-3.831,4.613,1.7,1.7,0,0,0-.09,1.225,1.316,1.316,0,0,0,.508.556,3.173,3.173,0,0,0,2.294.334,19.65,19.65,0,0,0,2.272-.687c1.465-.456,1.785-2.059,3.315-1.936" fill="#f8f8f8"/>
        <path id="Path_329" data-name="Path 329" d="M1642.562,652.422c-1.66,1.045-5.884,4.944-3.84,7.172.943,1.028,2.585.926,3.8.61a8.7,8.7,0,0,0,2.61-1.007c.766-.511,1.2-1.43,2.227-1.459a.65.65,0,0,0,0-1.3,2.746,2.746,0,0,0-1.8.636,7.79,7.79,0,0,1-2.815,1.7,4.37,4.37,0,0,1-1.925.354c-1.888-.448-1.026-1.764-.553-2.589a8.592,8.592,0,0,1,2.953-3c.706-.444.054-1.57-.657-1.122Z" fill="#3b56a6"/>
      </g>
    </g>
  </g>
</svg>
