<svg xmlns="http://www.w3.org/2000/svg" xmlns:xlink="http://www.w3.org/1999/xlink" width="65.492" height="65.338" viewBox="0 0 65.492 65.338">
  <defs>
    <linearGradient id="linear-gradient" x1="0.5" x2="-0.107" y2="1.375" gradientUnits="objectBoundingBox">
      <stop offset="0" stop-color="#00ffd8"/>
      <stop offset="1" stop-color="#1000ce"/>
    </linearGradient>
  </defs>
  <g id="Group_82" data-name="Group 82" transform="translate(-405.11 -1255.202)">
    <path id="Path_81" data-name="Path 81" d="M456.331,1260.756a30.325,30.325,0,0,0-8.865-4.161,34.509,34.509,0,0,0-13.477-1.182c-15.838,1.768-28.626,15.521-28.874,31.437a33.281,33.281,0,0,0,4.652,18.079,32.743,32.743,0,0,0,6.264,7.342c2.381,2.1,4.946,4.489,7.943,5.877,3.346,1.549,7.774,2.059,11.419,2.347,2.942.232,5.711-.5,8.589-.5a33.036,33.036,0,0,0,26-25.988,32.1,32.1,0,0,0-3.54-21.952A33.034,33.034,0,0,0,456.331,1260.756Zm1.94,47.2a28.553,28.553,0,0,1-34.122,5.108,8.6,8.6,0,0,1-.82-.581c-7.372-4.175-11.647-10.594-13.475-18.738a23.707,23.707,0,0,1-.3-9.975c1.058-10.716,9.768-20.549,20.872-23.508a26.5,26.5,0,0,1,17.642.992c9.186,3.616,15.044,10.167,17.439,19.774C468.074,1291.339,465.487,1300.356,458.271,1307.954Z" transform="translate(0)" fill="url(#linear-gradient)"/>
    <path id="Path_82" data-name="Path 82" d="M413.477,1308.123c1.137,0,2.276-.048,3.41.009,1.956.1,2.772,1.254,2.127,3.109a24.4,24.4,0,0,1-1.366,2.728c-.822,1.655-.456,2.965,1.135,4.119a2.869,2.869,0,0,0,4-.354,12.718,12.718,0,0,0,3.6-6.994,7.472,7.472,0,0,1,2.087-4.537,4.855,4.855,0,0,1,6.761-.216c1.716,1.639,1.722,4.383-.053,6.454a14.478,14.478,0,0,1-2,1.844,7.834,7.834,0,0,0-1.952,2.111c-.673,1.139-.723,2.13.6,2.866a14.627,14.627,0,0,1,1.867,1.181,7.027,7.027,0,0,1,2.353,7.952c-1.3,4.522-4.521,7.031-8.8,8.443-7.372-4.175-11.647-10.594-13.475-18.739A23.706,23.706,0,0,1,413.477,1308.123Z" transform="translate(-3.918 -24.356)" fill="url(#linear-gradient)"/>
    <path id="Path_83" data-name="Path 83" d="M497.549,1286.881a23.627,23.627,0,0,0-6.046-.713,5.708,5.708,0,0,1-4.911-2.6c-.677-.978-1.327-1.978-2.05-2.921-.946-1.232-1.451-1.221-2.244.076-.857,1.4-1.569,2.893-2.455,4.274-1.026,1.6-2.277,3.246-4.363,3.075-2.134-.174-3.262-1.943-3.994-3.785-.7-1.768-1.573-3.542-1.118-5.563a4.4,4.4,0,0,1,3.433-3.4c1.2-.337,2.413-.62,3.591-1.014a3.505,3.505,0,0,0,2.715-3.8c.01-1.136,0-2.272,0-3.407C489.3,1270.723,495.155,1277.275,497.549,1286.881Z" transform="translate(-32.038 -5.856)" fill="url(#linear-gradient)"/>
    <path id="Path_84" data-name="Path 84" d="M489.764,1333.739c-2.786-.06-7.545-3.64-8.494-6.138-.571-1.5.353-1.951,1.43-2.322a2.708,2.708,0,0,1,1.664.182,6.055,6.055,0,0,0,5.89-1.024,7.625,7.625,0,0,1,5.589-1.634,2.366,2.366,0,0,1,2.229,3.08c-1.32,3.69-4.13,6.005-7.486,7.751A2.03,2.03,0,0,1,489.764,1333.739Z" transform="translate(-37.376 -33.228)" fill="url(#linear-gradient)"/>
  </g>
</svg>
