<svg xmlns="http://www.w3.org/2000/svg" xmlns:xlink="http://www.w3.org/1999/xlink" viewBox="0 0 648.4 586.7"><defs><style>.cls-1{fill:#13c2cc;}.cls-2,.cls-3,.cls-4,.cls-5{opacity:0.64;}.cls-3,.cls-4,.cls-5{isolation:isolate;}.cls-3{fill:url(#linear-gradient);}.cls-4{fill:url(#linear-gradient-3);}.cls-5{fill:url(#linear-gradient-4);}.cls-6{fill:#052aa3;}.cls-7{fill:#fff;}.cls-8{fill:#2a5082;}.cls-9{fill:#2a4abb;}</style><linearGradient id="linear-gradient" x1="251.39" y1="-1933.27" x2="380.86" y2="-2069.37" gradientTransform="matrix(1, 0, 0, -1, 0, -1725.84)" gradientUnits="userSpaceOnUse"><stop offset="0" stop-color="#0c1cdf"/><stop offset="1" stop-color="#0ecddd"/></linearGradient><linearGradient id="linear-gradient-3" x1="251.39" y1="-1933.27" x2="380.86" y2="-2069.38" gradientTransform="matrix(0.71, 0.71, 0.71, -0.71, 1520.47, -1368.1)" xlink:href="#linear-gradient"/><linearGradient id="linear-gradient-4" x1="251.39" y1="-1933.27" x2="380.86" y2="-2069.38" gradientTransform="matrix(0.71, 0.71, 0.71, -0.71, 1520.47, -1368.1)" xlink:href="#linear-gradient"/></defs><title>gyre</title><g id="Слой_2" data-name="Слой 2"><g id="content"><path class="cls-1" d="M38.28,303.78a2.72,2.72,0,0,1-2.72-2.73A282.92,282.92,0,0,1,318.47,18.13a2.73,2.73,0,0,1,0,5.46A277.46,277.46,0,0,0,41,301.05,2.73,2.73,0,0,1,38.28,303.78Z"/><path class="cls-1" d="M318.47,584a2.73,2.73,0,0,1,0-5.46A277.46,277.46,0,0,0,595.94,301.05a2.73,2.73,0,1,1,5.45,0A282.9,282.9,0,0,1,318.47,584Z"/><path class="cls-1" d="M527.89,417.3a2.73,2.73,0,0,1-2.4-4,235.42,235.42,0,0,0-83-312.35,2.73,2.73,0,0,1,2.88-4.64,241.07,241.07,0,0,1,84.88,319.59A2.74,2.74,0,0,1,527.89,417.3Z"/><path class="cls-1" d="M509.69,237.15a2.71,2.71,0,0,1-2.57-1.83,200,200,0,0,0-248-125,2.73,2.73,0,0,1-1.63-5.21A205.47,205.47,0,0,1,512.27,233.53a2.73,2.73,0,0,1-1.68,3.47A2.83,2.83,0,0,1,509.69,237.15Z"/><path class="cls-1" d="M208,497.15a2.64,2.64,0,0,1-1.35-.37A225.5,225.5,0,0,1,129.45,178.2a2.73,2.73,0,1,1,4.57,3,220,220,0,0,0,75.3,310.87,2.73,2.73,0,0,1-1.36,5.1Z"/><path class="cls-1" d="M318.47,484.45A183.48,183.48,0,0,1,144,357.66a2.73,2.73,0,1,1,5.19-1.68,178.12,178.12,0,0,0,239.59,108.6,2.73,2.73,0,1,1,2.16,5A182.24,182.24,0,0,1,318.47,484.45Z"/><path class="cls-1" d="M215.05,407.2a2.74,2.74,0,0,1-1.93-.8,149,149,0,0,1,9.4-219.33,2.73,2.73,0,1,1,3.52,4.17A143.53,143.53,0,0,0,217,402.54a2.73,2.73,0,0,1-1.93,4.66Z"/><path class="cls-1" d="M441.77,407.2a2.73,2.73,0,0,1-1.93-4.66,143.53,143.53,0,0,0-9.06-211.3,2.73,2.73,0,1,1,3.51-4.17,149,149,0,0,1,9.4,219.33A2.72,2.72,0,0,1,441.77,407.2Z"/><path class="cls-1" d="M325.89,423.86A126.53,126.53,0,0,1,279.21,415a2.73,2.73,0,1,1,2-5.07,121.72,121.72,0,0,0,159.42-72.81,2.73,2.73,0,0,1,5.15,1.81A127.24,127.24,0,0,1,325.89,423.86Z"/><path class="cls-1" d="M208,260.1a2.93,2.93,0,0,1-.87-.14,2.73,2.73,0,0,1-1.72-3.45,127.2,127.2,0,0,1,163.21-79.4,2.73,2.73,0,0,1-1.83,5.14,121.77,121.77,0,0,0-156.21,76A2.72,2.72,0,0,1,208,260.1Z"/><g class="cls-2"><ellipse class="cls-3" cx="328.41" cy="288.39" rx="98.42" ry="42.38"/></g><g class="cls-2"><ellipse class="cls-3" cx="328.41" cy="288.39" rx="42.38" ry="98.42"/></g><g class="cls-2"><ellipse class="cls-4" cx="328.4" cy="288.39" rx="42.38" ry="98.42" transform="translate(-107.74 316.68) rotate(-45)"/></g><g class="cls-2"><ellipse class="cls-5" cx="328.4" cy="288.39" rx="98.42" ry="42.38" transform="translate(-107.74 316.68) rotate(-45)"/></g><circle class="cls-6" cx="408.33" cy="185.02" r="18.5"/><circle class="cls-6" cx="146.57" cy="330.77" r="18.5"/><circle class="cls-1" cx="245.84" cy="166.52" r="18.5"/><circle class="cls-1" cx="411.73" cy="452.35" r="18.5"/><path class="cls-6" d="M34.23,382.33c-3.34,0-12-4.14-18.83-9.05-7-5-15.4-12.95-15.4-22.46V319.6l2.83-.38c4.48-.64,7.74-3.52,8.27-7.34l.39-2.81H57l.39,2.81c.53,3.83,3.78,6.72,8.28,7.35l2.81.39v31.21c0,9.51-8.37,17.47-15.4,22.47C46.18,378.19,37.56,382.33,34.23,382.33Z"/><path class="cls-7" d="M3.71,322.84v28c0,7.93,7.53,14.95,13.84,19.44,7,5,14.7,8.36,16.68,8.36s9.62-3.33,16.67-8.34c6.32-4.5,13.84-11.52,13.84-19.45v-28c-5.84-.95-10.1-4.85-11-10.06h-39C13.81,318,9.55,321.87,3.71,322.84Z"/><path class="cls-6" d="M23.82,359.51a3.5,3.5,0,0,1-3.44-4.09l1.68-9.77L15,338.72a3.49,3.49,0,0,1-.88-3.58,3.45,3.45,0,0,1,2.82-2.37l9.82-1.43,4.38-8.89a3.49,3.49,0,0,1,3.13-1.95h0a3.49,3.49,0,0,1,3.13,1.95h0l4.39,8.89,9.81,1.43a3.49,3.49,0,0,1,1.94,6l-7.1,6.93,1.67,9.77A3.49,3.49,0,0,1,43,359.1l-8.77-4.61-8.78,4.61A3.55,3.55,0,0,1,23.82,359.51Zm10.41-8.76a3.59,3.59,0,0,1,1.62.4l8.49,4.47-1.62-9.46a3.51,3.51,0,0,1,1-3.09l6.87-6.7L41.1,335a3.46,3.46,0,0,1-2.63-1.91l-4.24-8.6L30,333.08A3.48,3.48,0,0,1,27.35,335l-9.49,1.38,6.87,6.7a3.48,3.48,0,0,1,1,3.09l-1.62,9.46,8.49-4.47A3.48,3.48,0,0,1,34.23,350.75ZM34,324.09Z"/><path class="cls-1" d="M35.55,324.94l4,8.1a1.49,1.49,0,0,0,1.11.8l8.94,1.3a1.48,1.48,0,0,1,.82,2.52L43.94,344a1.43,1.43,0,0,0-.42,1.3l1.52,8.9a1.48,1.48,0,0,1-2.14,1.56l-8-4.21a1.5,1.5,0,0,0-1.37,0l-8,4.21a1.48,1.48,0,0,1-2.14-1.56l1.53-8.9a1.47,1.47,0,0,0-.43-1.3l-6.46-6.3a1.47,1.47,0,0,1,.81-2.52l8.94-1.3a1.49,1.49,0,0,0,1.11-.8l4-8.1A1.48,1.48,0,0,1,35.55,324.94Z"/><path class="cls-6" d="M366.27,77.16a38.58,38.58,0,1,1,38.58-38.58A38.63,38.63,0,0,1,366.27,77.16Zm0-71.93a33.35,33.35,0,1,0,33.36,33.35A33.39,33.39,0,0,0,366.27,5.23Z"/><path class="cls-6" d="M421.32,95.87a4.17,4.17,0,0,1-3-1.31l-26.48-28a4.18,4.18,0,0,1,6.07-5.74l26.48,28a4.17,4.17,0,0,1-3,7.05Z"/><path class="cls-1" d="M379.77,22.23,360.71,41.29l-7.94-7.94-6.35,6.35L360.71,54l25.42-25.41Z"/><path class="cls-6" d="M360.71,58.43,342,39.7l10.78-10.78,7.94,7.93,19.06-19.06,10.79,10.79ZM350.85,39.7l9.86,9.86,21-21-1.92-1.92L360.71,45.72l-7.94-7.94Z"/><path class="cls-1" d="M379.77,22.23,360.71,41.29l-7.94-7.94-6.35,6.35L360.71,54l25.42-25.41Z"/><path class="cls-6" d="M639.44,240.86H617.82l1.74-3.57a12,12,0,0,0,1.23-5.26V218.91a12.15,12.15,0,1,0-24.3,0V232a11.9,11.9,0,0,0,1.23,5.26l1.73,3.57H577.84V219.65a30.8,30.8,0,0,1,61.6,0Zm-14.14-5h9.17V219.65a25.83,25.83,0,0,0-51.66,0v16.24H592a16.63,16.63,0,0,1-.45-3.86V218.91a17.12,17.12,0,1,1,34.23,0V232A16.63,16.63,0,0,1,625.3,235.89Z"/><path class="cls-1" d="M578,238.37h61.17c3,0,4.53,1.52,4.53,4.54v40.76q0,4.54-4.53,4.54H578q-4.53,0-4.53-4.54V242.91c0-3,1.51-4.54,4.53-4.54Z"/><path class="cls-6" d="M639.12,293H578a9.31,9.31,0,0,1-9.28-9.28V242.87a9.3,9.3,0,0,1,9.28-9.28h61.17a9.27,9.27,0,0,1,9.28,9.28v40.77a9.3,9.3,0,0,1-9.28,9.32ZM578,238.55a4.33,4.33,0,0,0-4.31,4.32v40.8A4.33,4.33,0,0,0,578,288h61.16a4.32,4.32,0,0,0,4.31-4.33V242.87a4.32,4.32,0,0,0-4.31-4.32Z"/><path class="cls-7" d="M613.18,274.62V264.3a9.07,9.07,0,1,0-9.06,0v10.32a4.53,4.53,0,0,0,9.06,0Z"/><path class="cls-6" d="M608.65,283.94h0a9.22,9.22,0,0,1-6.57-2.72,9.36,9.36,0,0,1-2.71-6.56v-7.94a13.81,13.81,0,1,1,18.55,0v7.94A9.3,9.3,0,0,1,608.65,283.94Zm0-36.3a8.85,8.85,0,0,0-5.3,15.93l1,.74v10.35a4.34,4.34,0,0,0,1.26,3,4.24,4.24,0,0,0,3,1.26,4.31,4.31,0,0,0,4.3-4.31V264.31l1-.74a8.85,8.85,0,0,0-5.31-15.93Z"/><path class="cls-1" d="M237.33,515.84c1.63,0,10-15.49,11.87-17.86.64-.82.77-1.23.29-1.82s-1.6-.56-2.8-.21c-2.26.65-5,0-8.16-.92-6.3-1.78-15.41-4.3-19.06,2.23-.35.64-.11.56.59,1.33,1.92,2.08,10,17.25,11.63,17.25Z"/><path class="cls-6" d="M237.33,517.19h-5.64c-1.48,0-2.83-1.78-8.49-11.2a75.65,75.65,0,0,0-4.12-6.49c-.15-.16-.27-.27-.37-.37a1.85,1.85,0,0,1-.42-2.52c4.2-7.5,14.47-4.61,20.61-2.88,2.66.79,5.41,1.51,7.42.93,2.47-.71,3.65,0,4.21.65a2.57,2.57,0,0,1-.28,3.5c-.57.74-2,3.16-3.54,5.72C240.1,515.61,238.77,517.19,237.33,517.19ZM232,514.5h5c1.3-1.14,5.23-7.74,7.38-11.34,1.71-2.87,3.06-5.13,3.74-6l.09-.11a4.33,4.33,0,0,0-1.18.2c-2.69.78-5.87,0-8.9-.93-7.35-2.07-14.21-3.53-17.26,1.19l.16.18a60.14,60.14,0,0,1,4.45,6.93C227.52,508,230.83,513.48,232,514.5Z"/><path class="cls-1" d="M241.31,512.28c-6-3.65-12.12-2-15.91,0-18.91,10.15-26.53,29.85-26.53,39.52,0,19.57,15.44,24.64,34.49,24.64s34.48-4.81,34.48-24.37c0-9.4-8.12-28.59-26.53-39.79Z"/><path class="cls-6" d="M233.36,577.78c-24.11,0-35.83-8.5-35.83-26,0-10.83,8.45-30.61,27.23-40.7,2.74-1.48,9.91-4.43,17.25,0h0c18.74,11.4,27.17,30.81,27.17,40.94,0,9.55-3.62,16.5-10.76,20.68C252.62,576.14,244.42,577.78,233.36,577.78Zm.27-66.35a16.41,16.41,0,0,0-7.6,2c-19.51,10.48-25.82,30.35-25.82,38.34,0,15.89,10.53,23.3,33.15,23.3,22.92,0,33.14-7.1,33.14-23,0-9.23-8.23-27.9-25.88-38.64h0A13.28,13.28,0,0,0,233.63,511.43Z"/><path class="cls-7" d="M208.85,550h-3.67c0-8.47,6.59-23.94,21.2-31.8l1.74,3.26c-14.56,7.8-19.27,22.6-19.27,28.54Zm26.34,8h-3.67a5.51,5.51,0,0,1-5.5-5.54h3.67a1.83,1.83,0,0,0,1.83,1.83h3.67a1.8,1.8,0,0,0,1.3-.53,1.82,1.82,0,0,0,.54-1.3v-1a1.83,1.83,0,0,0-1.25-1.73l-6-2a5.49,5.49,0,0,1-3.76-5.23v-1a5.51,5.51,0,0,1,5.5-5.51h3.67a5.51,5.51,0,0,1,5.5,5.51H237a1.83,1.83,0,0,0-1.83-1.83h-3.67a1.83,1.83,0,0,0-1.83,1.83v1a1.83,1.83,0,0,0,1.25,1.75l6,2a5.47,5.47,0,0,1,3.76,5.22v1a5.51,5.51,0,0,1-5.51,5.54Z"/><path class="cls-7" d="M231.52,532.37h3.67v5.51h-3.67Zm0,23.87h3.67v5.51h-3.67Z"/><path class="cls-8" d="M262.26,586H262l-.74,0-.81,0-.74-.06-.81-.09-.72-.1-.85-.15-.67-.14c-.34-.07-.67-.16-1-.24l-.13,0c-.14,0-.29-.07-.43-.12a17.09,17.09,0,0,1-1.75-.59l-.83-.35-.14-.06-.28-.13c-.45-.21-.84-.41-1.22-.63-3.35-1.94-5.19-4.59-5.19-7.47h2.69c0,1.88,1.36,3.71,3.84,5.14.32.18.65.36,1,.54l.18.07.19.09.71.3c.47.18,1,.36,1.53.51l.35.1.14,0,.89.22.6.12.76.13.65.09.72.08.67.06.74,0,.67,0h1.42l1-.07.19,0,.32,0c.58-.06,1.13-.14,1.65-.23l.34-.07.31-.06.69-.15.38-.1.18,0,.74-.21.23-.09.18-.05c.38-.14.75-.28,1.11-.43l.41-.17c.52-.24.94-.45,1.32-.67l.34-.22.28-.18.39-.26.26-.21.2-.16.33-.27.1-.1.11-.11a7.28,7.28,0,0,0,.55-.59l.21-.26c.11-.14.2-.29.29-.43l.06-.1.11-.17c.06-.13.12-.25.17-.38l.05-.11a1.34,1.34,0,0,0,.07-.18,1.38,1.38,0,0,0,.08-.27l.05-.18a1.8,1.8,0,0,0,.05-.19,2.58,2.58,0,0,0,0-.29l0-.23a1,1,0,0,0,0-.17h2.69a3.57,3.57,0,0,1,0,.46v.16c0,.18,0,.37-.07.55a2.92,2.92,0,0,1-.1.4l0,.16a4.5,4.5,0,0,1-.14.49l-.15.37,0,.09a6.19,6.19,0,0,1-.28.58c-.06.11-.13.22-.2.33l0,.08c-.13.21-.27.42-.43.63l-.29.36a10.87,10.87,0,0,1-.74.81l-.08.07-.21.21-.45.37-.18.15-.38.29c-.16.12-.33.23-.51.34l-.25.17-.48.31c-.46.26-.95.51-1.57.79l-.43.18c-.45.19-.89.36-1.33.51l-.14.05-.33.11-.8.23-.2,0-.47.13-.79.17-.28.06-.44.08c-.58.11-1.19.19-1.83.26l-.4,0-.17,0-1.08.07-.7,0Z"/><path class="cls-7" d="M247,539.69l-.08,36.1c0,2.28,1.5,4.56,4.51,6.3.36.21.74.41,1.12.59l.4.17c.23.1.45.21.69.3l.08,0c.53.21,1.08.39,1.64.55l.14,0,.39.1.95.23.25.06.38.07.81.14.33,0,.36,0c.25,0,.5.06.76.09l.36,0,.34,0,.78,0,.39,0h1.81l1-.07.42,0,.12,0q.89-.09,1.74-.24h.08l.5-.11q.42-.07.84-.18l.6-.16.79-.22.17,0,.27-.1c.41-.14.81-.3,1.2-.46l.44-.19a13.87,13.87,0,0,0,1.44-.73l.19-.11c.14-.08.26-.17.39-.26s.38-.24.55-.37l.43-.33.47-.39.09-.08c.06,0,.1-.11.16-.17a8.43,8.43,0,0,0,.65-.7l.14-.15.11-.15c.13-.18.24-.36.36-.54s.1-.15.15-.22l.05-.12c.08-.16.15-.32.22-.48s.1-.18.13-.27l0-.1c.05-.15.09-.3.13-.46s.07-.2.09-.3,0-.06,0-.08a4.28,4.28,0,0,0,.05-.49c0-.1,0-.21,0-.31v-.13h0l.08-36.83"/><path class="cls-6" d="M261.69,586h-.5l-.81,0H260l-.26,0h-.13l-.79-.09-.13,0a1.9,1.9,0,0,1-.25,0l-.24,0h-.1l-.86-.15-.14,0-.26,0-.21,0-.06,0c-.34-.07-.67-.16-1-.25l-.14,0-.27-.07L255,585c-.59-.17-1.16-.37-1.7-.58l-.12,0-.59-.25-.29-.13-.29-.13c-.44-.2-.85-.42-1.22-.63-3.35-1.94-5.19-4.59-5.19-7.48l.08-36.09h2.69l-.08,36.1c0,1.88,1.36,3.71,3.84,5.14.31.18.66.36,1,.54l.19.08.35.15.43.19.09,0c.5.19,1,.37,1.55.53l.15,0,.12,0,.22.06.89.22.18,0h.06l.15,0,.21,0,.77.13.19,0,.11,0,.15,0,.19,0,.72.08.2,0,.15,0h.33l.73,0h1.92l.18,0,1-.06.22,0h.29c.57-.06,1.13-.14,1.65-.23l.1,0,.21,0,.3-.07.73-.15.39-.11.17-.05c.27-.07.51-.13.74-.21l.13,0,.08,0,.2-.08c.38-.13.76-.27,1.11-.42l.08,0,.33-.14a12,12,0,0,0,1.31-.67l.17-.1.18-.11.18-.12.1-.07.39-.26a2.88,2.88,0,0,0,.27-.22l.2-.15.32-.27.08-.07.13-.14a7.28,7.28,0,0,0,.55-.59l.13-.14a.83.83,0,0,1,.08-.12c.11-.14.2-.29.29-.43l.12-.18,0-.09c.07-.12.12-.25.18-.37l.09-.2h0l0-.09a1.72,1.72,0,0,0,.08-.28l0-.08.06-.19v0a.28.28,0,0,1,0-.09l0-.26v-.09a1.36,1.36,0,0,1,0-.2v-.12l.08-36.84H279l-.08,36.83c0,.06,0,.12,0,.18a1.93,1.93,0,0,1,0,.33v.13c0,.16,0,.32-.06.47a.77.77,0,0,1,0,.15,3.37,3.37,0,0,1-.09.34l0,.13c0,.15-.08.3-.13.45a.88.88,0,0,1-.05.15,1.36,1.36,0,0,1-.13.3l0,0c-.09.19-.17.37-.26.54a1,1,0,0,1-.09.18,1.75,1.75,0,0,1-.16.25,7.4,7.4,0,0,1-.44.65,1.3,1.3,0,0,1-.13.19c0,.06-.11.12-.17.19a10.28,10.28,0,0,1-.73.78l-.19.2-.13.11-.42.35-.17.14-.39.3c-.16.12-.33.23-.51.34l-.21.15-.32.21a2.25,2.25,0,0,0-.21.12,16,16,0,0,1-1.56.79l-.4.17-.07,0c-.41.17-.84.33-1.29.49l-.05,0-.24.09-.15,0-.83.24-.19,0-.48.13-.83.18-.24,0-.35.07-.12,0c-.55.1-1.16.18-1.8.25l-.14,0-.28,0h-.15l-1.08.07h-.07l-.2,0h-1.55Z"/><path class="cls-9" d="M254,544.36c.29.17.6.33.93.49l.27.13a10.92,10.92,0,0,1-1.13-.58l-.28-.16Z"/><path class="cls-8" d="M278.84,540.15c-.26,2.58-2.25,4.94-5.59,6.65-6.5,3.33-16.38,3.09-22.5-.45-.25-.14-.48-.29-.72-.44-6.14-4-5.47-10,1.53-13.57,6.35-3.27,16.42-3,22.49.49l.66.41C277.63,535.15,279.1,537.6,278.84,540.15Zm-7,5.56c5.82-3,6.32-8.2,1.1-11.59l-.57-.35c-5.29-3-13.82-3.23-19.44-.32-5.83,3-6.32,8.2-1.1,11.59l.57.35c5.29,3.05,13.82,3.22,19.44.32"/><path class="cls-1" d="M273,534.12l-.57-.35c-5.29-3-13.82-3.23-19.44-.32-5.83,3-6.32,8.2-1.1,11.59l.57.35c5.29,3.05,13.82,3.22,19.44.32C277.67,542.69,278.17,537.51,273,534.12Z"/><path class="cls-6" d="M262.28,576.75H262l-.74,0-.81,0-.74-.07c-.27,0-.54,0-.8-.09l-.73-.1c-.28,0-.57-.09-.85-.15l-.67-.13-1-.25-.13,0-.43-.12c-.61-.18-1.2-.38-1.75-.59l-.83-.35-.14-.06-.28-.13c-.45-.21-.84-.42-1.22-.64-3.35-1.93-5.19-4.58-5.19-7.47h2.69c0,1.88,1.36,3.7,3.84,5.14.32.18.65.35,1,.53l.18.08.19.08c.23.1.46.21.71.3.47.19,1,.36,1.53.52l.35.1.14,0c.3.08.59.16.89.22s.4.09.6.12l.76.14.65.09.72.08.68,0,.73,0,.66,0h.8l.63,0c.33,0,.65,0,1-.06l.19,0,.32,0c.58-.06,1.13-.13,1.65-.23l.33-.06.29-.06.72-.16.38-.1.18-.05.74-.21.23-.08.18-.06q.57-.2,1.11-.42l.07,0,.33-.14c.53-.24.95-.46,1.33-.67l.34-.22.29-.19.38-.26.26-.2.21-.17.32-.26.1-.1.11-.12a5,5,0,0,0,.55-.59l.21-.25c.11-.15.2-.29.29-.44l.06-.09.11-.18c.06-.12.12-.25.17-.37l.05-.12a1.22,1.22,0,0,0,.07-.17,1.38,1.38,0,0,0,.08-.27l.05-.19a1.21,1.21,0,0,0,.05-.18c0-.1,0-.2,0-.29l0-.24a.88.88,0,0,0,0-.16h2.69a3.42,3.42,0,0,1,0,.45v.17c0,.18,0,.36-.07.54a3.06,3.06,0,0,1-.1.41l0,.16c0,.16-.09.32-.14.49l-.15.36,0,.09a6.19,6.19,0,0,1-.28.58,3.79,3.79,0,0,1-.2.34l0,.07a6.51,6.51,0,0,1-.43.64l-.29.36a9.11,9.11,0,0,1-.74.8l-.08.08-.21.2c-.14.13-.29.25-.44.37l-.2.16-.37.29-.5.34-.26.17-.48.3a14.28,14.28,0,0,1-1.57.79c-.13.07-.27.12-.41.18l-.06,0c-.41.17-.85.33-1.29.48l-.14,0-.33.11c-.26.09-.53.16-.8.23l-.2.06c-.15,0-.31.09-.47.12s-.54.13-.82.18l-.27.06-.42.08c-.58.1-1.19.19-1.83.25l-.4,0h-.17l-1.08.08h-1.27Z"/><path class="cls-6" d="M262.26,567.54H262l-.74,0-.81,0-.75-.06-.79-.09-.73-.1-.85-.15-.67-.14c-.34-.07-.67-.16-1-.24l-.14,0-.41-.11c-.63-.19-1.21-.38-1.76-.6l-.83-.35-.14-.06-.28-.12c-.45-.22-.85-.42-1.22-.64-3.35-1.94-5.19-4.59-5.19-7.47h2.69c0,1.87,1.36,3.7,3.84,5.13.32.18.65.36,1,.54l.17.07.2.09c.23.1.46.21.71.3.47.18,1,.36,1.53.52l.34.09.15,0,.89.22.6.12.76.13.65.09.72.08.68.06.73,0,.67,0h1.42l1-.07h.2l.31,0c.57-.06,1.12-.14,1.65-.23l.32-.07.3-.06.72-.15.38-.1.18-.05.74-.21.23-.08.18-.06c.38-.14.76-.28,1.11-.43l.09,0,.31-.13a14.83,14.83,0,0,0,1.33-.67l.34-.22.29-.18.38-.26.26-.2.21-.17.32-.27a.94.94,0,0,0,.1-.1l.11-.11a5.85,5.85,0,0,0,.55-.59l.21-.26c.11-.14.2-.29.29-.43l.06-.09.11-.18c.06-.12.12-.25.17-.38l.05-.11c0-.06,0-.12.07-.17a1.47,1.47,0,0,0,.08-.28l.05-.19a1.21,1.21,0,0,0,.05-.18,2.58,2.58,0,0,0,0-.29l0-.23a1,1,0,0,0,0-.17h2.69a3.57,3.57,0,0,1,0,.46V558c0,.19,0,.37-.07.55a2.92,2.92,0,0,1-.1.4l0,.16c0,.17-.09.33-.14.49l-.15.37,0,.09a6.19,6.19,0,0,1-.28.58l-.2.34,0,.07c-.13.21-.27.42-.43.63l-.29.36a10.87,10.87,0,0,1-.74.81l-.08.07-.21.21-.44.36-.2.17-.37.28c-.16.12-.33.23-.5.34l-.26.17-.48.31c-.46.26-.95.51-1.57.79l-.38.16-.09,0c-.41.17-.84.34-1.29.49l-.14,0-.33.11-.8.23-.2.05-.47.13c-.27.07-.54.12-.82.18l-.27,0-.42.09c-.58.1-1.2.18-1.83.25l-.39,0-.18,0-1.08.07-.7,0Z"/><path class="cls-6" d="M262.26,558.32H262l-.74,0-.81,0-.75-.07c-.26,0-.53-.05-.79-.09l-.73-.1c-.28,0-.57-.09-.85-.15l-.67-.13-1-.25-.11,0-.45-.12c-.62-.18-1.2-.38-1.75-.59l-.83-.35-.13-.06-.29-.13c-.45-.21-.85-.42-1.22-.63-3.35-1.94-5.19-4.59-5.19-7.48h2.69c0,1.88,1.36,3.7,3.84,5.14.32.18.65.35,1,.54l.18.07.18.08.72.31q.71.27,1.53.51l.37.1.12,0c.3.08.59.16.89.22l.6.12.76.14.65.09.72.08.68.06.73,0h1.46l.63,0c.33,0,.65,0,1-.06l.17,0c.11,0,.23,0,.34,0,.57,0,1.12-.13,1.65-.22l.32-.07.3-.06.72-.16.38-.1.18,0,.74-.21.23-.08.18-.06q.57-.19,1.11-.42l.09,0,.31-.13a14.83,14.83,0,0,0,1.33-.67l.34-.22.29-.19.38-.25.27-.21.2-.17.32-.26.1-.1.12-.12a7,7,0,0,0,.54-.58l.21-.26a4.17,4.17,0,0,0,.29-.44l.06-.09.11-.18c.06-.12.12-.25.17-.37l.05-.11a1.34,1.34,0,0,0,.07-.18,1.38,1.38,0,0,0,.08-.27l.05-.19a1.21,1.21,0,0,0,.05-.18,2.85,2.85,0,0,0,0-.29l0-.24a.88.88,0,0,0,0-.16h2.69a3.42,3.42,0,0,1,0,.45v.17c0,.18,0,.36-.07.55a3.34,3.34,0,0,1-.1.4l0,.16c0,.16-.09.33-.14.49l-.15.37,0,.09c-.09.19-.17.39-.28.58s-.13.22-.2.33l0,.08c-.13.21-.27.42-.43.63l-.29.36c-.22.26-.47.53-.74.8l-.08.08-.21.2c-.14.13-.29.25-.44.37l-.19.15-.38.3c-.16.12-.33.23-.5.34l-.26.17c-.16.1-.31.21-.48.3a16.19,16.19,0,0,1-1.57.8l-.38.16-.09,0c-.42.17-.85.34-1.29.49l-.14.05-.33.11-.8.23-.2.05-.47.13-.82.17-.27.06-.42.08c-.58.11-1.2.19-1.83.26l-.42,0-.15,0-1.09.07-.69,0Z"/><path class="cls-6" d="M274.12,546.33c-6.31,3.73-16.75,3.77-23.27.08l-.12-.07c-6.5-3.75-6.53-9.67,0-13.53,6.15-3.66,16.78-3.69,23.21-.07l.1.06c3.08,1.77,4.81,4.13,4.88,6.66S277.25,544.48,274.12,546.33Zm-21.48-.8c5.67,3.11,14.54,3,19.93-.22s5.21-8.42-.17-11.53l-.11-.06c-5.75-3.25-14.74-3.08-20.1.13s-5.29,8.37.19,11.53l.26.15"/><path class="cls-6" d="M262.28,550.66H262l-.74,0-.81,0-.74-.06-.8-.09-.73-.1-.85-.15-.67-.14c-.34-.07-.67-.16-1-.24l-.13,0-.43-.12a17.09,17.09,0,0,1-1.75-.59l-.83-.35-.14-.06-.28-.13c-.45-.21-.84-.41-1.22-.63-3.35-1.94-5.19-4.59-5.19-7.47h2.69c0,1.88,1.36,3.71,3.84,5.14.32.18.65.36,1,.54l.18.07.19.09.71.3c.47.18,1,.36,1.53.51l.35.1.14,0,.89.22.6.12.76.13.65.09.72.08.67.06.74,0,.66,0h.8l.63,0c.33,0,.65,0,1-.06l.19,0,.32,0c.58-.06,1.13-.14,1.65-.23l.34-.07.31-.06.69-.15.38-.11.18-.05c.27-.07.51-.13.74-.21l.23-.08.18-.06q.57-.2,1.11-.42l.07,0,.33-.14a14.83,14.83,0,0,0,1.33-.67l.34-.22.28-.18.39-.26.26-.21.2-.16.33-.27.1-.1.11-.11a7.28,7.28,0,0,0,.55-.59l.21-.26c.11-.14.2-.29.29-.43l.06-.1.11-.17c.06-.13.12-.25.17-.38l.05-.12a.87.87,0,0,0,.07-.17,1.38,1.38,0,0,0,.08-.27l0-.08,2.6.69,0,.07c0,.16-.09.33-.14.49l-.15.37,0,.09a6.19,6.19,0,0,1-.28.58c-.06.11-.13.22-.2.33l0,.08c-.13.21-.27.42-.43.63l-.29.36a10.87,10.87,0,0,1-.74.81l-.08.07-.21.21-.45.37-.18.15-.38.29c-.16.12-.33.23-.51.34l-.25.17-.48.31c-.46.26-.95.51-1.57.79l-.41.17-.06,0c-.41.17-.85.34-1.29.49l-.14,0-.33.11-.8.23-.2.05-.47.13-.79.17-.28.06-.44.08c-.58.11-1.19.19-1.83.26l-.4,0-.17,0-1.08.07-.7,0Z"/><path class="cls-7" d="M267.56,545.63a.29.29,0,0,0,.18,0,17.2,17.2,0,0,1-2.53.54l-.16-.09-2.15-1.25-1.08-.62c-.12-.07-.11-.1,0-.16l4.13-2.39s.1,0,.1-.11l-.19,0h-6.8l-.16,0a.11.11,0,0,1,0-.1c0-1.31,0-2.63,0-4a.57.57,0,0,0,0-.12l-.12.07-4.16,2.41a.2.2,0,0,1-.25,0l-.79-.46-.8-.46-1.79-1a5.39,5.39,0,0,1,.92-1.46s0,.06.09.1l.93.53,1.29.76a.26.26,0,0,0,.32,0l6.67-3.87a.38.38,0,0,1,.17-.08v.13q0,3,0,6s0,.07,0,.09a.37.37,0,0,0,.17,0h10.39l.19,0,0,0-.15.09-6.68,3.87c-.1.06-.13.09,0,.15l.67.39Z"/><path class="cls-8" d="M294.06,586.64h-.28l-.74,0-.81,0-.75-.06-.8-.09-.72-.11-.86-.14-.66-.14c-.35-.07-.68-.16-1-.25l-.11,0a3.74,3.74,0,0,1-.45-.12c-.62-.18-1.21-.38-1.75-.59-.29-.11-.56-.23-.83-.35l-.14-.06-.28-.12c-.45-.22-.85-.43-1.23-.64-3.35-1.94-5.19-4.59-5.18-7.47h2.69c0,1.88,1.35,3.71,3.84,5.14.31.18.65.36,1,.54l.18.08.18.07.71.31c.47.18,1,.36,1.53.52l.37.09.12,0,.9.22.6.12.76.13.65.09.72.08.67.06.73,0,.67,0h.79l.63,0c.33,0,.66,0,1-.06l.2,0,.32,0c.56-.06,1.12-.14,1.64-.23l.33-.07.3-.06.71-.15.39-.11.17-.05c.28-.07.51-.13.74-.21l.24-.08.17-.06c.39-.13.76-.27,1.12-.42l.09,0,.31-.13a13.31,13.31,0,0,0,1.32-.67c.12-.07.24-.14.35-.22l.29-.19.38-.25.25-.2.22-.18a3.88,3.88,0,0,0,.31-.26l.11-.1.11-.11a7.28,7.28,0,0,0,.55-.59l.21-.26.29-.43.05-.1a1.63,1.63,0,0,0,.11-.17,3.17,3.17,0,0,0,.17-.38l0-.11a1.42,1.42,0,0,0,.08-.18c0-.09,0-.18.08-.27l.05-.19c0-.06,0-.12,0-.18a2.54,2.54,0,0,0,0-.29l0-.23c0-.06,0-.12,0-.17l2.69,0a3.4,3.4,0,0,1,0,.45l0,.16a5.14,5.14,0,0,1-.06.55c0,.13-.06.27-.1.4l0,.16c-.05.16-.09.33-.15.49s-.1.26-.15.38l0,.08c-.08.19-.17.39-.27.58s-.13.22-.2.33l-.05.08q-.19.32-.42.63l-.29.36a9.23,9.23,0,0,1-.75.81l-.07.07-.22.21c-.13.12-.28.24-.43.36l-.2.16c-.12.1-.24.2-.37.29l-.5.33-.26.18-.49.31c-.45.26-.95.51-1.56.79l-.38.16-.09,0c-.41.17-.85.34-1.29.49l-.14,0-.33.11-.81.23-.19,0-.48.13-.81.17-.27.06-.42.08c-.59.11-1.2.19-1.83.26l-.4,0-.17,0-1.09.07-.7,0Z"/><path class="cls-6" d="M293.5,586.7H293l-.81,0h-.37l-.24,0h-.14l-.8-.09-.12,0-.26,0-.24,0-.11,0-.84-.14-.13,0-.28-.05-.19,0-.07,0c-.35-.07-.68-.16-1-.25l-.13,0-.29-.07-.16,0c-.59-.17-1.16-.37-1.7-.58l-.12,0-.58-.25-.3-.13-.29-.13c-.44-.21-.84-.41-1.22-.63-3.35-1.94-5.19-4.59-5.18-7.48l.08-18.9h2.69l-.08,18.9c0,1.88,1.36,3.71,3.84,5.14q.46.27,1,.54l.19.07.36.16.43.19.11,0a16.12,16.12,0,0,0,1.53.51l.14,0,.13,0,.22.06c.29.07.59.15.89.21l.17,0h.07a.76.76,0,0,0,.16,0l.19,0,.77.13.19,0,.12,0,.14,0,.2,0,.72.08.21,0,.14,0h.33l.73,0h2.08c.33,0,.66,0,1-.06l.23,0h.28c.58-.06,1.13-.14,1.65-.23l.11,0,.2,0,.24-.05.1,0,.69-.15.39-.11.24-.06.67-.2.14,0,.07,0,.2-.08c.38-.13.76-.27,1.12-.42l.07,0,.33-.14a13.31,13.31,0,0,0,1.32-.67l.17-.1.17-.11.18-.13.13-.08.36-.24.26-.2.21-.17.32-.27.09-.07.13-.14c.2-.2.39-.4.55-.59l.12-.14.09-.12.29-.43a1.08,1.08,0,0,1,.11-.18.47.47,0,0,0,.05-.1,2.48,2.48,0,0,0,.17-.37,1.14,1.14,0,0,1,.1-.19h0l0-.08c0-.1.05-.19.08-.28l0-.08a1.8,1.8,0,0,1,0-.19v0a.29.29,0,0,1,0-.09,2.11,2.11,0,0,0,0-.26v-.09l0-.2v-.12l.08-19.64h2.69l-.08,19.79,0,.35,0,.13c0,.16,0,.31-.05.47l0,.15a1.89,1.89,0,0,1-.09.34l0,.13c0,.15-.08.3-.13.45s0,.1-.05.15a2.92,2.92,0,0,1-.14.31l0,0c-.08.18-.16.36-.25.54l-.09.18a2,2,0,0,1-.16.24c-.15.24-.29.45-.44.66L309,581a1.12,1.12,0,0,1-.18.2,10.18,10.18,0,0,1-.73.79l-.18.18-.13.12c-.12.1-.27.23-.43.35l-.18.15c-.12.1-.24.2-.37.29l-.49.33-.24.16-.32.21-.2.11a15.93,15.93,0,0,1-1.56.8l-.41.17-.06,0c-.42.17-.86.34-1.29.49l-.06,0-.23.08-.16.05c-.27.09-.53.16-.79.23l-.23.06-.48.13-.79.17-.28.06-.34.07-.12,0c-.55.09-1.17.18-1.8.25l-.14,0-.29,0h-.14l-1.09.07h-.06l-.2,0H293.5Z"/><path class="cls-6" d="M294.07,577.43h-.29l-.74,0-.81,0q-.37,0-.75-.06c-.27,0-.53,0-.8-.09l-.72-.1c-.29,0-.57-.09-.85-.15l-.67-.13-1-.25-.14,0-.42-.12c-.62-.18-1.21-.38-1.75-.59-.29-.11-.56-.23-.83-.36l-.13-.05-.3-.13c-.43-.21-.84-.42-1.22-.64-3.35-1.93-5.19-4.59-5.18-7.47h2.69c0,1.88,1.35,3.7,3.84,5.14.31.18.66.36,1,.53l.19.08.18.08c.23.1.47.21.71.3.47.19,1,.36,1.53.52l.35.09.15,0c.29.08.59.16.89.22l.6.12.76.14.65.09.72.08.67,0,.73,0,.67,0h.8l.62,0c.33,0,.66,0,1-.06l.19,0,.33,0c.56-.06,1.12-.13,1.64-.23l.33-.06.3-.06.71-.16.37-.1.26-.07.67-.19.24-.08.17-.06c.38-.13.76-.27,1.12-.42l.09,0,.31-.13c.53-.24.95-.46,1.32-.67l.35-.22.29-.2c.13-.08.26-.16.38-.25a2.65,2.65,0,0,0,.26-.21l.21-.16.31-.26.11-.11.11-.1c.21-.21.39-.41.55-.6l.2-.25c.11-.15.21-.29.3-.44l.05-.09a1.74,1.74,0,0,0,.11-.18,3,3,0,0,0,.17-.37l0-.11a1.42,1.42,0,0,0,.08-.18c0-.09,0-.18.08-.27l.05-.19c0-.06,0-.12,0-.18s0-.2,0-.29l0-.24c0-.05,0-.11,0-.17l2.69,0a3.4,3.4,0,0,1,0,.45l0,.17a5,5,0,0,1-.06.54c0,.14-.06.27-.1.4l0,.16c-.05.17-.09.33-.15.5s-.1.25-.15.37l0,.09q-.12.28-.27.57a3.79,3.79,0,0,1-.2.34l-.05.07c-.13.22-.27.43-.42.64s-.18.23-.28.34a9.59,9.59,0,0,1-.76.82l-.07.07-.22.21a3.73,3.73,0,0,1-.43.36l-.19.16-.38.3-.5.33-.26.17-.49.31a16,16,0,0,1-1.56.79l-.38.17-.09,0c-.42.18-.86.35-1.3.49l-.13.05-.33.11-.77.22-.25.07c-.15,0-.3.09-.46.12l-.81.18-.27.06-.42.08c-.59.1-1.2.19-1.83.25l-.4,0h-.17c-.37,0-.73.06-1.09.07l-.7,0Z"/><path class="cls-6" d="M294.07,568.22h-.29l-.74,0-.81,0-.75-.06-.8-.09-.72-.1-.85-.15-.68-.14-1-.24-.14,0-.42-.12a17.91,17.91,0,0,1-1.75-.59c-.28-.1-.54-.22-.8-.34l-.17-.07-.29-.13c-.44-.21-.84-.41-1.22-.63-3.35-1.94-5.19-4.59-5.18-7.47h2.69c0,1.88,1.35,3.71,3.84,5.14q.47.27,1,.54l.18.08.19.08.71.3c.48.18,1,.36,1.53.52l.35.09.15,0,.89.22.6.12.76.13c.21,0,.43.07.65.09l.72.08c.22,0,.45,0,.67.06l.73,0,.67,0h1.43l1-.07h.19l.33,0c.57-.06,1.12-.14,1.64-.23l.35-.07.3-.06.69-.15.39-.1.17,0,.74-.21.23-.08.18-.06c.38-.13.76-.28,1.12-.43l.4-.17a13.31,13.31,0,0,0,1.32-.67c.12-.07.24-.14.35-.22l.28-.18.39-.26.26-.21.19-.15c.12-.09.23-.19.33-.28l.11-.1.11-.11a7.28,7.28,0,0,0,.55-.59,2.56,2.56,0,0,0,.2-.26c.11-.14.21-.29.3-.43l.05-.09a1.74,1.74,0,0,0,.11-.18,3.17,3.17,0,0,0,.17-.38l0-.11a1.42,1.42,0,0,0,.08-.18c0-.08,0-.18.08-.27l.05-.19c0-.06,0-.12,0-.18a2.54,2.54,0,0,0,0-.29l0-.23c0-.06,0-.12,0-.17l2.69,0a3.4,3.4,0,0,1,0,.45l0,.16a4.87,4.87,0,0,1-.06.55c0,.13-.06.27-.1.4l0,.16c-.05.17-.09.33-.15.49s-.1.25-.15.38l0,.08a6.11,6.11,0,0,1-.27.58l-.2.34-.05.07q-.19.32-.42.63l-.29.36a9.23,9.23,0,0,1-.75.81l-.07.07-.22.21a5.54,5.54,0,0,1-.45.37l-.17.14c-.13.11-.25.21-.38.3l-.52.35-.24.16-.49.31a17.22,17.22,0,0,1-1.56.79l-.44.19c-.45.18-.88.35-1.32.5l-.16.05-.31.11-.81.23-.19,0-.48.13-.79.17-.27.06-.44.09c-.58.1-1.2.18-1.83.25l-.4,0-.17,0-1.09.07-.7,0Z"/><path class="cls-1" d="M304.17,551.42l-.1-.06c-5.75-3.25-14.75-3.08-20.1.13s-5.29,8.37.18,11.53l.27.15c5.67,3.11,14.54,3,19.93-.22S309.56,554.53,304.17,551.42Z"/><path class="cls-6" d="M305.9,564c-6.31,3.73-16.75,3.77-23.27.08l-.13-.07c-6.5-3.75-6.53-9.67,0-13.53,6.15-3.66,16.77-3.69,23.2-.07l.1.06c3.08,1.77,4.82,4.13,4.89,6.66S309,562.12,305.9,564Zm-21.48-.8c5.67,3.11,14.54,3,19.93-.22s5.21-8.42-.18-11.53l-.1-.06c-5.75-3.25-14.75-3.08-20.1.13s-5.29,8.37.18,11.53l.27.15"/><path class="cls-7" d="M302.91,553.4l-.81-.46a.57.57,0,0,0-.48,0l-2.28,1.37-1.29-.73,2.27-1.37a.14.14,0,0,0,0-.27l-.82-.46a.57.57,0,0,0-.48,0l-2.27,1.37-2.69-1.51a.54.54,0,0,0-.48,0l-.8.47c-.11.07-.13.19,0,.26.83.56.73,1.2,0,1.63l-4.86,2.91a2.5,2.5,0,0,1-2.37.12.58.58,0,0,0-.41,0l-.95.4c-.17.06-.19.21,0,.29l2.56,1.44-2.28,1.36c-.13.08-.13.2,0,.27l.81.46a.51.51,0,0,0,.48,0l2.27-1.36,1.31.73L287,561.68c-.13.07-.12.2,0,.28l.81.45a.51.51,0,0,0,.48,0l2.28-1.36,1.09.61a6.29,6.29,0,0,0,5.71-.16c1-.6,1.4-1.4,1.18-2.13a5.84,5.84,0,0,0,2.38-.75c1.61-1,1.68-2.44.13-3.33l-.44-.26,2.27-1.36C303.05,553.6,303.05,553.48,302.91,553.4ZM295.08,560a2.89,2.89,0,0,1-2.64,0l-2.64-1.48,2.59-1.55,2.64,1.48h0A.81.81,0,0,1,295.08,560Zm3.12-2.62a2.89,2.89,0,0,1-2.64,0l-2-1.12,2.59-1.55,2,1.12h0C298.89,556.25,298.91,556.92,298.2,557.35Z"/><path class="cls-6" d="M168.62,161.43a2.19,2.19,0,0,1-1.51-.6l-23.6-22a2.23,2.23,0,0,1-.71-1.63,2.2,2.2,0,0,1,.72-1.62l23.59-21.93a2.23,2.23,0,0,1,3,3.26l-21.84,20.3,21.84,20.35a2.22,2.22,0,0,1-1.52,3.85Z"/><path class="cls-6" d="M208.18,161.43a2.22,2.22,0,0,1-1.52-3.85l21.84-20.35-21.84-20.3a2.23,2.23,0,1,1,3-3.26l23.59,21.93a2.21,2.21,0,0,1,0,3.25l-23.59,22A2.21,2.21,0,0,1,208.18,161.43Z"/><path class="cls-6" d="M184.26,163.71a4.71,4.71,0,0,1-.74-.06,4.45,4.45,0,0,1-3.65-5.13l8.2-49.18a4.45,4.45,0,1,1,8.78,1.47L188.65,160A4.46,4.46,0,0,1,184.26,163.71Z"/><path class="cls-1" d="M184.26,161a1.53,1.53,0,0,1-.3,0,1.78,1.78,0,0,1-1.46-2l8.21-49.18a1.78,1.78,0,1,1,3.51.59L186,159.55A1.78,1.78,0,0,1,184.26,161Z"/></g></g></svg>