<svg xmlns="http://www.w3.org/2000/svg" xmlns:xlink="http://www.w3.org/1999/xlink" width="64" height="64" viewBox="0 0 64 64">
  <defs>
    <linearGradient id="linear-gradient" x1="0.5" x2="0.5" y2="1" gradientUnits="objectBoundingBox">
      <stop offset="0" stop-color="#00ffd8"/>
      <stop offset="1" stop-color="#1000ce"/>
    </linearGradient>
    <linearGradient id="linear-gradient-2" x1="1.986" y1="-0.223" x2="-1.335" y2="1.797" xlink:href="#linear-gradient"/>
  </defs>
  <g id="Group_205" data-name="Group 205" transform="translate(-587 -2863)">
    <g id="Group_107" data-name="Group 107" transform="translate(11 265)">
      <circle id="Ellipse_32" data-name="Ellipse 32" cx="32" cy="32" r="32" transform="translate(576 2598)" fill="url(#linear-gradient)"/>
      <circle id="Ellipse_31" data-name="Ellipse 31" cx="28" cy="28" r="28" transform="translate(580 2602)" fill="#fff"/>
      <g id="Group_90" data-name="Group 90" transform="translate(599.367 2615.494)">
        <g id="Group_30" data-name="Group 30" transform="translate(0 0)">
          <path id="Path_104" data-name="Path 104" d="M1012.958,1372.191l.007-2.771a8.789,8.789,0,0,1-5.235-2.038,5.735,5.735,0,0,1-2.049-4.669l2.6.007c-.005,2.534,1.544,3.957,4.687,4.267l.016-7.94-1.079-.406c-3.748-1.194-5.673-2.583-5.666-5.59s2.31-5.2,6.771-5.493l.006-2.536,2.094.005,0,2.57c3.92.312,5.975,2.379,6.475,5.455l-2.635-.007c-.369-1.79-1.649-2.841-3.845-3.116l-.016,7.265,2.364.781c3.106,1.055,4.927,2.647,4.92,5.622a5.082,5.082,0,0,1-1.935,3.949,8.569,8.569,0,0,1-5.378,1.915l-.007,2.736Zm.035-15.578.015-6.724c-2.568.265-3.89,1.613-3.894,3.235,0,1.657.84,2.47,2.866,3.115Zm2.072,10.414c2.839-.23,4.329-1.817,4.334-3.539,0-1.656-1.042-2.841-3.1-3.487l-1.215-.409Z" transform="translate(-1004.987 -1344.328)" fill="url(#linear-gradient-2)"/>
          <path id="Path_105" data-name="Path 105" d="M1015.938,1373.085l-3.482-.009.007-2.84a9.22,9.22,0,0,1-5-2.141,6.418,6.418,0,0,1-2.285-5.191l0-.693,3.989.01v.694c0,1.26.355,2.942,3.3,3.47l.014-6.667-.628-.236c-3.662-1.165-6.124-2.679-6.115-6.24.008-3.4,2.524-5.658,6.773-6.127l.005-2.594,3.481.007-.005,2.639c3.632.487,5.917,2.586,6.467,5.965l.13.807-4.016-.01-.113-.554a3.025,3.025,0,0,0-2.475-2.424l-.014,5.934,1.887.624c2.324.789,5.406,2.3,5.4,6.281a5.761,5.761,0,0,1-2.174,4.472,8.888,8.888,0,0,1-5.139,2.03Zm-2.093-1.392.707,0,.007-2.7.653-.036a7.941,7.941,0,0,0,4.955-1.74,4.4,4.4,0,0,0,1.7-3.433c.005-2.419-1.326-3.9-4.45-4.963l-2.836-.938.02-8.551.778.1c2.74.344,3.857,1.783,4.294,3.113l1.24,0c-.69-2.456-2.593-3.823-5.67-4.069l-.638-.05,0-2.518-.707,0-.006,2.489-.646.045c-3.886.255-6.117,2.005-6.124,4.8-.005,2.419,1.352,3.706,5.182,4.927l1.564.588-.02,9.185-.76-.074c-3.908-.387-5.069-2.4-5.276-4.266l-1.222,0a4.868,4.868,0,0,0,1.771,3.441,8.136,8.136,0,0,0,4.847,1.88l.638.052Zm.717-3.721.021-9.151,2.126.717c2.956.926,3.578,2.765,3.575,4.145,0,1.9-1.544,3.951-4.972,4.228Zm1.4-7.222-.013,5.676c1.786-.352,2.943-1.4,2.945-2.746s-.853-2.272-2.615-2.823Zm-2.088-2.951-1.943-.714c-1.714-.546-3.325-1.391-3.32-3.769,0-1.673,1.194-3.582,4.517-3.923l.765-.078Zm-1.37-6.906c-1.58.348-2.5,1.225-2.505,2.426,0,1.122.366,1.81,2.384,2.454l.111.041Z" transform="translate(-1005.18 -1344.521)" fill="url(#linear-gradient-2)"/>
        </g>
      </g>
    </g>
  </g>
</svg>
